;TYPE=PLATED
;Layer: PTH_Through_Via
;EasyEDA Pro v2.2.45.4, 2025-12-19 14:04:37
;Gerber Generator version 0.3
M48
METRIC,LZ,0000.00000
;Hole size 1 = 0.30000 METRIC
T01C0.30000
;Hole size 2 = 0.30500 METRIC
T02C0.30500
;Hole size 3 = 0.40000 METRIC
T03C0.40000
;Hole size 4 = 0.60000 METRIC
T04C0.60000
%
G05
G90
T01
X-24.96936Y9.88923
X-25.46949Y8.77883
X-25.96936Y9.80203
X-26.46949Y8.13283
X-26.96936Y8.82583
X-38.72169Y7.99483
X-37.72169Y8.13283
X-36.22156Y10.06703
X-36.72169Y9.03283
X-37.22156Y9.72583
X-38.22156Y8.82583
X-25.527Y7.747
T02
X-59.63Y30.844
X-41.148Y36.068
T03
X-26.93539Y22.47413
X-31.88839Y22.47413
X-36.84139Y22.47413
X-18.288Y19.939
X-21.98239Y22.47413
X-21.38726Y29.05457
X-22.80874Y33.42943
X-20.23726Y32.5939
X-20.23726Y29.8901
X-22.80874Y29.05457
X-23.95874Y29.8901
X-24.398Y31.242
X-23.95874Y32.5939
X-19.798Y31.242
X-21.38726Y33.42943
X-32.7406Y12.7254
X-31.35993Y12.7
X-32.004Y11.684
X-30.734Y11.684
X-40.513Y10.922
X-41.783Y10.922
X-48.895Y27.305
X-44.87573Y25.30963
X-42.5323Y25.2857
X-43.688Y26.0604
X-46.228Y26.0604
X-48.889Y28.702
X-62.992Y32.258
X-62.992Y33.528
X-62.23Y34.544
X-55.85909Y31.68294
X-68.3006Y31.3436
X-67.18025Y31.3436
X-65.278Y34.036
X-65.278Y35.15635
X-60.94178Y27.0988
X-59.56078Y27.113
X-55.33498Y26.797
X-56.79878Y27.497
X-57.57678Y28.451
X-63.21285Y38.9998
X-60.52045Y38.1728
X-62.19685Y38.1078
X-57.658Y36.322
X-58.5216Y27.8638
X-63.246Y25.908
X-67.564Y33.02
X-68.1736Y38.989
X-55.88Y32.766
X-67.75804Y44.07773
T04
X-22.098Y36.957
X-20.598Y36.957
X-19.098Y36.957
X-19.8614Y35.7124
X-21.3614Y35.7124
X-22.5806Y25.1954
X-22.5806Y26.6954
X-21.336Y27.432
X-21.336Y25.932
X-21.336Y24.432
X-47.1424Y44.4561
X-48.768Y43.4695
X-48.768Y45.4695
X-48.768Y39.4695
X-48.768Y41.4695
X-47.1424Y42.4561
X-47.1424Y40.4561
X-33.147Y14.859
X-32.004Y15.621
X-37.004Y15.621
X-38.147Y14.859
X-27.258Y15.621
X-28.401Y14.859
X-29.21Y26.67
X-25.908Y27.94
X-17.272Y33.274
M30