G04 Layer: TopSolderMaskLayer*
G04 EasyEDA Pro v2.2.45.4, 2025-12-19 14:04:37*
G04 Gerber Generator version 0.3*
G04 Scale: 100 percent, Rotated: No, Reflected: No*
G04 Dimensions in millimeters*
G04 Leading zeros omitted, absolute positions, 4 integers and 5 decimals*
G04 Generated by one-click*
%FSLAX45Y45*%
%MOMM*%
%AMRoundRect*1,1,$1,$2,$3*1,1,$1,$4,$5*1,1,$1,0-$2,0-$3*1,1,$1,0-$4,0-$5*20,1,$1,$2,$3,$4,$5,0*20,1,$1,$4,$5,0-$2,0-$3,0*20,1,$1,0-$2,0-$3,0-$4,0-$5,0*20,1,$1,0-$4,0-$5,$2,$3,0*4,1,4,$2,$3,$4,$5,0-$2,0-$3,0-$4,0-$5,$2,$3,0*%
%ADD10C,5.79708*%
%ADD11RoundRect,0.85865X-0.57147X-0.57147X-0.57147X0.57147*%
%ADD12RoundRect,0.09131X-0.40514X0.45514X0.40514X0.45514*%
%ADD13RoundRect,0.09233X-0.61463X-0.45964X-0.61463X0.45964*%
%ADD14RoundRect,0.85865X-0.57147X0.57147X0.57147X0.57147*%
%ADD15RoundRect,0.09548X-1.00227X1.25227X1.00227X1.25227*%
%ADD16RoundRect,0.08002X-0.16X0.63501X0.16X0.63501*%
%ADD17RoundRect,0.09233X-0.45964X0.61463X0.45964X0.61463*%
%ADD18RoundRect,0.09603X-0.82779X-2.25278X-0.82779X2.25278*%
%ADD19RoundRect,0.0950X-0.59783X0.02034X-0.02034X0.59783*%
%ADD20RoundRect,0.09138X-0.59783X0.02034X-0.02034X0.59783*%
%ADD21RoundRect,0.09138X-0.43711X-0.40835X-0.43711X0.40835*%
%ADD22RoundRect,0.09495X-0.67833X-0.70833X-0.67833X0.70833*%
%ADD23RoundRect,0.09495X-0.70833X0.67833X0.70833X0.67833*%
%ADD24RoundRect,0.08756X-0.27302X-0.54202X-0.27302X0.54202*%
%ADD25RoundRect,0.10048X-5.10056X-4.50056X-5.10056X4.50056*%
%ADD26RoundRect,0.09588X-0.80286X-1.75286X-0.80286X1.75286*%
%ADD27RoundRect,0.83858X-0.55651X-0.55651X-0.55651X0.55651*%
%ADD28RoundRect,1.45988X-1.02086X-1.02086X-1.02086X1.02086*%
G75*


G04 Circle Start*
G54D10*
G01X-2209800Y3124200D03*
G04 Circle End*

G04 Pad Start*
G54D11*
G01X-1861091Y789705D03*
G01X-1353091Y789705D03*
G01X-1607091Y789705D03*
G54D12*
G01X-2858618Y3149600D03*
G01X-2998622Y3149600D03*
G01X-2850998Y2956560D03*
G01X-2991002Y2956560D03*
G54D13*
G01X-3263900Y3783010D03*
G01X-3263900Y3455990D03*
G54D14*
G01X-1095384Y1746004D03*
G01X-1095384Y1414904D03*
G01X-1095384Y791704D03*
G01X-1349384Y1746004D03*
G54D15*
G01X-2277938Y845033D03*
G01X-2965947Y841527D03*
G54D16*
G01X-2446949Y1099033D03*
G01X-2496936Y1099033D03*
G01X-2546949Y1099033D03*
G01X-2596936Y1099033D03*
G01X-2646949Y1099033D03*
G01X-2696936Y1099033D03*
G01X-2746949Y1099033D03*
G01X-2796936Y1099033D03*
G54D15*
G01X-3403158Y845033D03*
G01X-4091167Y841527D03*
G54D16*
G01X-3572169Y1099033D03*
G01X-3622156Y1099033D03*
G01X-3672169Y1099033D03*
G01X-3722156Y1099033D03*
G01X-3772169Y1099033D03*
G01X-3822156Y1099033D03*
G01X-3872169Y1099033D03*
G01X-3922156Y1099033D03*
G54D14*
G01X-1349384Y1414904D03*
G54D17*
G01X-3946210Y2806700D03*
G01X-4273230Y2806700D03*
G54D18*
G01X-2590800Y3588601D03*
G01X-2590800Y4488599D03*
G01X-1447800Y3588601D03*
G01X-1447800Y4488599D03*
G54D20*
G01X-3367971Y2042229D03*
G01X-3261429Y2148771D03*
G01X-3367971Y2232729D03*
G01X-3261429Y2339271D03*
G01X-2872671Y2042229D03*
G01X-2766129Y2148771D03*
G01X-2872671Y2232729D03*
G01X-2766129Y2339271D03*
G01X-3863271Y2042229D03*
G01X-3756729Y2148771D03*
G01X-3863271Y2232729D03*
G01X-3756729Y2339271D03*
G01X-2367671Y2042229D03*
G01X-2261129Y2148771D03*
G01X-2377371Y2232729D03*
G01X-2270829Y2339271D03*
G54D21*
G01X-4800600Y3418216D03*
G01X-4800600Y3267544D03*
G01X-4800600Y3582264D03*
G01X-4800600Y3732936D03*
G54D22*
G01X-3530600Y2944800D03*
G01X-3530600Y2744800D03*
G54D23*
G01X-3028620Y3327400D03*
G01X-2828620Y3327400D03*
G54D22*
G01X-3302000Y2944800D03*
G01X-3302000Y2744800D03*
G54D24*
G01X-3414647Y1600985D03*
G01X-3509643Y1827985D03*
G01X-3319651Y1827985D03*
G01X-2914647Y1600985D03*
G01X-3009643Y1827985D03*
G01X-2819651Y1827985D03*
G01X-3914647Y1600985D03*
G01X-4009643Y1827985D03*
G01X-3819651Y1827985D03*
G01X-2414647Y1600985D03*
G01X-2509643Y1827985D03*
G01X-2319651Y1827985D03*
G01X-1914647Y1600985D03*
G01X-2009643Y1827985D03*
G01X-1819651Y1827985D03*
G54D25*
G01X-4114800Y4210050D03*
G54D26*
G01X-3860800Y3130550D03*
G01X-4368800Y3130550D03*
G54D27*
G01X-4589784Y878782D03*
G01X-4589784Y1132782D03*
G01X-4589784Y1386782D03*
G01X-4589784Y1640782D03*
G01X-4589784Y1894782D03*
G01X-4589784Y2148782D03*
G01X-4843784Y878782D03*
G01X-4843784Y1132782D03*
G01X-4843784Y1386782D03*
G01X-4843784Y1640782D03*
G01X-4843784Y1894782D03*
G01X-4843784Y2148782D03*
G54D28*
G01X-1514884Y2229617D03*
G01X-1514884Y2730505D03*
G36*
G01X-6985296Y2533355D02*
G01X-7243633Y2533355D01*
G01X-7243752Y2533356D01*
G02X-7296280Y2585885I1261J53789D01*
G01X-7296282Y2586004D01*
G01X-7296282Y2667979D01*
G01X-7296268Y2668352D01*
G02X-7241508Y2716845I52259J-3848D01*
G01X-6986627Y2716845D01*
G02X-6894217Y2624435I0J-92410D01*
G02X-6985296Y2533355I-91080J0D01*
G37*
G36*
G01X-6985295Y2791354D02*
G01X-7243631Y2791354D01*
G01X-7243750Y2791356D01*
G02X-7296279Y2843884I1261J53789D01*
G01X-7296280Y2844003D01*
G01X-7296280Y2925979D01*
G01X-7296266Y2926352D01*
G02X-7241507Y2974844I52259J-3848D01*
G01X-6986625Y2974844D01*
G02X-6894215Y2882434I0J-92410D01*
G02X-6985295Y2791354I-91080J0D01*
G37*
G36*
G01X-6985295Y3045354D02*
G01X-7243631Y3045354D01*
G01X-7243750Y3045355D01*
G02X-7296279Y3097884I1261J53789D01*
G01X-7296280Y3098003D01*
G01X-7296280Y3179978D01*
G01X-7296266Y3180351D01*
G02X-7241507Y3228844I52259J-3848D01*
G01X-6986625Y3228844D01*
G02X-6894215Y3136434I0J-92410D01*
G02X-6985295Y3045354I-91080J0D01*
G37*
G36*
G01X-6985295Y3299353D02*
G01X-7243631Y3299353D01*
G01X-7243750Y3299355D01*
G02X-7296279Y3351883I1261J53789D01*
G01X-7296280Y3352002D01*
G01X-7296280Y3433978D01*
G01X-7296266Y3434351D01*
G02X-7241507Y3482843I52259J-3848D01*
G01X-6986625Y3482843D01*
G02X-6894215Y3390433I0J-92410D01*
G02X-6985295Y3299353I-91080J0D01*
G37*
G36*
G01X-6985295Y3553353D02*
G01X-7243631Y3553353D01*
G01X-7243750Y3553354D01*
G02X-7296279Y3605883I1261J53789D01*
G01X-7296280Y3606002D01*
G01X-7296280Y3687977D01*
G01X-7296266Y3688350D01*
G02X-7241507Y3736843I52259J-3848D01*
G01X-6986625Y3736843D01*
G02X-6894215Y3644433I0J-92410D01*
G02X-6985295Y3553353I-91080J0D01*
G37*
G36*
G01X-6985295Y3807352D02*
G01X-7243631Y3807352D01*
G01X-7243750Y3807354D01*
G02X-7296279Y3859882I1261J53789D01*
G01X-7296280Y3860001D01*
G01X-7296280Y3941977D01*
G01X-7296266Y3942350D01*
G02X-7241507Y3990842I52259J-3848D01*
G01X-6986625Y3990842D01*
G02X-6894215Y3898432I0J-92410D01*
G02X-6985295Y3807352I-91080J0D01*
G37*
G36*
G01X-6985295Y4061352D02*
G01X-7243631Y4061352D01*
G01X-7243750Y4061353D01*
G02X-7296279Y4113882I1261J53789D01*
G01X-7296280Y4114001D01*
G01X-7296280Y4195976D01*
G01X-7296266Y4196349D01*
G02X-7241507Y4244842I52259J-3848D01*
G01X-6986625Y4244842D01*
G02X-6894215Y4152432I0J-92410D01*
G02X-6985295Y4061352I-91080J0D01*
G37*
G36*
G01X-6985295Y4315351D02*
G01X-7243631Y4315351D01*
G01X-7243750Y4315353D01*
G02X-7296279Y4367881I1261J53789D01*
G01X-7296280Y4368000D01*
G01X-7296280Y4449976D01*
G01X-7296266Y4450349D01*
G02X-7241507Y4498841I52259J-3848D01*
G01X-6986625Y4498841D01*
G02X-6894215Y4406431I0J-92410D01*
G02X-6985295Y4315351I-91080J0D01*
G37*
G36*
G01X-5384505Y2721649D02*
G01X-5126169Y2721649D01*
G01X-5126050Y2721648D01*
G02X-5073521Y2669119I-1261J-53789D01*
G01X-5073520Y2669000D01*
G01X-5073520Y2587025D01*
G01X-5073534Y2586652D01*
G02X-5128293Y2538159I-52259J3848D01*
G01X-5383175Y2538159D01*
G02X-5475585Y2630569I0J92410D01*
G02X-5384505Y2721649I91080J0D01*
G37*
G36*
G01X-5384505Y2975649D02*
G01X-5126169Y2975649D01*
G01X-5126050Y2975647D01*
G02X-5073521Y2923119I-1261J-53789D01*
G01X-5073520Y2922999D01*
G01X-5073520Y2841024D01*
G01X-5073534Y2840651D01*
G02X-5128293Y2792159I-52259J3848D01*
G01X-5383175Y2792159D01*
G02X-5475585Y2884569I0J92410D01*
G02X-5384505Y2975649I91080J0D01*
G37*
G36*
G01X-5384505Y3229648D02*
G01X-5126169Y3229648D01*
G01X-5126050Y3229647D01*
G02X-5073521Y3177118I-1261J-53789D01*
G01X-5073520Y3176999D01*
G01X-5073520Y3095024D01*
G01X-5073534Y3094651D01*
G02X-5128293Y3046158I-52259J3848D01*
G01X-5383175Y3046158D01*
G02X-5475585Y3138568I0J92410D01*
G02X-5384505Y3229648I91080J0D01*
G37*
G36*
G01X-5384505Y3483648D02*
G01X-5126169Y3483648D01*
G01X-5126050Y3483646D01*
G02X-5073521Y3431118I-1261J-53789D01*
G01X-5073520Y3430998D01*
G01X-5073520Y3349023D01*
G01X-5073534Y3348650D01*
G02X-5128293Y3300157I-52259J3848D01*
G01X-5383175Y3300157D01*
G02X-5475585Y3392568I0J92410D01*
G02X-5384505Y3483648I91080J0D01*
G37*
G36*
G01X-5384505Y3737647D02*
G01X-5126169Y3737647D01*
G01X-5126050Y3737646D01*
G02X-5073521Y3685117I-1261J-53789D01*
G01X-5073520Y3684998D01*
G01X-5073520Y3603023D01*
G01X-5073534Y3602650D01*
G02X-5128293Y3554157I-52259J3848D01*
G01X-5383175Y3554157D01*
G02X-5475585Y3646567I0J92410D01*
G02X-5384505Y3737647I91080J0D01*
G37*
G36*
G01X-5384505Y3991647D02*
G01X-5126169Y3991647D01*
G01X-5126050Y3991645D01*
G02X-5073521Y3939116I-1261J-53789D01*
G01X-5073520Y3938997D01*
G01X-5073520Y3857022D01*
G01X-5073534Y3856649D01*
G02X-5128293Y3808156I-52259J3848D01*
G01X-5383175Y3808156D01*
G02X-5475585Y3900567I0J92410D01*
G02X-5384505Y3991647I91080J0D01*
G37*
G36*
G01X-5384505Y4245646D02*
G01X-5126169Y4245646D01*
G01X-5126050Y4245645D01*
G02X-5073521Y4193116I-1261J-53789D01*
G01X-5073520Y4192997D01*
G01X-5073520Y4111022D01*
G01X-5073534Y4110649D01*
G02X-5128293Y4062156I-52259J3848D01*
G01X-5383175Y4062156D01*
G02X-5475585Y4154566I0J92410D01*
G02X-5384505Y4245646I91080J0D01*
G37*
G36*
G01X-5384504Y4503646D02*
G01X-5126167Y4503646D01*
G01X-5126048Y4503644D01*
G02X-5073520Y4451115I-1261J-53789D01*
G01X-5073518Y4450996D01*
G01X-5073518Y4369021D01*
G01X-5073532Y4368648D01*
G02X-5128292Y4320155I-52259J3848D01*
G01X-5383173Y4320155D01*
G02X-5475583Y4412566I0J92410D01*
G02X-5384504Y4503646I91080J0D01*
G37*
G04 Pad End*

M02*

