G04 Layer: TopSilkscreenLayer*
G04 EasyEDA Pro v2.2.45.4, 2025-12-19 14:04:37*
G04 Gerber Generator version 0.3*
G04 Scale: 100 percent, Rotated: No, Reflected: No*
G04 Dimensions in millimeters*
G04 Leading zeros omitted, absolute positions, 4 integers and 5 decimals*
G04 Generated by one-click*
%FSLAX45Y45*%
%MOMM*%
%ADD10C,0.16*%
%ADD11C,0.254*%
%ADD12C,0.2*%
%ADD13C,0.18*%
%ADD14C,0.2646*%
G75*


G04 Text Start*
G36*
G01X-5110366Y1833572D02*
G01X-5103578Y1833330D01*
G01X-5096548Y1833572D01*
G01X-5094123Y1834057D01*
G01X-5091457Y1834784D01*
G01X-5089032Y1835754D01*
G01X-5087093Y1836724D01*
G01X-5085396Y1837936D01*
G01X-5083699Y1839390D01*
G01X-5082487Y1840602D01*
G01X-5081275Y1842057D01*
G01X-5080305Y1843754D01*
G01X-5079336Y1845693D01*
G01X-5078366Y1848360D01*
G01X-5077639Y1851996D01*
G01X-5077396Y1855148D01*
G01X-5077154Y1856845D01*
G01X-5077214Y1857633D01*
G01X-5077881Y1858542D01*
G01X-5080548Y1859754D01*
G01X-5085639Y1859996D01*
G01X-5088487Y1859815D01*
G01X-5090245Y1859269D01*
G01X-5091214Y1858178D01*
G01X-5091699Y1856360D01*
G01X-5092426Y1853451D01*
G01X-5093396Y1851996D01*
G01X-5094851Y1851027D01*
G01X-5096548Y1850299D01*
G01X-5099457Y1849572D01*
G01X-5104790Y1849330D01*
G01X-5108911Y1849815D01*
G01X-5110851Y1850784D01*
G01X-5112790Y1852481D01*
G01X-5114245Y1854421D01*
G01X-5114972Y1857330D01*
G01X-5115214Y1897572D01*
G01X-5114729Y1936602D01*
G01X-5113760Y1938299D01*
G01X-5112548Y1939511D01*
G01X-5111093Y1940481D01*
G01X-5108669Y1941451D01*
G01X-5102608Y1941936D01*
G01X-5097517Y1941693D01*
G01X-5095578Y1940966D01*
G01X-5093881Y1939754D01*
G01X-5092911Y1938542D01*
G01X-5091942Y1936360D01*
G01X-5091214Y1933936D01*
G01X-5090608Y1933330D01*
G01X-5089275Y1932966D01*
G01X-5083214Y1932724D01*
G01X-5079760Y1932905D01*
G01X-5078123Y1933451D01*
G01X-5077154Y1935390D01*
G01X-5077154Y1938784D01*
G01X-5077639Y1941693D01*
G01X-5078366Y1944118D01*
G01X-5079336Y1946542D01*
G01X-5080305Y1948239D01*
G01X-5081275Y1949693D01*
G01X-5082245Y1950905D01*
G01X-5083942Y1952360D01*
G01X-5086123Y1953814D01*
G01X-5088305Y1955027D01*
G01X-5090487Y1955996D01*
G01X-5093154Y1956724D01*
G01X-5098002Y1957693D01*
G01X-5104548Y1957936D01*
G01X-5110123Y1957693D01*
G01X-5114487Y1956724D01*
G01X-5116426Y1955996D01*
G01X-5118851Y1955027D01*
G01X-5120548Y1954057D01*
G01X-5121760Y1953087D01*
G01X-5123699Y1951633D01*
G01X-5125396Y1949693D01*
G01X-5126608Y1947754D01*
G01X-5127820Y1945572D01*
G01X-5128790Y1942905D01*
G01X-5129517Y1940239D01*
G01X-5130002Y1937815D01*
G01X-5130245Y1935390D01*
G01X-5130487Y1933451D01*
G01X-5130729Y1895148D01*
G01X-5130487Y1856845D01*
G01X-5130002Y1851996D01*
G01X-5129517Y1850057D01*
G01X-5128790Y1847875D01*
G01X-5127820Y1845693D01*
G01X-5126851Y1843754D01*
G01X-5125881Y1842299D01*
G01X-5124426Y1840360D01*
G01X-5122729Y1838905D01*
G01X-5121517Y1838178D01*
G01X-5119820Y1836966D01*
G01X-5117396Y1835754D01*
G01X-5114729Y1834784D01*
G01X-5112063Y1834057D01*
G01X-5110366Y1833572D01*
G37*
G36*
G01X-5057517Y1833814D02*
G01X-5034002Y1833330D01*
G01X-5010002Y1833814D01*
G01X-5008305Y1834784D01*
G01X-5007093Y1836724D01*
G01X-5006608Y1841814D01*
G01X-5006851Y1844784D01*
G01X-5007578Y1846421D01*
G01X-5009760Y1847875D01*
G01X-5026487Y1848360D01*
G01X-5038426Y1848542D01*
G01X-5043214Y1849087D01*
G01X-5044426Y1849815D01*
G01X-5044426Y1901693D01*
G01X-5044669Y1954299D01*
G01X-5045396Y1955996D01*
G01X-5046123Y1956784D01*
G01X-5047335Y1957208D01*
G01X-5049517Y1957693D01*
G01X-5052911Y1957936D01*
G01X-5056305Y1957693D01*
G01X-5057760Y1956966D01*
G01X-5058729Y1955511D01*
G01X-5059214Y1953814D01*
G01X-5059457Y1894178D01*
G01X-5059275Y1849875D01*
G01X-5058729Y1834784D01*
G01X-5057517Y1833814D01*
G37*
G36*
G01X-5180911Y1833572D02*
G01X-5175093Y1833330D01*
G01X-5169275Y1833572D01*
G01X-5164426Y1834542D01*
G01X-5162487Y1835269D01*
G01X-5160063Y1836481D01*
G01X-5158123Y1837693D01*
G01X-5156184Y1839148D01*
G01X-5154487Y1841087D01*
G01X-5152547Y1843996D01*
G01X-5150608Y1848360D01*
G01X-5149881Y1851269D01*
G01X-5149396Y1853936D01*
G01X-5148911Y1858299D01*
G01X-5148911Y1861209D01*
G01X-5149396Y1865087D01*
G01X-5150366Y1870906D01*
G01X-5152547Y1878906D01*
G01X-5154002Y1882784D01*
G01X-5155941Y1887148D01*
G01X-5157881Y1890542D01*
G01X-5159335Y1892724D01*
G01X-5160790Y1894663D01*
G01X-5163214Y1897087D01*
G01X-5164669Y1899027D01*
G01X-5166123Y1900724D01*
G01X-5167093Y1901936D01*
G01X-5168305Y1903148D01*
G01X-5173153Y1908966D01*
G01X-5176063Y1912360D01*
G01X-5180911Y1918178D01*
G01X-5182123Y1919875D01*
G01X-5183093Y1921815D01*
G01X-5184063Y1924239D01*
G01X-5184547Y1927148D01*
G01X-5184790Y1929087D01*
G01X-5185032Y1932481D01*
G01X-5184790Y1935875D01*
G01X-5184063Y1938057D01*
G01X-5183093Y1939996D01*
G01X-5182123Y1941208D01*
G01X-5180669Y1942178D01*
G01X-5178972Y1942905D01*
G01X-5176790Y1943390D01*
G01X-5174608Y1943633D01*
G01X-5173153Y1943633D01*
G01X-5171457Y1943390D01*
G01X-5169517Y1942905D01*
G01X-5167820Y1941936D01*
G01X-5166608Y1940724D01*
G01X-5165638Y1939511D01*
G01X-5164669Y1937572D01*
G01X-5163941Y1934421D01*
G01X-5163699Y1931027D01*
G01X-5163214Y1928360D01*
G01X-5162244Y1926663D01*
G01X-5160063Y1925693D01*
G01X-5155214Y1925451D01*
G01X-5152547Y1925693D01*
G01X-5150851Y1926421D01*
G01X-5149881Y1927512D01*
G01X-5149396Y1928845D01*
G01X-5148911Y1931027D01*
G01X-5148669Y1932966D01*
G01X-5148911Y1934905D01*
G01X-5149396Y1939269D01*
G01X-5149881Y1941451D01*
G01X-5150608Y1943875D01*
G01X-5151578Y1946057D01*
G01X-5152547Y1947996D01*
G01X-5153517Y1949451D01*
G01X-5154487Y1950663D01*
G01X-5157881Y1953572D01*
G01X-5159335Y1954542D01*
G01X-5161275Y1955511D01*
G01X-5163699Y1956481D01*
G01X-5166850Y1957208D01*
G01X-5169275Y1957693D01*
G01X-5175335Y1957936D01*
G01X-5181396Y1957693D01*
G01X-5183578Y1957208D01*
G01X-5186002Y1956481D01*
G01X-5187941Y1955754D01*
G01X-5189638Y1955027D01*
G01X-5191578Y1953814D01*
G01X-5193275Y1952360D01*
G01X-5194487Y1951148D01*
G01X-5195941Y1949451D01*
G01X-5197154Y1947511D01*
G01X-5198123Y1945572D01*
G01X-5199093Y1943390D01*
G01X-5199820Y1940724D01*
G01X-5200305Y1938299D01*
G01X-5200790Y1935390D01*
G01X-5201032Y1930057D01*
G01X-5200790Y1926178D01*
G01X-5200305Y1922299D01*
G01X-5199820Y1920118D01*
G01X-5199093Y1917693D01*
G01X-5198366Y1915754D01*
G01X-5197638Y1914057D01*
G01X-5196669Y1912360D01*
G01X-5195214Y1910178D01*
G01X-5193275Y1907754D01*
G01X-5191578Y1906057D01*
G01X-5189638Y1903633D01*
G01X-5186729Y1900239D01*
G01X-5180184Y1893693D01*
G01X-5178244Y1891269D01*
G01X-5177032Y1890057D01*
G01X-5176063Y1888845D01*
G01X-5175335Y1887633D01*
G01X-5174366Y1886421D01*
G01X-5173396Y1884966D01*
G01X-5170972Y1881087D01*
G01X-5169032Y1877209D01*
G01X-5168063Y1875027D01*
G01X-5167093Y1872603D01*
G01X-5166123Y1869936D01*
G01X-5165153Y1866542D01*
G01X-5164426Y1863148D01*
G01X-5163941Y1860724D01*
G01X-5163699Y1856602D01*
G01X-5164184Y1852239D01*
G01X-5165153Y1850542D01*
G01X-5166850Y1849087D01*
G01X-5169275Y1847875D01*
G01X-5171457Y1847390D01*
G01X-5173153Y1847148D01*
G01X-5175093Y1846905D01*
G01X-5177032Y1847148D01*
G01X-5178972Y1847633D01*
G01X-5181153Y1848602D01*
G01X-5182608Y1849815D01*
G01X-5183578Y1851269D01*
G01X-5184547Y1853693D01*
G01X-5185032Y1856602D01*
G01X-5185335Y1857875D01*
G01X-5186244Y1858784D01*
G01X-5189154Y1859754D01*
G01X-5194002Y1859996D01*
G01X-5198123Y1859512D01*
G01X-5199820Y1858542D01*
G01X-5200426Y1857633D01*
G01X-5200790Y1855875D01*
G01X-5200790Y1851996D01*
G01X-5200063Y1848602D01*
G01X-5199093Y1845451D01*
G01X-5198123Y1843511D01*
G01X-5196911Y1841814D01*
G01X-5195457Y1840117D01*
G01X-5194244Y1838905D01*
G01X-5193032Y1837936D01*
G01X-5189638Y1836239D01*
G01X-5187457Y1835269D01*
G01X-5184790Y1834542D01*
G01X-5182366Y1834057D01*
G01X-5180911Y1833572D01*
G37*
G36*
G01X-5175093Y1579330D02*
G01X-5180911Y1579572D01*
G01X-5182366Y1580057D01*
G01X-5184790Y1580542D01*
G01X-5187457Y1581269D01*
G01X-5189638Y1582239D01*
G01X-5193032Y1583936D01*
G01X-5194244Y1584905D01*
G01X-5195457Y1586117D01*
G01X-5196911Y1587814D01*
G01X-5198123Y1589511D01*
G01X-5199093Y1591451D01*
G01X-5200063Y1594602D01*
G01X-5200790Y1597996D01*
G01X-5200790Y1601875D01*
G01X-5200426Y1603633D01*
G01X-5199820Y1604542D01*
G01X-5198123Y1605512D01*
G01X-5194002Y1605996D01*
G01X-5189154Y1605754D01*
G01X-5186244Y1604784D01*
G01X-5185335Y1603875D01*
G01X-5185032Y1602602D01*
G01X-5184547Y1599693D01*
G01X-5183578Y1597269D01*
G01X-5182608Y1595815D01*
G01X-5181153Y1594602D01*
G01X-5178972Y1593633D01*
G01X-5177032Y1593148D01*
G01X-5175093Y1592905D01*
G01X-5173153Y1593148D01*
G01X-5171457Y1593390D01*
G01X-5169275Y1593875D01*
G01X-5166850Y1595087D01*
G01X-5165153Y1596542D01*
G01X-5164184Y1598239D01*
G01X-5163699Y1602602D01*
G01X-5163941Y1606724D01*
G01X-5164426Y1609148D01*
G01X-5165153Y1612542D01*
G01X-5166123Y1615936D01*
G01X-5167093Y1618603D01*
G01X-5168063Y1621027D01*
G01X-5169032Y1623209D01*
G01X-5170972Y1627087D01*
G01X-5173396Y1630966D01*
G01X-5174366Y1632421D01*
G01X-5175335Y1633633D01*
G01X-5176063Y1634845D01*
G01X-5177032Y1636057D01*
G01X-5178244Y1637269D01*
G01X-5180184Y1639693D01*
G01X-5186729Y1646239D01*
G01X-5189638Y1649633D01*
G01X-5191578Y1652057D01*
G01X-5193275Y1653754D01*
G01X-5195214Y1656178D01*
G01X-5196669Y1658360D01*
G01X-5197638Y1660057D01*
G01X-5198366Y1661754D01*
G01X-5199093Y1663693D01*
G01X-5199820Y1666118D01*
G01X-5200305Y1668299D01*
G01X-5200790Y1672178D01*
G01X-5201032Y1676057D01*
G01X-5200790Y1681390D01*
G01X-5200305Y1684299D01*
G01X-5199820Y1686724D01*
G01X-5199093Y1689390D01*
G01X-5198123Y1691572D01*
G01X-5197154Y1693511D01*
G01X-5195941Y1695451D01*
G01X-5194487Y1697148D01*
G01X-5193275Y1698360D01*
G01X-5191578Y1699814D01*
G01X-5189638Y1701027D01*
G01X-5187941Y1701754D01*
G01X-5186002Y1702481D01*
G01X-5183578Y1703208D01*
G01X-5181396Y1703693D01*
G01X-5175335Y1703936D01*
G01X-5169275Y1703693D01*
G01X-5166850Y1703208D01*
G01X-5163699Y1702481D01*
G01X-5161275Y1701511D01*
G01X-5159335Y1700542D01*
G01X-5157881Y1699572D01*
G01X-5154487Y1696663D01*
G01X-5153517Y1695451D01*
G01X-5152547Y1693996D01*
G01X-5151578Y1692057D01*
G01X-5150608Y1689875D01*
G01X-5149881Y1687451D01*
G01X-5149396Y1685269D01*
G01X-5148911Y1680905D01*
G01X-5148669Y1678966D01*
G01X-5148911Y1677027D01*
G01X-5149396Y1674845D01*
G01X-5149881Y1673512D01*
G01X-5150851Y1672421D01*
G01X-5152547Y1671693D01*
G01X-5155214Y1671451D01*
G01X-5160063Y1671693D01*
G01X-5162244Y1672663D01*
G01X-5163214Y1674360D01*
G01X-5163699Y1677027D01*
G01X-5163941Y1680421D01*
G01X-5164669Y1683572D01*
G01X-5165638Y1685511D01*
G01X-5166608Y1686724D01*
G01X-5167820Y1687936D01*
G01X-5169517Y1688905D01*
G01X-5171457Y1689390D01*
G01X-5173153Y1689633D01*
G01X-5174608Y1689633D01*
G01X-5176790Y1689390D01*
G01X-5178972Y1688905D01*
G01X-5180669Y1688178D01*
G01X-5182123Y1687208D01*
G01X-5183093Y1685996D01*
G01X-5184063Y1684057D01*
G01X-5184790Y1681875D01*
G01X-5185032Y1678481D01*
G01X-5184790Y1675087D01*
G01X-5184547Y1673148D01*
G01X-5184063Y1670239D01*
G01X-5183093Y1667815D01*
G01X-5182123Y1665875D01*
G01X-5180911Y1664178D01*
G01X-5176063Y1658360D01*
G01X-5173153Y1654966D01*
G01X-5168305Y1649148D01*
G01X-5167093Y1647936D01*
G01X-5166123Y1646724D01*
G01X-5164669Y1645027D01*
G01X-5163214Y1643087D01*
G01X-5160790Y1640663D01*
G01X-5159335Y1638724D01*
G01X-5157881Y1636542D01*
G01X-5155941Y1633148D01*
G01X-5154002Y1628784D01*
G01X-5152547Y1624906D01*
G01X-5150366Y1616906D01*
G01X-5149396Y1611087D01*
G01X-5148911Y1607209D01*
G01X-5148911Y1604299D01*
G01X-5149396Y1599936D01*
G01X-5149881Y1597269D01*
G01X-5150608Y1594360D01*
G01X-5152547Y1589996D01*
G01X-5154487Y1587087D01*
G01X-5156184Y1585148D01*
G01X-5158123Y1583693D01*
G01X-5160063Y1582481D01*
G01X-5162487Y1581269D01*
G01X-5164426Y1580542D01*
G01X-5169275Y1579572D01*
G01X-5175093Y1579330D01*
G37*
G36*
G01X-5051457Y1579330D02*
G01X-5057032Y1579572D01*
G01X-5058487Y1581027D01*
G01X-5059457Y1583451D01*
G01X-5059214Y1586845D01*
G01X-5058729Y1589754D01*
G01X-5058245Y1593148D01*
G01X-5057760Y1596057D01*
G01X-5057275Y1599451D01*
G01X-5056790Y1602360D01*
G01X-5056305Y1605754D01*
G01X-5055335Y1611572D01*
G01X-5054851Y1614966D01*
G01X-5054366Y1617875D01*
G01X-5054158Y1619330D01*
G01X-5039578Y1619330D01*
G01X-5039093Y1614966D01*
G01X-5039093Y1614966D01*
G01X-5038366Y1613996D01*
G01X-5034002Y1613754D01*
G01X-5028911Y1614239D01*
G01X-5028184Y1615330D01*
G01X-5027941Y1617633D01*
G01X-5028184Y1622724D01*
G01X-5029638Y1634360D01*
G01X-5030123Y1637269D01*
G01X-5030850Y1638966D01*
G01X-5031820Y1640178D01*
G01X-5032487Y1640663D01*
G01X-5033517Y1640663D01*
G01X-5035699Y1639693D01*
G01X-5036911Y1637996D01*
G01X-5037396Y1636299D01*
G01X-5037881Y1632906D01*
G01X-5038851Y1627087D01*
G01X-5039335Y1623693D01*
G01X-5039578Y1619330D01*
G01X-5054158Y1619330D01*
G01X-5053881Y1621269D01*
G01X-5052911Y1627087D01*
G01X-5052426Y1630481D01*
G01X-5051942Y1633390D01*
G01X-5051457Y1636784D01*
G01X-5050972Y1639693D01*
G01X-5050487Y1643087D01*
G01X-5049517Y1648906D01*
G01X-5049032Y1652299D01*
G01X-5048548Y1655209D01*
G01X-5048063Y1658602D01*
G01X-5047578Y1661512D01*
G01X-5047093Y1664905D01*
G01X-5046123Y1670724D01*
G01X-5045638Y1674118D01*
G01X-5045154Y1677027D01*
G01X-5044669Y1680421D01*
G01X-5043699Y1686239D01*
G01X-5043214Y1689633D01*
G01X-5042729Y1692542D01*
G01X-5042245Y1695936D01*
G01X-5041517Y1699814D01*
G01X-5040305Y1702481D01*
G01X-5039093Y1703936D01*
G01X-5034244Y1704421D01*
G01X-5030669Y1704239D01*
G01X-5028669Y1703693D01*
G01X-5026972Y1702239D01*
G01X-5026002Y1700542D01*
G01X-5025275Y1697875D01*
G01X-5024790Y1694966D01*
G01X-5024305Y1691572D01*
G01X-5022366Y1679936D01*
G01X-5021881Y1676542D01*
G01X-5020426Y1667815D01*
G01X-5019941Y1664421D01*
G01X-5018002Y1652784D01*
G01X-5017517Y1649390D01*
G01X-5015578Y1637754D01*
G01X-5015093Y1634360D01*
G01X-5013154Y1622724D01*
G01X-5012669Y1619330D01*
G01X-5010729Y1607693D01*
G01X-5010244Y1604299D01*
G01X-5008790Y1595572D01*
G01X-5008305Y1592178D01*
G01X-5007820Y1589269D01*
G01X-5007578Y1586117D01*
G01X-5008063Y1582239D01*
G01X-5008729Y1580966D01*
G01X-5009760Y1580057D01*
G01X-5011760Y1579511D01*
G01X-5015335Y1579330D01*
G01X-5018851Y1579511D01*
G01X-5020669Y1580057D01*
G01X-5022366Y1581754D01*
G01X-5023335Y1584421D01*
G01X-5024305Y1592178D01*
G01X-5025032Y1595087D01*
G01X-5026002Y1596784D01*
G01X-5026972Y1597996D01*
G01X-5028426Y1598542D01*
G01X-5031820Y1598724D01*
G01X-5037881Y1598481D01*
G01X-5039396Y1597996D01*
G01X-5040548Y1597027D01*
G01X-5042002Y1594118D01*
G01X-5042729Y1590239D01*
G01X-5043214Y1586360D01*
G01X-5043699Y1582966D01*
G01X-5044184Y1581451D01*
G01X-5045154Y1580299D01*
G01X-5047335Y1579572D01*
G01X-5051457Y1579330D01*
G37*
G36*
G01X-5112305Y1579330D02*
G01X-5128063Y1579814D01*
G01X-5129032Y1580784D01*
G01X-5130002Y1582239D01*
G01X-5130487Y1583936D01*
G01X-5130729Y1640421D01*
G01X-5130723Y1641875D01*
G01X-5116184Y1641875D01*
G01X-5115942Y1599451D01*
G01X-5115457Y1597511D01*
G01X-5114487Y1596057D01*
G01X-5114487Y1596057D01*
G01X-5113517Y1595572D01*
G01X-5106972Y1595330D01*
G01X-5099457Y1595572D01*
G01X-5097032Y1596542D01*
G01X-5095093Y1598239D01*
G01X-5093881Y1599936D01*
G01X-5093396Y1601633D01*
G01X-5093154Y1603330D01*
G01X-5092911Y1640663D01*
G01X-5093154Y1677996D01*
G01X-5093396Y1679693D01*
G01X-5093881Y1682118D01*
G01X-5095093Y1684784D01*
G01X-5096548Y1686481D01*
G01X-5098245Y1687451D01*
G01X-5105760Y1687936D01*
G01X-5113517Y1687451D01*
G01X-5115214Y1685996D01*
G01X-5115942Y1684299D01*
G01X-5116184Y1641875D01*
G01X-5130723Y1641875D01*
G01X-5130487Y1697390D01*
G01X-5130002Y1700299D01*
G01X-5128790Y1702966D01*
G01X-5124790Y1703693D01*
G01X-5114729Y1703936D01*
G01X-5100911Y1703693D01*
G01X-5098972Y1703451D01*
G01X-5096548Y1703208D01*
G01X-5094123Y1702724D01*
G01X-5092184Y1702239D01*
G01X-5090245Y1701511D01*
G01X-5088063Y1700542D01*
G01X-5086608Y1699572D01*
G01X-5085396Y1698845D01*
G01X-5084426Y1697875D01*
G01X-5083457Y1696663D01*
G01X-5082245Y1695208D01*
G01X-5081275Y1693511D01*
G01X-5080305Y1691087D01*
G01X-5079578Y1688663D01*
G01X-5079093Y1683815D01*
G01X-5078851Y1642603D01*
G01X-5079093Y1601390D01*
G01X-5079578Y1596057D01*
G01X-5080063Y1593633D01*
G01X-5080790Y1591208D01*
G01X-5081760Y1589269D01*
G01X-5082729Y1587572D01*
G01X-5083699Y1586117D01*
G01X-5084911Y1584663D01*
G01X-5086851Y1583208D01*
G01X-5089275Y1581754D01*
G01X-5091457Y1580784D01*
G01X-5093881Y1580057D01*
G01X-5096063Y1579572D01*
G01X-5112305Y1579330D01*
G37*
G36*
G01X-5033517Y1325330D02*
G01X-5038608Y1325572D01*
G01X-5040790Y1326057D01*
G01X-5043941Y1326784D01*
G01X-5046366Y1327754D01*
G01X-5048305Y1328724D01*
G01X-5050245Y1329936D01*
G01X-5051942Y1331148D01*
G01X-5053639Y1332845D01*
G01X-5055335Y1335269D01*
G01X-5056548Y1337208D01*
G01X-5057275Y1338905D01*
G01X-5058002Y1340845D01*
G01X-5058729Y1343027D01*
G01X-5059214Y1344966D01*
G01X-5059699Y1348845D01*
G01X-5059942Y1388603D01*
G01X-5059932Y1390299D01*
G01X-5045396Y1390299D01*
G01X-5045154Y1354663D01*
G01X-5044669Y1350299D01*
G01X-5044184Y1348118D01*
G01X-5043457Y1345693D01*
G01X-5042245Y1343511D01*
G01X-5040305Y1341330D01*
G01X-5037881Y1340118D01*
G01X-5037881Y1340118D01*
G01X-5036426Y1339633D01*
G01X-5033275Y1339390D01*
G01X-5029396Y1339875D01*
G01X-5027457Y1340602D01*
G01X-5026002Y1341572D01*
G01X-5024790Y1342784D01*
G01X-5023578Y1344239D01*
G01X-5022608Y1345936D01*
G01X-5021881Y1348360D01*
G01X-5021396Y1350784D01*
G01X-5021154Y1388603D01*
G01X-5021638Y1427148D01*
G01X-5022851Y1429815D01*
G01X-5024063Y1431511D01*
G01X-5025760Y1432724D01*
G01X-5028184Y1433693D01*
G01X-5030123Y1434178D01*
G01X-5033032Y1434421D01*
G01X-5035941Y1434178D01*
G01X-5037638Y1433936D01*
G01X-5039335Y1433451D01*
G01X-5041275Y1432481D01*
G01X-5042972Y1431269D01*
G01X-5043941Y1429815D01*
G01X-5044669Y1427875D01*
G01X-5045154Y1425936D01*
G01X-5045396Y1390299D01*
G01X-5059932Y1390299D01*
G01X-5059699Y1429815D01*
G01X-5059214Y1432724D01*
G01X-5058729Y1434905D01*
G01X-5058002Y1437087D01*
G01X-5057032Y1439027D01*
G01X-5056063Y1440724D01*
G01X-5055093Y1442178D01*
G01X-5053396Y1444118D01*
G01X-5051457Y1445572D01*
G01X-5050002Y1446542D01*
G01X-5048063Y1447511D01*
G01X-5045154Y1448481D01*
G01X-5042729Y1449208D01*
G01X-5039335Y1449693D01*
G01X-5034244Y1449936D01*
G01X-5029154Y1449693D01*
G01X-5027214Y1449451D01*
G01X-5024305Y1448966D01*
G01X-5021881Y1448239D01*
G01X-5019699Y1447511D01*
G01X-5017032Y1446299D01*
G01X-5013638Y1443875D01*
G01X-5011699Y1441936D01*
G01X-5010487Y1440239D01*
G01X-5009517Y1438542D01*
G01X-5008548Y1435875D01*
G01X-5007820Y1433693D01*
G01X-5007335Y1429330D01*
G01X-5007093Y1390784D01*
G01X-5007335Y1352239D01*
G01X-5007578Y1350057D01*
G01X-5007820Y1347390D01*
G01X-5008305Y1344481D01*
G01X-5009032Y1341330D01*
G01X-5010002Y1338663D01*
G01X-5011214Y1336239D01*
G01X-5012426Y1334542D01*
G01X-5013396Y1333087D01*
G01X-5014608Y1331633D01*
G01X-5015820Y1330663D01*
G01X-5017517Y1329451D01*
G01X-5019457Y1328239D01*
G01X-5021154Y1327511D01*
G01X-5023093Y1326784D01*
G01X-5025760Y1326057D01*
G01X-5028184Y1325572D01*
G01X-5033517Y1325330D01*
G37*
G36*
G01X-5182608Y1325330D02*
G01X-5198851Y1325814D01*
G01X-5200063Y1327269D01*
G01X-5200790Y1328966D01*
G01X-5201032Y1387390D01*
G01X-5201024Y1388360D01*
G01X-5186487Y1388360D01*
G01X-5186244Y1344481D01*
G01X-5185275Y1342299D01*
G01X-5185275Y1342299D01*
G01X-5184305Y1341572D01*
G01X-5178002Y1341330D01*
G01X-5170244Y1341572D01*
G01X-5167820Y1342299D01*
G01X-5166366Y1343269D01*
G01X-5165153Y1344724D01*
G01X-5164184Y1346663D01*
G01X-5163699Y1386178D01*
G01X-5163941Y1426421D01*
G01X-5164669Y1429087D01*
G01X-5165396Y1430784D01*
G01X-5166366Y1431996D01*
G01X-5168305Y1433208D01*
G01X-5170911Y1433754D01*
G01X-5176305Y1433936D01*
G01X-5184063Y1433451D01*
G01X-5185760Y1431754D01*
G01X-5186305Y1420299D01*
G01X-5186487Y1388360D01*
G01X-5201024Y1388360D01*
G01X-5200548Y1446542D01*
G01X-5199093Y1448966D01*
G01X-5195154Y1449693D01*
G01X-5185275Y1449936D01*
G01X-5171699Y1449693D01*
G01X-5170002Y1449451D01*
G01X-5166850Y1449208D01*
G01X-5163214Y1448481D01*
G01X-5160547Y1447511D01*
G01X-5158123Y1446299D01*
G01X-5156426Y1445087D01*
G01X-5155214Y1444118D01*
G01X-5153517Y1442421D01*
G01X-5152063Y1439996D01*
G01X-5151093Y1438057D01*
G01X-5150366Y1435875D01*
G01X-5149881Y1433693D01*
G01X-5149638Y1388360D01*
G01X-5149881Y1343027D01*
G01X-5150123Y1341330D01*
G01X-5150608Y1339390D01*
G01X-5151335Y1337208D01*
G01X-5152063Y1335511D01*
G01X-5153032Y1333814D01*
G01X-5154244Y1332117D01*
G01X-5156669Y1329693D01*
G01X-5157881Y1328724D01*
G01X-5159578Y1327754D01*
G01X-5161760Y1326784D01*
G01X-5164184Y1326057D01*
G01X-5166366Y1325572D01*
G01X-5182608Y1325330D01*
G37*
G36*
G01X-5121941Y1325511D02*
G01X-5128548Y1326057D01*
G01X-5130002Y1327996D01*
G01X-5130548Y1330360D01*
G01X-5130729Y1335027D01*
G01X-5130487Y1343027D01*
G01X-5130002Y1347390D01*
G01X-5129517Y1350784D01*
G01X-5129032Y1353209D01*
G01X-5128548Y1356118D01*
G01X-5128063Y1358542D01*
G01X-5127578Y1360724D01*
G01X-5126851Y1363875D01*
G01X-5125881Y1367269D01*
G01X-5124911Y1370421D01*
G01X-5122972Y1375754D01*
G01X-5122002Y1378178D01*
G01X-5119093Y1384724D01*
G01X-5117154Y1388118D01*
G01X-5115942Y1390542D01*
G01X-5113517Y1394421D01*
G01X-5110608Y1398784D01*
G01X-5109396Y1400481D01*
G01X-5107457Y1402906D01*
G01X-5106729Y1404118D01*
G01X-5103820Y1407754D01*
G01X-5102123Y1409451D01*
G01X-5100669Y1411390D01*
G01X-5094608Y1417451D01*
G01X-5093396Y1419148D01*
G01X-5092669Y1421572D01*
G01X-5092669Y1424966D01*
G01X-5093396Y1428360D01*
G01X-5094608Y1430542D01*
G01X-5096305Y1432239D01*
G01X-5098487Y1433208D01*
G01X-5100426Y1433693D01*
G01X-5103335Y1433936D01*
G01X-5106245Y1433693D01*
G01X-5108426Y1433208D01*
G01X-5110608Y1432481D01*
G01X-5112063Y1431511D01*
G01X-5113275Y1430299D01*
G01X-5114245Y1428602D01*
G01X-5114729Y1426178D01*
G01X-5115457Y1423512D01*
G01X-5117396Y1421572D01*
G01X-5119335Y1421027D01*
G01X-5122729Y1420845D01*
G01X-5128063Y1421330D01*
G01X-5130002Y1422542D01*
G01X-5130548Y1423633D01*
G01X-5130729Y1425451D01*
G01X-5130487Y1428360D01*
G01X-5130002Y1431269D01*
G01X-5129275Y1434421D01*
G01X-5128305Y1436845D01*
G01X-5127093Y1439269D01*
G01X-5126123Y1440966D01*
G01X-5125154Y1442178D01*
G01X-5123941Y1443390D01*
G01X-5122245Y1444845D01*
G01X-5120063Y1446299D01*
G01X-5118123Y1447269D01*
G01X-5116184Y1447996D01*
G01X-5113760Y1448724D01*
G01X-5111578Y1449208D01*
G01X-5107699Y1449693D01*
G01X-5104305Y1449936D01*
G01X-5100911Y1449693D01*
G01X-5097032Y1449208D01*
G01X-5094608Y1448724D01*
G01X-5091699Y1447996D01*
G01X-5089275Y1447027D01*
G01X-5087336Y1446057D01*
G01X-5085396Y1444845D01*
G01X-5083699Y1443390D01*
G01X-5082487Y1442178D01*
G01X-5081033Y1440481D01*
G01X-5079820Y1438542D01*
G01X-5078851Y1436602D01*
G01X-5078123Y1434663D01*
G01X-5077154Y1430299D01*
G01X-5076911Y1425693D01*
G01X-5077154Y1420118D01*
G01X-5077881Y1416966D01*
G01X-5078851Y1414784D01*
G01X-5081033Y1410421D01*
G01X-5083457Y1407027D01*
G01X-5084911Y1405330D01*
G01X-5089032Y1401209D01*
G01X-5093396Y1395390D01*
G01X-5094608Y1393693D01*
G01X-5097517Y1389330D01*
G01X-5098729Y1387390D01*
G01X-5099699Y1385936D01*
G01X-5102608Y1380845D01*
G01X-5104548Y1376966D01*
G01X-5105517Y1374542D01*
G01X-5107457Y1370178D01*
G01X-5110366Y1362178D01*
G01X-5111093Y1359996D01*
G01X-5111578Y1358057D01*
G01X-5113032Y1352724D01*
G01X-5113517Y1350299D01*
G01X-5114002Y1348360D01*
G01X-5114245Y1345693D01*
G01X-5113517Y1342784D01*
G01X-5109275Y1342057D01*
G01X-5098002Y1341815D01*
G01X-5082002Y1341572D01*
G01X-5079578Y1341087D01*
G01X-5077639Y1340118D01*
G01X-5077093Y1338360D01*
G01X-5076911Y1334542D01*
G01X-5077154Y1328481D01*
G01X-5078366Y1326299D01*
G01X-5085154Y1325572D01*
G01X-5103578Y1325330D01*
G01X-5121941Y1325511D01*
G37*
G36*
G01X-5182608Y1071330D02*
G01X-5198851Y1071814D01*
G01X-5200063Y1073269D01*
G01X-5200790Y1074966D01*
G01X-5201032Y1133390D01*
G01X-5201024Y1134360D01*
G01X-5186487Y1134360D01*
G01X-5186244Y1090481D01*
G01X-5185275Y1088299D01*
G01X-5185275Y1088299D01*
G01X-5184305Y1087572D01*
G01X-5178002Y1087330D01*
G01X-5170244Y1087572D01*
G01X-5167820Y1088299D01*
G01X-5166366Y1089269D01*
G01X-5165153Y1090724D01*
G01X-5164184Y1092663D01*
G01X-5163699Y1132178D01*
G01X-5163941Y1172421D01*
G01X-5164669Y1175087D01*
G01X-5165396Y1176784D01*
G01X-5166366Y1177996D01*
G01X-5168305Y1179208D01*
G01X-5170911Y1179754D01*
G01X-5176305Y1179936D01*
G01X-5184063Y1179451D01*
G01X-5185760Y1177754D01*
G01X-5186305Y1166299D01*
G01X-5186487Y1134360D01*
G01X-5201024Y1134360D01*
G01X-5200548Y1192542D01*
G01X-5199093Y1194966D01*
G01X-5195154Y1195693D01*
G01X-5185275Y1195936D01*
G01X-5171699Y1195693D01*
G01X-5170002Y1195451D01*
G01X-5166850Y1195208D01*
G01X-5163214Y1194481D01*
G01X-5160547Y1193511D01*
G01X-5158123Y1192299D01*
G01X-5156426Y1191087D01*
G01X-5155214Y1190118D01*
G01X-5153517Y1188421D01*
G01X-5152063Y1185996D01*
G01X-5151093Y1184057D01*
G01X-5150366Y1181875D01*
G01X-5149881Y1179693D01*
G01X-5149638Y1134360D01*
G01X-5149881Y1089027D01*
G01X-5150123Y1087330D01*
G01X-5150608Y1085390D01*
G01X-5151335Y1083208D01*
G01X-5152063Y1081511D01*
G01X-5153032Y1079814D01*
G01X-5154244Y1078117D01*
G01X-5156669Y1075693D01*
G01X-5157881Y1074724D01*
G01X-5159578Y1073754D01*
G01X-5161760Y1072784D01*
G01X-5164184Y1072057D01*
G01X-5166366Y1071572D01*
G01X-5182608Y1071330D01*
G37*
G36*
G01X-5033941Y1071572D02*
G01X-5036184Y1072299D01*
G01X-5036911Y1085269D01*
G01X-5037154Y1122239D01*
G01X-5037396Y1172421D01*
G01X-5038123Y1174602D01*
G01X-5038972Y1175330D01*
G01X-5040548Y1175572D01*
G01X-5044669Y1175815D01*
G01X-5046426Y1176178D01*
G01X-5047335Y1176784D01*
G01X-5048305Y1178481D01*
G01X-5048790Y1181875D01*
G01X-5048305Y1185996D01*
G01X-5047093Y1188663D01*
G01X-5045396Y1190360D01*
G01X-5042972Y1191330D01*
G01X-5040790Y1191814D01*
G01X-5038851Y1192299D01*
G01X-5037154Y1193269D01*
G01X-5035457Y1194966D01*
G01X-5033275Y1195693D01*
G01X-5029154Y1195936D01*
G01X-5023335Y1195693D01*
G01X-5021881Y1194966D01*
G01X-5021335Y1179451D01*
G01X-5021154Y1133875D01*
G01X-5021396Y1088178D01*
G01X-5022123Y1072299D01*
G01X-5024366Y1071572D01*
G01X-5029154Y1071330D01*
G01X-5033941Y1071572D01*
G37*
G36*
G01X-5121941Y1071511D02*
G01X-5128548Y1072057D01*
G01X-5130002Y1073996D01*
G01X-5130548Y1076360D01*
G01X-5130729Y1081027D01*
G01X-5130487Y1089027D01*
G01X-5130002Y1093390D01*
G01X-5129517Y1096784D01*
G01X-5129032Y1099209D01*
G01X-5128548Y1102118D01*
G01X-5128063Y1104542D01*
G01X-5127578Y1106724D01*
G01X-5126851Y1109875D01*
G01X-5125881Y1113269D01*
G01X-5124911Y1116421D01*
G01X-5122972Y1121754D01*
G01X-5122002Y1124178D01*
G01X-5119093Y1130724D01*
G01X-5117154Y1134118D01*
G01X-5115942Y1136542D01*
G01X-5113517Y1140421D01*
G01X-5110608Y1144784D01*
G01X-5109396Y1146481D01*
G01X-5107457Y1148906D01*
G01X-5106729Y1150118D01*
G01X-5103820Y1153754D01*
G01X-5102123Y1155451D01*
G01X-5100669Y1157390D01*
G01X-5094608Y1163451D01*
G01X-5093396Y1165148D01*
G01X-5092669Y1167572D01*
G01X-5092669Y1170966D01*
G01X-5093396Y1174360D01*
G01X-5094608Y1176542D01*
G01X-5096305Y1178239D01*
G01X-5098487Y1179208D01*
G01X-5100426Y1179693D01*
G01X-5103335Y1179936D01*
G01X-5106245Y1179693D01*
G01X-5108426Y1179208D01*
G01X-5110608Y1178481D01*
G01X-5112063Y1177511D01*
G01X-5113275Y1176299D01*
G01X-5114245Y1174602D01*
G01X-5114729Y1172178D01*
G01X-5115457Y1169512D01*
G01X-5117396Y1167572D01*
G01X-5119335Y1167027D01*
G01X-5122729Y1166845D01*
G01X-5128063Y1167330D01*
G01X-5130002Y1168542D01*
G01X-5130548Y1169633D01*
G01X-5130729Y1171451D01*
G01X-5130487Y1174360D01*
G01X-5130002Y1177269D01*
G01X-5129275Y1180421D01*
G01X-5128305Y1182845D01*
G01X-5127093Y1185269D01*
G01X-5126123Y1186966D01*
G01X-5125154Y1188178D01*
G01X-5123941Y1189390D01*
G01X-5122245Y1190845D01*
G01X-5120063Y1192299D01*
G01X-5118123Y1193269D01*
G01X-5116184Y1193996D01*
G01X-5113760Y1194724D01*
G01X-5111578Y1195208D01*
G01X-5107699Y1195693D01*
G01X-5104305Y1195936D01*
G01X-5100911Y1195693D01*
G01X-5097032Y1195208D01*
G01X-5094608Y1194724D01*
G01X-5091699Y1193996D01*
G01X-5089275Y1193027D01*
G01X-5087336Y1192057D01*
G01X-5085396Y1190845D01*
G01X-5083699Y1189390D01*
G01X-5082487Y1188178D01*
G01X-5081033Y1186481D01*
G01X-5079820Y1184542D01*
G01X-5078851Y1182602D01*
G01X-5078123Y1180663D01*
G01X-5077154Y1176299D01*
G01X-5076911Y1171693D01*
G01X-5077154Y1166118D01*
G01X-5077881Y1162966D01*
G01X-5078851Y1160784D01*
G01X-5081033Y1156421D01*
G01X-5083457Y1153027D01*
G01X-5084911Y1151330D01*
G01X-5089032Y1147209D01*
G01X-5093396Y1141390D01*
G01X-5094608Y1139693D01*
G01X-5097517Y1135330D01*
G01X-5098729Y1133390D01*
G01X-5099699Y1131936D01*
G01X-5102608Y1126845D01*
G01X-5104548Y1122966D01*
G01X-5105517Y1120542D01*
G01X-5107457Y1116178D01*
G01X-5110366Y1108178D01*
G01X-5111093Y1105996D01*
G01X-5111578Y1104057D01*
G01X-5113032Y1098724D01*
G01X-5113517Y1096299D01*
G01X-5114002Y1094360D01*
G01X-5114245Y1091693D01*
G01X-5113517Y1088784D01*
G01X-5109275Y1088057D01*
G01X-5098002Y1087815D01*
G01X-5082002Y1087572D01*
G01X-5079578Y1087087D01*
G01X-5077639Y1086118D01*
G01X-5077093Y1084360D01*
G01X-5076911Y1080542D01*
G01X-5077154Y1074481D01*
G01X-5078366Y1072299D01*
G01X-5085154Y1071572D01*
G01X-5103578Y1071330D01*
G01X-5121941Y1071511D01*
G37*
G36*
G01X-4263517Y1071330D02*
G01X-4268608Y1071572D01*
G01X-4270790Y1072057D01*
G01X-4273941Y1072784D01*
G01X-4276366Y1073754D01*
G01X-4278305Y1074724D01*
G01X-4280245Y1075936D01*
G01X-4281942Y1077148D01*
G01X-4283639Y1078845D01*
G01X-4285335Y1081269D01*
G01X-4286548Y1083208D01*
G01X-4287275Y1084905D01*
G01X-4288002Y1086845D01*
G01X-4288729Y1089027D01*
G01X-4289214Y1090966D01*
G01X-4289699Y1094845D01*
G01X-4289942Y1134603D01*
G01X-4289932Y1136299D01*
G01X-4275396Y1136299D01*
G01X-4275154Y1100663D01*
G01X-4274669Y1096299D01*
G01X-4274184Y1094118D01*
G01X-4273457Y1091693D01*
G01X-4272245Y1089511D01*
G01X-4270305Y1087330D01*
G01X-4267881Y1086118D01*
G01X-4267881Y1086118D01*
G01X-4266426Y1085633D01*
G01X-4263275Y1085390D01*
G01X-4259396Y1085875D01*
G01X-4257457Y1086602D01*
G01X-4256002Y1087572D01*
G01X-4254790Y1088784D01*
G01X-4253578Y1090239D01*
G01X-4252608Y1091936D01*
G01X-4251881Y1094360D01*
G01X-4251396Y1096784D01*
G01X-4251154Y1134603D01*
G01X-4251638Y1173148D01*
G01X-4252851Y1175815D01*
G01X-4254063Y1177511D01*
G01X-4255760Y1178724D01*
G01X-4258184Y1179693D01*
G01X-4260123Y1180178D01*
G01X-4263032Y1180421D01*
G01X-4265941Y1180178D01*
G01X-4267638Y1179936D01*
G01X-4269335Y1179451D01*
G01X-4271275Y1178481D01*
G01X-4272972Y1177269D01*
G01X-4273941Y1175815D01*
G01X-4274669Y1173875D01*
G01X-4275154Y1171936D01*
G01X-4275396Y1136299D01*
G01X-4289932Y1136299D01*
G01X-4289699Y1175815D01*
G01X-4289214Y1178724D01*
G01X-4288729Y1180905D01*
G01X-4288002Y1183087D01*
G01X-4287032Y1185027D01*
G01X-4286063Y1186724D01*
G01X-4285093Y1188178D01*
G01X-4283396Y1190118D01*
G01X-4281457Y1191572D01*
G01X-4280002Y1192542D01*
G01X-4278063Y1193511D01*
G01X-4275154Y1194481D01*
G01X-4272729Y1195208D01*
G01X-4269335Y1195693D01*
G01X-4264244Y1195936D01*
G01X-4259154Y1195693D01*
G01X-4257214Y1195451D01*
G01X-4254305Y1194966D01*
G01X-4251881Y1194239D01*
G01X-4249699Y1193511D01*
G01X-4247032Y1192299D01*
G01X-4243638Y1189875D01*
G01X-4241699Y1187936D01*
G01X-4240487Y1186239D01*
G01X-4239517Y1184542D01*
G01X-4238548Y1181875D01*
G01X-4237820Y1179693D01*
G01X-4237335Y1175330D01*
G01X-4237093Y1136784D01*
G01X-4237335Y1098239D01*
G01X-4237578Y1096057D01*
G01X-4237820Y1093390D01*
G01X-4238305Y1090481D01*
G01X-4239032Y1087330D01*
G01X-4240002Y1084663D01*
G01X-4241214Y1082239D01*
G01X-4242426Y1080542D01*
G01X-4243396Y1079087D01*
G01X-4244608Y1077633D01*
G01X-4245820Y1076663D01*
G01X-4247517Y1075451D01*
G01X-4249457Y1074239D01*
G01X-4251154Y1073511D01*
G01X-4253093Y1072784D01*
G01X-4255760Y1072057D01*
G01X-4258184Y1071572D01*
G01X-4263517Y1071330D01*
G37*
G36*
G01X-4412608Y1071330D02*
G01X-4428851Y1071814D01*
G01X-4430063Y1073269D01*
G01X-4430790Y1074966D01*
G01X-4431032Y1133390D01*
G01X-4431024Y1134360D01*
G01X-4416487Y1134360D01*
G01X-4416244Y1090481D01*
G01X-4415275Y1088299D01*
G01X-4415275Y1088299D01*
G01X-4414305Y1087572D01*
G01X-4408002Y1087330D01*
G01X-4400244Y1087572D01*
G01X-4397820Y1088299D01*
G01X-4396366Y1089269D01*
G01X-4395154Y1090724D01*
G01X-4394184Y1092663D01*
G01X-4393699Y1132178D01*
G01X-4393941Y1172421D01*
G01X-4394669Y1175087D01*
G01X-4395396Y1176784D01*
G01X-4396366Y1177996D01*
G01X-4398305Y1179208D01*
G01X-4400911Y1179754D01*
G01X-4406305Y1179936D01*
G01X-4414063Y1179451D01*
G01X-4415760Y1177754D01*
G01X-4416305Y1166299D01*
G01X-4416487Y1134360D01*
G01X-4431024Y1134360D01*
G01X-4430548Y1192542D01*
G01X-4429093Y1194966D01*
G01X-4425154Y1195693D01*
G01X-4415275Y1195936D01*
G01X-4401699Y1195693D01*
G01X-4400002Y1195451D01*
G01X-4396850Y1195208D01*
G01X-4393214Y1194481D01*
G01X-4390547Y1193511D01*
G01X-4388123Y1192299D01*
G01X-4386426Y1191087D01*
G01X-4385214Y1190118D01*
G01X-4383517Y1188421D01*
G01X-4382063Y1185996D01*
G01X-4381093Y1184057D01*
G01X-4380366Y1181875D01*
G01X-4379881Y1179693D01*
G01X-4379638Y1134360D01*
G01X-4379881Y1089027D01*
G01X-4380123Y1087330D01*
G01X-4380608Y1085390D01*
G01X-4381335Y1083208D01*
G01X-4382063Y1081511D01*
G01X-4383032Y1079814D01*
G01X-4384244Y1078117D01*
G01X-4386669Y1075693D01*
G01X-4387881Y1074724D01*
G01X-4389578Y1073754D01*
G01X-4391760Y1072784D01*
G01X-4394184Y1072057D01*
G01X-4396366Y1071572D01*
G01X-4412608Y1071330D01*
G37*
G36*
G01X-4329457Y1071330D02*
G01X-4335760Y1071572D01*
G01X-4336729Y1072784D01*
G01X-4337275Y1085693D01*
G01X-4337457Y1122481D01*
G01X-4337699Y1172421D01*
G01X-4338426Y1174602D01*
G01X-4339396Y1175330D01*
G01X-4341335Y1175572D01*
G01X-4344972Y1175815D01*
G01X-4347154Y1176542D01*
G01X-4348366Y1177996D01*
G01X-4348851Y1179693D01*
G01X-4349093Y1181875D01*
G01X-4348851Y1184542D01*
G01X-4348123Y1186966D01*
G01X-4347154Y1188905D01*
G01X-4345699Y1190360D01*
G01X-4343275Y1191330D01*
G01X-4341093Y1191814D01*
G01X-4339154Y1192299D01*
G01X-4337457Y1193269D01*
G01X-4335760Y1194966D01*
G01X-4333457Y1195693D01*
G01X-4328972Y1195936D01*
G01X-4322669Y1195451D01*
G01X-4321457Y1193996D01*
G01X-4320972Y1161996D01*
G01X-4321214Y1130239D01*
G01X-4321457Y1101390D01*
G01X-4321699Y1080057D01*
G01X-4322426Y1072299D01*
G01X-4324669Y1071572D01*
G01X-4329457Y1071330D01*
G37*
G36*
G01X-4341093Y1325330D02*
G01X-4345699Y1325572D01*
G01X-4347396Y1326542D01*
G01X-4348366Y1327451D01*
G01X-4348851Y1328724D01*
G01X-4348851Y1330905D01*
G01X-4348366Y1335754D01*
G01X-4348123Y1337451D01*
G01X-4347881Y1340602D01*
G01X-4347396Y1344481D01*
G01X-4345457Y1358057D01*
G01X-4344487Y1362906D01*
G01X-4344002Y1365815D01*
G01X-4343032Y1370663D01*
G01X-4342548Y1372603D01*
G01X-4342063Y1375027D01*
G01X-4341335Y1378421D01*
G01X-4340123Y1383269D01*
G01X-4339639Y1385451D01*
G01X-4338911Y1388360D01*
G01X-4338184Y1390542D01*
G01X-4337699Y1392724D01*
G01X-4336972Y1395633D01*
G01X-4336245Y1397815D01*
G01X-4335760Y1399996D01*
G01X-4332123Y1412118D01*
G01X-4325578Y1431754D01*
G01X-4325578Y1434178D01*
G01X-4326548Y1435633D01*
G01X-4328002Y1436118D01*
G01X-4343517Y1436360D01*
G01X-4354911Y1436602D01*
G01X-4359517Y1437330D01*
G01X-4360729Y1438299D01*
G01X-4360729Y1442905D01*
G01X-4360487Y1446602D01*
G01X-4359760Y1448481D01*
G01X-4353275Y1449208D01*
G01X-4335760Y1449451D01*
G01X-4311517Y1449208D01*
G01X-4309336Y1448481D01*
G01X-4308608Y1446845D01*
G01X-4308366Y1442905D01*
G01X-4308608Y1437087D01*
G01X-4309093Y1434663D01*
G01X-4309820Y1432239D01*
G01X-4311760Y1428360D01*
G01X-4312729Y1426178D01*
G01X-4313699Y1423754D01*
G01X-4315154Y1419875D01*
G01X-4317336Y1413330D01*
G01X-4318063Y1410663D01*
G01X-4320002Y1404360D01*
G01X-4320729Y1402178D01*
G01X-4321942Y1397330D01*
G01X-4322911Y1393936D01*
G01X-4324123Y1389087D01*
G01X-4326063Y1380360D01*
G01X-4326548Y1377936D01*
G01X-4327032Y1375027D01*
G01X-4327517Y1372603D01*
G01X-4328002Y1369693D01*
G01X-4328487Y1367269D01*
G01X-4328972Y1363875D01*
G01X-4329942Y1358057D01*
G01X-4331396Y1347875D01*
G01X-4332366Y1340118D01*
G01X-4332851Y1335754D01*
G01X-4333093Y1334057D01*
G01X-4333578Y1331390D01*
G01X-4334548Y1328481D01*
G01X-4336002Y1326299D01*
G01X-4337760Y1325572D01*
G01X-4341093Y1325330D01*
G37*
G36*
G01X-4412608Y1325330D02*
G01X-4428851Y1325814D01*
G01X-4430063Y1327269D01*
G01X-4430790Y1328966D01*
G01X-4431032Y1387390D01*
G01X-4431024Y1388360D01*
G01X-4416487Y1388360D01*
G01X-4416244Y1344481D01*
G01X-4415275Y1342299D01*
G01X-4415275Y1342299D01*
G01X-4414305Y1341572D01*
G01X-4408002Y1341330D01*
G01X-4400244Y1341572D01*
G01X-4397820Y1342299D01*
G01X-4396366Y1343269D01*
G01X-4395154Y1344724D01*
G01X-4394184Y1346663D01*
G01X-4393699Y1386178D01*
G01X-4393941Y1426421D01*
G01X-4394669Y1429087D01*
G01X-4395396Y1430784D01*
G01X-4396366Y1431996D01*
G01X-4398305Y1433208D01*
G01X-4400911Y1433754D01*
G01X-4406305Y1433936D01*
G01X-4414063Y1433451D01*
G01X-4415760Y1431754D01*
G01X-4416305Y1420299D01*
G01X-4416487Y1388360D01*
G01X-4431024Y1388360D01*
G01X-4430548Y1446542D01*
G01X-4429093Y1448966D01*
G01X-4425154Y1449693D01*
G01X-4415275Y1449936D01*
G01X-4401699Y1449693D01*
G01X-4400002Y1449451D01*
G01X-4396850Y1449208D01*
G01X-4393214Y1448481D01*
G01X-4390547Y1447511D01*
G01X-4388123Y1446299D01*
G01X-4386426Y1445087D01*
G01X-4385214Y1444118D01*
G01X-4383517Y1442421D01*
G01X-4382063Y1439996D01*
G01X-4381093Y1438057D01*
G01X-4380366Y1435875D01*
G01X-4379881Y1433693D01*
G01X-4379638Y1388360D01*
G01X-4379881Y1343027D01*
G01X-4380123Y1341330D01*
G01X-4380608Y1339390D01*
G01X-4381335Y1337208D01*
G01X-4382063Y1335511D01*
G01X-4383032Y1333814D01*
G01X-4384244Y1332117D01*
G01X-4386669Y1329693D01*
G01X-4387881Y1328724D01*
G01X-4389578Y1327754D01*
G01X-4391760Y1326784D01*
G01X-4394184Y1326057D01*
G01X-4396366Y1325572D01*
G01X-4412608Y1325330D01*
G37*
G36*
G01X-4333578Y1579330D02*
G01X-4341093Y1579572D01*
G01X-4342548Y1580057D01*
G01X-4344729Y1580542D01*
G01X-4347154Y1581269D01*
G01X-4349335Y1582239D01*
G01X-4351032Y1583208D01*
G01X-4352729Y1584421D01*
G01X-4354426Y1585875D01*
G01X-4355881Y1587814D01*
G01X-4357335Y1590239D01*
G01X-4358305Y1592421D01*
G01X-4359032Y1594602D01*
G01X-4359517Y1596542D01*
G01X-4360002Y1600905D01*
G01X-4360099Y1616421D01*
G01X-4345214Y1616421D01*
G01X-4344972Y1602360D01*
G01X-4344245Y1599451D01*
G01X-4343275Y1597754D01*
G01X-4342305Y1596542D01*
G01X-4340851Y1595330D01*
G01X-4338911Y1594360D01*
G01X-4336245Y1593875D01*
G01X-4336245Y1593875D01*
G01X-4334305Y1593633D01*
G01X-4333336Y1593633D01*
G01X-4331639Y1593875D01*
G01X-4328972Y1594118D01*
G01X-4326548Y1594845D01*
G01X-4324608Y1595815D01*
G01X-4322911Y1597027D01*
G01X-4321942Y1598724D01*
G01X-4321457Y1613269D01*
G01X-4321942Y1628542D01*
G01X-4323154Y1631451D01*
G01X-4324366Y1633148D01*
G01X-4325336Y1634118D01*
G01X-4327275Y1635087D01*
G01X-4329457Y1635815D01*
G01X-4333093Y1636057D01*
G01X-4336729Y1635815D01*
G01X-4338911Y1635330D01*
G01X-4341335Y1634360D01*
G01X-4343032Y1633148D01*
G01X-4344245Y1631451D01*
G01X-4344972Y1629512D01*
G01X-4345214Y1616421D01*
G01X-4360099Y1616421D01*
G01X-4360245Y1639693D01*
G01X-4360002Y1679936D01*
G01X-4359517Y1684299D01*
G01X-4358790Y1688178D01*
G01X-4357820Y1691330D01*
G01X-4356608Y1693996D01*
G01X-4355154Y1696178D01*
G01X-4353942Y1697875D01*
G01X-4352245Y1699572D01*
G01X-4350063Y1701027D01*
G01X-4348366Y1701996D01*
G01X-4345942Y1702966D01*
G01X-4343517Y1703693D01*
G01X-4336487Y1703936D01*
G01X-4328002Y1703693D01*
G01X-4324366Y1702966D01*
G01X-4321699Y1701996D01*
G01X-4319760Y1701027D01*
G01X-4317820Y1699814D01*
G01X-4316123Y1698360D01*
G01X-4314911Y1697148D01*
G01X-4313457Y1695451D01*
G01X-4312002Y1693027D01*
G01X-4310790Y1690845D01*
G01X-4309336Y1686966D01*
G01X-4308608Y1684057D01*
G01X-4308608Y1680421D01*
G01X-4309093Y1678905D01*
G01X-4310063Y1677754D01*
G01X-4312245Y1676784D01*
G01X-4314911Y1676542D01*
G01X-4317336Y1676542D01*
G01X-4319033Y1676784D01*
G01X-4320972Y1677269D01*
G01X-4321760Y1678178D01*
G01X-4322184Y1679936D01*
G01X-4322911Y1683572D01*
G01X-4324366Y1686239D01*
G01X-4325820Y1687936D01*
G01X-4327517Y1688905D01*
G01X-4329457Y1689633D01*
G01X-4333336Y1690118D01*
G01X-4334548Y1690118D01*
G01X-4336487Y1689875D01*
G01X-4338911Y1689390D01*
G01X-4341093Y1688421D01*
G01X-4342790Y1687208D01*
G01X-4343760Y1685996D01*
G01X-4344729Y1684057D01*
G01X-4345457Y1681875D01*
G01X-4345699Y1668299D01*
G01X-4345214Y1654481D01*
G01X-4344245Y1652784D01*
G01X-4342548Y1652057D01*
G01X-4340608Y1652299D01*
G01X-4336972Y1652542D01*
G01X-4331881Y1652299D01*
G01X-4328002Y1651815D01*
G01X-4325578Y1651330D01*
G01X-4323639Y1650845D01*
G01X-4321457Y1650118D01*
G01X-4319275Y1649148D01*
G01X-4317093Y1647936D01*
G01X-4315396Y1646724D01*
G01X-4312972Y1644299D01*
G01X-4311517Y1642603D01*
G01X-4310305Y1640421D01*
G01X-4309336Y1637996D01*
G01X-4308608Y1635815D01*
G01X-4308123Y1632421D01*
G01X-4307881Y1616906D01*
G01X-4308123Y1601390D01*
G01X-4308366Y1599208D01*
G01X-4308851Y1596057D01*
G01X-4309578Y1593633D01*
G01X-4310305Y1591451D01*
G01X-4311275Y1589269D01*
G01X-4312245Y1587572D01*
G01X-4313457Y1586117D01*
G01X-4315881Y1583693D01*
G01X-4317578Y1582481D01*
G01X-4319517Y1581511D01*
G01X-4321457Y1580784D01*
G01X-4323881Y1580057D01*
G01X-4326063Y1579572D01*
G01X-4333578Y1579330D01*
G37*
G36*
G01X-4412608Y1579330D02*
G01X-4428851Y1579814D01*
G01X-4430063Y1581269D01*
G01X-4430790Y1582966D01*
G01X-4431032Y1641390D01*
G01X-4431024Y1642360D01*
G01X-4416487Y1642360D01*
G01X-4416244Y1598481D01*
G01X-4415275Y1596299D01*
G01X-4415275Y1596299D01*
G01X-4414305Y1595572D01*
G01X-4408002Y1595330D01*
G01X-4400244Y1595572D01*
G01X-4397820Y1596299D01*
G01X-4396366Y1597269D01*
G01X-4395154Y1598724D01*
G01X-4394184Y1600663D01*
G01X-4393699Y1640178D01*
G01X-4393941Y1680421D01*
G01X-4394669Y1683087D01*
G01X-4395396Y1684784D01*
G01X-4396366Y1685996D01*
G01X-4398305Y1687208D01*
G01X-4400911Y1687754D01*
G01X-4406305Y1687936D01*
G01X-4414063Y1687451D01*
G01X-4415760Y1685754D01*
G01X-4416305Y1674299D01*
G01X-4416487Y1642360D01*
G01X-4431024Y1642360D01*
G01X-4430548Y1700542D01*
G01X-4429093Y1702966D01*
G01X-4425154Y1703693D01*
G01X-4415275Y1703936D01*
G01X-4401699Y1703693D01*
G01X-4400002Y1703451D01*
G01X-4396850Y1703208D01*
G01X-4393214Y1702481D01*
G01X-4390547Y1701511D01*
G01X-4388123Y1700299D01*
G01X-4386426Y1699087D01*
G01X-4385214Y1698118D01*
G01X-4383517Y1696421D01*
G01X-4382063Y1693996D01*
G01X-4381093Y1692057D01*
G01X-4380366Y1689875D01*
G01X-4379881Y1687693D01*
G01X-4379638Y1642360D01*
G01X-4379881Y1597027D01*
G01X-4380123Y1595330D01*
G01X-4380608Y1593390D01*
G01X-4381335Y1591208D01*
G01X-4382063Y1589511D01*
G01X-4383032Y1587814D01*
G01X-4384244Y1586117D01*
G01X-4386669Y1583693D01*
G01X-4387881Y1582724D01*
G01X-4389578Y1581754D01*
G01X-4391760Y1580784D01*
G01X-4394184Y1580057D01*
G01X-4396366Y1579572D01*
G01X-4412608Y1579330D01*
G37*
G36*
G01X-4351942Y1833511D02*
G01X-4358548Y1834057D01*
G01X-4360002Y1835996D01*
G01X-4360548Y1838360D01*
G01X-4360729Y1843027D01*
G01X-4360487Y1851027D01*
G01X-4360002Y1855390D01*
G01X-4359517Y1858784D01*
G01X-4359032Y1861209D01*
G01X-4358548Y1864118D01*
G01X-4358063Y1866542D01*
G01X-4357578Y1868724D01*
G01X-4356851Y1871875D01*
G01X-4355881Y1875269D01*
G01X-4354911Y1878421D01*
G01X-4352972Y1883754D01*
G01X-4352002Y1886178D01*
G01X-4349093Y1892724D01*
G01X-4347154Y1896118D01*
G01X-4345942Y1898542D01*
G01X-4343517Y1902421D01*
G01X-4340608Y1906784D01*
G01X-4339396Y1908481D01*
G01X-4337457Y1910906D01*
G01X-4336729Y1912118D01*
G01X-4333820Y1915754D01*
G01X-4332123Y1917451D01*
G01X-4330669Y1919390D01*
G01X-4324608Y1925451D01*
G01X-4323396Y1927148D01*
G01X-4322669Y1929572D01*
G01X-4322669Y1932966D01*
G01X-4323396Y1936360D01*
G01X-4324608Y1938542D01*
G01X-4326305Y1940239D01*
G01X-4328487Y1941208D01*
G01X-4330426Y1941693D01*
G01X-4333336Y1941936D01*
G01X-4336245Y1941693D01*
G01X-4338426Y1941208D01*
G01X-4340608Y1940481D01*
G01X-4342063Y1939511D01*
G01X-4343275Y1938299D01*
G01X-4344245Y1936602D01*
G01X-4344729Y1934178D01*
G01X-4345457Y1931512D01*
G01X-4347396Y1929572D01*
G01X-4349335Y1929027D01*
G01X-4352729Y1928845D01*
G01X-4358063Y1929330D01*
G01X-4360002Y1930542D01*
G01X-4360548Y1931633D01*
G01X-4360729Y1933451D01*
G01X-4360487Y1936360D01*
G01X-4360002Y1939269D01*
G01X-4359275Y1942421D01*
G01X-4358305Y1944845D01*
G01X-4357093Y1947269D01*
G01X-4356123Y1948966D01*
G01X-4355154Y1950178D01*
G01X-4353942Y1951390D01*
G01X-4352245Y1952845D01*
G01X-4350063Y1954299D01*
G01X-4348123Y1955269D01*
G01X-4346184Y1955996D01*
G01X-4343760Y1956724D01*
G01X-4341578Y1957208D01*
G01X-4337699Y1957693D01*
G01X-4334305Y1957936D01*
G01X-4330911Y1957693D01*
G01X-4327032Y1957208D01*
G01X-4324608Y1956724D01*
G01X-4321699Y1955996D01*
G01X-4319275Y1955027D01*
G01X-4317336Y1954057D01*
G01X-4315396Y1952845D01*
G01X-4313699Y1951390D01*
G01X-4312487Y1950178D01*
G01X-4311033Y1948481D01*
G01X-4309820Y1946542D01*
G01X-4308851Y1944602D01*
G01X-4308123Y1942663D01*
G01X-4307154Y1938299D01*
G01X-4306911Y1933693D01*
G01X-4307154Y1928118D01*
G01X-4307881Y1924966D01*
G01X-4308851Y1922784D01*
G01X-4311033Y1918421D01*
G01X-4313457Y1915027D01*
G01X-4314911Y1913330D01*
G01X-4319033Y1909209D01*
G01X-4323396Y1903390D01*
G01X-4324608Y1901693D01*
G01X-4327517Y1897330D01*
G01X-4328729Y1895390D01*
G01X-4329699Y1893936D01*
G01X-4332608Y1888845D01*
G01X-4334548Y1884966D01*
G01X-4335517Y1882542D01*
G01X-4337457Y1878178D01*
G01X-4340366Y1870178D01*
G01X-4341093Y1867996D01*
G01X-4341578Y1866057D01*
G01X-4343032Y1860724D01*
G01X-4343517Y1858299D01*
G01X-4344002Y1856360D01*
G01X-4344245Y1853693D01*
G01X-4343517Y1850784D01*
G01X-4339275Y1850057D01*
G01X-4328002Y1849815D01*
G01X-4312002Y1849572D01*
G01X-4309578Y1849087D01*
G01X-4307639Y1848118D01*
G01X-4307093Y1846360D01*
G01X-4306911Y1842542D01*
G01X-4307154Y1836481D01*
G01X-4308366Y1834299D01*
G01X-4315154Y1833572D01*
G01X-4333578Y1833330D01*
G01X-4351942Y1833511D01*
G37*
G36*
G01X-4426123Y1833511D02*
G01X-4428123Y1834057D01*
G01X-4429578Y1835754D01*
G01X-4430305Y1837451D01*
G01X-4430305Y1839148D01*
G01X-4429820Y1841330D01*
G01X-4429335Y1844724D01*
G01X-4428851Y1847633D01*
G01X-4428366Y1851027D01*
G01X-4427396Y1856845D01*
G01X-4426911Y1860239D01*
G01X-4426426Y1863148D01*
G01X-4425941Y1866542D01*
G01X-4424972Y1872360D01*
G01X-4424799Y1873572D01*
G01X-4410669Y1873572D01*
G01X-4410184Y1870178D01*
G01X-4409457Y1868481D01*
G01X-4407820Y1867936D01*
G01X-4407820Y1867936D01*
G01X-4404366Y1867754D01*
G01X-4400911Y1867936D01*
G01X-4399275Y1868481D01*
G01X-4398729Y1869815D01*
G01X-4398547Y1872360D01*
G01X-4398790Y1876239D01*
G01X-4400244Y1887875D01*
G01X-4400487Y1889572D01*
G01X-4400972Y1891754D01*
G01X-4402426Y1893936D01*
G01X-4403396Y1894603D01*
G01X-4404366Y1894663D01*
G01X-4406305Y1893693D01*
G01X-4407760Y1891269D01*
G01X-4408487Y1887875D01*
G01X-4408972Y1884481D01*
G01X-4409457Y1881572D01*
G01X-4409941Y1878178D01*
G01X-4410426Y1875269D01*
G01X-4410669Y1873572D01*
G01X-4424799Y1873572D01*
G01X-4424487Y1875754D01*
G01X-4424002Y1878663D01*
G01X-4423517Y1882057D01*
G01X-4423032Y1884966D01*
G01X-4422547Y1888360D01*
G01X-4421578Y1894178D01*
G01X-4421093Y1897572D01*
G01X-4420608Y1900481D01*
G01X-4420123Y1903875D01*
G01X-4419638Y1906784D01*
G01X-4419154Y1910178D01*
G01X-4418184Y1915996D01*
G01X-4417699Y1919390D01*
G01X-4417214Y1922299D01*
G01X-4416729Y1925693D01*
G01X-4415760Y1931512D01*
G01X-4415275Y1934905D01*
G01X-4414790Y1937815D01*
G01X-4414305Y1941208D01*
G01X-4413820Y1944118D01*
G01X-4413335Y1947511D01*
G01X-4412850Y1950421D01*
G01X-4412366Y1952845D01*
G01X-4411638Y1955269D01*
G01X-4410184Y1957451D01*
G01X-4408547Y1958178D01*
G01X-4405578Y1958421D01*
G01X-4400729Y1958178D01*
G01X-4399032Y1957451D01*
G01X-4397820Y1956481D01*
G01X-4396608Y1954542D01*
G01X-4395881Y1951390D01*
G01X-4395396Y1947996D01*
G01X-4393941Y1939269D01*
G01X-4393457Y1935875D01*
G01X-4391517Y1924239D01*
G01X-4391032Y1920845D01*
G01X-4389093Y1909209D01*
G01X-4388608Y1905815D01*
G01X-4386669Y1894178D01*
G01X-4386184Y1890784D01*
G01X-4384244Y1879148D01*
G01X-4383760Y1875754D01*
G01X-4382305Y1867027D01*
G01X-4381820Y1863633D01*
G01X-4379881Y1851996D01*
G01X-4379396Y1848602D01*
G01X-4378426Y1842784D01*
G01X-4378184Y1840360D01*
G01X-4378426Y1837451D01*
G01X-4379154Y1835511D01*
G01X-4380608Y1834057D01*
G01X-4382366Y1833511D01*
G01X-4385699Y1833330D01*
G01X-4391032Y1833814D01*
G01X-4392972Y1835511D01*
G01X-4393941Y1837451D01*
G01X-4394426Y1840845D01*
G01X-4394669Y1842784D01*
G01X-4394911Y1845693D01*
G01X-4395638Y1848845D01*
G01X-4396608Y1850784D01*
G01X-4397578Y1851996D01*
G01X-4399275Y1852542D01*
G01X-4403396Y1852724D01*
G01X-4409699Y1852239D01*
G01X-4411153Y1851027D01*
G01X-4412123Y1849572D01*
G01X-4412850Y1847390D01*
G01X-4413335Y1845208D01*
G01X-4413578Y1843269D01*
G01X-4413820Y1840845D01*
G01X-4414305Y1837451D01*
G01X-4414790Y1835572D01*
G01X-4415760Y1834299D01*
G01X-4417941Y1833572D01*
G01X-4422063Y1833330D01*
G01X-4426123Y1833511D01*
G37*
G36*
G01X-4240487Y2087572D02*
G01X-4238790Y2087572D01*
G01X-4237093Y2088057D01*
G01X-4234911Y2089269D01*
G01X-4233214Y2091208D01*
G01X-4232245Y2093875D01*
G01X-4231760Y2096784D01*
G01X-4231517Y2098724D01*
G01X-4229578Y2109390D01*
G01X-4228608Y2115209D01*
G01X-4228123Y2117633D01*
G01X-4227638Y2120542D01*
G01X-4227154Y2122966D01*
G01X-4226669Y2125875D01*
G01X-4226184Y2128300D01*
G01X-4224245Y2138966D01*
G01X-4223275Y2144784D01*
G01X-4222790Y2147209D01*
G01X-4222305Y2150118D01*
G01X-4221820Y2152542D01*
G01X-4221335Y2155451D01*
G01X-4220851Y2157875D01*
G01X-4218911Y2168542D01*
G01X-4217942Y2174360D01*
G01X-4217457Y2176784D01*
G01X-4216972Y2179693D01*
G01X-4216487Y2182118D01*
G01X-4216002Y2185027D01*
G01X-4215517Y2187451D01*
G01X-4213578Y2198118D01*
G01X-4212608Y2203936D01*
G01X-4212366Y2206360D01*
G01X-4212851Y2209027D01*
G01X-4213820Y2210724D01*
G01X-4215517Y2211693D01*
G01X-4220608Y2211936D01*
G01X-4223820Y2211693D01*
G01X-4225699Y2210966D01*
G01X-4227154Y2208784D01*
G01X-4227638Y2206845D01*
G01X-4228123Y2204421D01*
G01X-4232972Y2175330D01*
G01X-4233457Y2171936D01*
G01X-4236851Y2151572D01*
G01X-4237275Y2150542D01*
G01X-4238063Y2149875D01*
G01X-4239760Y2149633D01*
G01X-4240972Y2150845D01*
G01X-4241941Y2153512D01*
G01X-4242426Y2156178D01*
G01X-4242669Y2157875D01*
G01X-4243154Y2160299D01*
G01X-4244123Y2166118D01*
G01X-4244608Y2168542D01*
G01X-4245578Y2173875D01*
G01X-4246548Y2179693D01*
G01X-4247032Y2182118D01*
G01X-4248002Y2187936D01*
G01X-4248487Y2190360D01*
G01X-4249457Y2195693D01*
G01X-4250426Y2201511D01*
G01X-4250911Y2203936D01*
G01X-4251396Y2207087D01*
G01X-4252366Y2209511D01*
G01X-4253820Y2210966D01*
G01X-4255760Y2211693D01*
G01X-4260366Y2211936D01*
G01X-4263032Y2211754D01*
G01X-4264244Y2211208D01*
G01X-4265214Y2209754D01*
G01X-4266184Y2207330D01*
G01X-4266669Y2204663D01*
G01X-4266426Y2202966D01*
G01X-4265457Y2197633D01*
G01X-4263517Y2185996D01*
G01X-4263032Y2183572D01*
G01X-4261093Y2171936D01*
G01X-4260608Y2169512D01*
G01X-4258669Y2157875D01*
G01X-4258184Y2155451D01*
G01X-4256244Y2143815D01*
G01X-4255760Y2141390D01*
G01X-4253820Y2129754D01*
G01X-4253335Y2127330D01*
G01X-4251396Y2115693D01*
G01X-4250911Y2113269D01*
G01X-4248972Y2101633D01*
G01X-4248487Y2099208D01*
G01X-4248002Y2096299D01*
G01X-4247517Y2093633D01*
G01X-4246305Y2090966D01*
G01X-4244366Y2089269D01*
G01X-4242426Y2088299D01*
G01X-4240487Y2087572D01*
G37*
G36*
G01X-4313942Y2087572D02*
G01X-4309820Y2087330D01*
G01X-4305699Y2087572D01*
G01X-4302305Y2088057D01*
G01X-4299881Y2088784D01*
G01X-4297457Y2089754D01*
G01X-4295517Y2090724D01*
G01X-4293820Y2091693D01*
G01X-4292608Y2092663D01*
G01X-4291396Y2093875D01*
G01X-4289457Y2096299D01*
G01X-4288487Y2097754D01*
G01X-4287517Y2099693D01*
G01X-4286548Y2102360D01*
G01X-4285820Y2105511D01*
G01X-4285335Y2108905D01*
G01X-4285093Y2129754D01*
G01X-4285335Y2149633D01*
G01X-4285820Y2151815D01*
G01X-4286548Y2154239D01*
G01X-4287517Y2156178D01*
G01X-4288729Y2158118D01*
G01X-4289942Y2159815D01*
G01X-4292366Y2162239D01*
G01X-4294063Y2163693D01*
G01X-4295760Y2164906D01*
G01X-4297214Y2165875D01*
G01X-4298911Y2166845D01*
G01X-4300608Y2167572D01*
G01X-4302548Y2168299D01*
G01X-4304730Y2169027D01*
G01X-4308608Y2169996D01*
G01X-4311033Y2170481D01*
G01X-4313699Y2170724D01*
G01X-4315881Y2170481D01*
G01X-4318790Y2169996D01*
G01X-4321942Y2170239D01*
G01X-4322729Y2171027D01*
G01X-4323154Y2172421D01*
G01X-4323396Y2185027D01*
G01X-4323214Y2193330D01*
G01X-4322669Y2196421D01*
G01X-4320972Y2197390D01*
G01X-4304487Y2197875D01*
G01X-4288245Y2198118D01*
G01X-4286790Y2198845D01*
G01X-4285578Y2200299D01*
G01X-4285093Y2205148D01*
G01X-4285335Y2208299D01*
G01X-4286063Y2209996D01*
G01X-4288245Y2211208D01*
G01X-4312002Y2211451D01*
G01X-4335275Y2210966D01*
G01X-4336729Y2209511D01*
G01X-4337457Y2207572D01*
G01X-4337699Y2205875D01*
G01X-4337942Y2176784D01*
G01X-4337699Y2147693D01*
G01X-4337214Y2145996D01*
G01X-4336729Y2145148D01*
G01X-4335760Y2144542D01*
G01X-4332366Y2144057D01*
G01X-4329457Y2144299D01*
G01X-4326063Y2144784D01*
G01X-4324608Y2145512D01*
G01X-4323639Y2147209D01*
G01X-4323154Y2149633D01*
G01X-4322426Y2151330D01*
G01X-4321214Y2153027D01*
G01X-4319760Y2154481D01*
G01X-4318548Y2155209D01*
G01X-4316851Y2156178D01*
G01X-4314426Y2156906D01*
G01X-4311517Y2157390D01*
G01X-4309093Y2157390D01*
G01X-4306911Y2156906D01*
G01X-4304245Y2155936D01*
G01X-4302548Y2154724D01*
G01X-4301093Y2153027D01*
G01X-4299639Y2151087D01*
G01X-4298669Y2148663D01*
G01X-4298184Y2127815D01*
G01X-4298669Y2107936D01*
G01X-4299639Y2106481D01*
G01X-4300851Y2105269D01*
G01X-4302305Y2104299D01*
G01X-4304730Y2103330D01*
G01X-4308608Y2102602D01*
G01X-4311760Y2102360D01*
G01X-4313457Y2102602D01*
G01X-4315396Y2103087D01*
G01X-4317336Y2103815D01*
G01X-4319275Y2105027D01*
G01X-4321214Y2106966D01*
G01X-4322426Y2108905D01*
G01X-4323396Y2110602D01*
G01X-4325093Y2112299D01*
G01X-4328002Y2113512D01*
G01X-4332366Y2113996D01*
G01X-4334608Y2113754D01*
G01X-4336002Y2113027D01*
G01X-4337214Y2110845D01*
G01X-4337457Y2108178D01*
G01X-4337214Y2105996D01*
G01X-4336729Y2104299D01*
G01X-4336002Y2102360D01*
G01X-4335032Y2100178D01*
G01X-4334063Y2098481D01*
G01X-4333093Y2097027D01*
G01X-4331881Y2095572D01*
G01X-4330669Y2094360D01*
G01X-4329214Y2093148D01*
G01X-4327275Y2091936D01*
G01X-4325093Y2090724D01*
G01X-4322669Y2089754D01*
G01X-4319760Y2088784D01*
G01X-4316366Y2088057D01*
G01X-4313942Y2087572D01*
G37*
G54D10*
G01X-4397241Y2172656D02*
G01X-4397241Y2125412D01*
G01X-4421117Y2149034D02*
G01X-4373619Y2149034D01*
G36*
G01X-5008782Y2081964D02*
G01X-5006358Y2081721D01*
G01X-5004661Y2082206D01*
G01X-5002479Y2083418D01*
G01X-5000782Y2085600D01*
G01X-5000055Y2087539D01*
G01X-4999085Y2093358D01*
G01X-4996176Y2109358D01*
G01X-4995206Y2115176D01*
G01X-4994721Y2117600D01*
G01X-4994236Y2120509D01*
G01X-4993752Y2122933D01*
G01X-4993267Y2125842D01*
G01X-4992782Y2128267D01*
G01X-4990842Y2138933D01*
G01X-4989873Y2144752D01*
G01X-4989388Y2147176D01*
G01X-4988903Y2150085D01*
G01X-4988418Y2152509D01*
G01X-4987933Y2155418D01*
G01X-4987448Y2157843D01*
G01X-4985509Y2168509D01*
G01X-4984539Y2174327D01*
G01X-4984055Y2176752D01*
G01X-4983570Y2179661D01*
G01X-4983085Y2182085D01*
G01X-4982600Y2184994D01*
G01X-4982115Y2187418D01*
G01X-4980176Y2198085D01*
G01X-4979933Y2200267D01*
G01X-4980418Y2202691D01*
G01X-4981388Y2204630D01*
G01X-4982176Y2205418D01*
G01X-4983570Y2205842D01*
G01X-4988903Y2206085D01*
G01X-4991752Y2205903D01*
G01X-4993024Y2205358D01*
G01X-4993994Y2204145D01*
G01X-4994964Y2202448D01*
G01X-4995691Y2199055D01*
G01X-5001024Y2167055D01*
G01X-5001509Y2163661D01*
G01X-5003933Y2149115D01*
G01X-5004661Y2145479D01*
G01X-5005327Y2144327D01*
G01X-5006358Y2143782D01*
G01X-5007388Y2143782D01*
G01X-5008054Y2144267D01*
G01X-5009024Y2145721D01*
G01X-5009751Y2148630D01*
G01X-5010236Y2151540D01*
G01X-5010721Y2153964D01*
G01X-5011691Y2159782D01*
G01X-5012176Y2162206D01*
G01X-5013145Y2167539D01*
G01X-5014115Y2173358D01*
G01X-5014600Y2175782D01*
G01X-5015570Y2181600D01*
G01X-5016054Y2184024D01*
G01X-5017024Y2189358D01*
G01X-5017994Y2195176D01*
G01X-5018479Y2197600D01*
G01X-5018964Y2200509D01*
G01X-5019691Y2202933D01*
G01X-5020903Y2204630D01*
G01X-5022357Y2205600D01*
G01X-5027206Y2206085D01*
G01X-5030418Y2205903D01*
G01X-5031812Y2205358D01*
G01X-5032782Y2203903D01*
G01X-5033751Y2201479D01*
G01X-5034236Y2198570D01*
G01X-5033994Y2196630D01*
G01X-5033024Y2191297D01*
G01X-5031085Y2179661D01*
G01X-5030600Y2177236D01*
G01X-5028661Y2165600D01*
G01X-5028176Y2163176D01*
G01X-5026236Y2151540D01*
G01X-5025751Y2149115D01*
G01X-5023812Y2137479D01*
G01X-5023327Y2135055D01*
G01X-5021388Y2123418D01*
G01X-5020903Y2120994D01*
G01X-5018964Y2109358D01*
G01X-5018479Y2106933D01*
G01X-5016539Y2095297D01*
G01X-5016054Y2092873D01*
G01X-5015570Y2089964D01*
G01X-5015085Y2087539D01*
G01X-5013873Y2085115D01*
G01X-5011691Y2083176D01*
G01X-5008782Y2081964D01*
G37*
G36*
G01X-5197873Y2081721D02*
G01X-5192297Y2081479D01*
G01X-5186236Y2081721D01*
G01X-5181388Y2082691D01*
G01X-5179206Y2083418D01*
G01X-5177024Y2084388D01*
G01X-5175085Y2085600D01*
G01X-5173388Y2086812D01*
G01X-5172176Y2087782D01*
G01X-5170963Y2089236D01*
G01X-5169751Y2091176D01*
G01X-5168539Y2093358D01*
G01X-5167570Y2096024D01*
G01X-5166842Y2099176D01*
G01X-5166357Y2102570D01*
G01X-5166115Y2117115D01*
G01X-5166357Y2130691D01*
G01X-5166842Y2135055D01*
G01X-5167570Y2137236D01*
G01X-5168539Y2139418D01*
G01X-5169509Y2140873D01*
G01X-5170721Y2142570D01*
G01X-5171933Y2144752D01*
G01X-5172418Y2147661D01*
G01X-5171691Y2150327D01*
G01X-5170479Y2151782D01*
G01X-5169267Y2152752D01*
G01X-5168054Y2154449D01*
G01X-5167085Y2156630D01*
G01X-5166600Y2158570D01*
G01X-5166357Y2160267D01*
G01X-5166115Y2173358D01*
G01X-5166357Y2186449D01*
G01X-5166842Y2189115D01*
G01X-5167570Y2191782D01*
G01X-5169024Y2195176D01*
G01X-5170236Y2197115D01*
G01X-5171691Y2198812D01*
G01X-5172903Y2200024D01*
G01X-5174357Y2201236D01*
G01X-5176054Y2202206D01*
G01X-5177994Y2203176D01*
G01X-5180660Y2204145D01*
G01X-5183327Y2204873D01*
G01X-5186236Y2205358D01*
G01X-5193751Y2205600D01*
G01X-5200297Y2205358D01*
G01X-5205145Y2204388D01*
G01X-5207085Y2203661D01*
G01X-5209267Y2202691D01*
G01X-5211206Y2201479D01*
G01X-5212903Y2200267D01*
G01X-5214115Y2199055D01*
G01X-5215085Y2197842D01*
G01X-5216055Y2196145D01*
G01X-5217024Y2194206D01*
G01X-5217994Y2191782D01*
G01X-5218721Y2188388D01*
G01X-5218964Y2183539D01*
G01X-5218721Y2180873D01*
G01X-5217994Y2179176D01*
G01X-5215812Y2177721D01*
G01X-5212176Y2177479D01*
G01X-5209024Y2177721D01*
G01X-5207327Y2178206D01*
G01X-5205388Y2179418D01*
G01X-5204600Y2180691D01*
G01X-5204176Y2182570D01*
G01X-5203448Y2185479D01*
G01X-5202479Y2186933D01*
G01X-5201267Y2188145D01*
G01X-5199812Y2189115D01*
G01X-5197630Y2189842D01*
G01X-5195448Y2190327D01*
G01X-5191812Y2190570D01*
G01X-5188176Y2190327D01*
G01X-5186236Y2189600D01*
G01X-5184539Y2188630D01*
G01X-5183085Y2186933D01*
G01X-5181630Y2184024D01*
G01X-5181145Y2172873D01*
G01X-5181388Y2162691D01*
G01X-5182115Y2160752D01*
G01X-5183327Y2159055D01*
G01X-5184539Y2157843D01*
G01X-5186236Y2156630D01*
G01X-5190115Y2154691D01*
G01X-5191812Y2153721D01*
G01X-5193024Y2152752D01*
G01X-5194236Y2151055D01*
G01X-5194721Y2146449D01*
G01X-5194236Y2142327D01*
G01X-5193267Y2140873D01*
G01X-5192054Y2139903D01*
G01X-5190600Y2139176D01*
G01X-5188418Y2138206D01*
G01X-5185751Y2137236D01*
G01X-5184054Y2136024D01*
G01X-5183085Y2134812D01*
G01X-5182115Y2133115D01*
G01X-5181388Y2130206D01*
G01X-5181145Y2117115D01*
G01X-5181388Y2104994D01*
G01X-5182115Y2103054D01*
G01X-5183570Y2100630D01*
G01X-5185751Y2098691D01*
G01X-5188176Y2097721D01*
G01X-5190115Y2097236D01*
G01X-5193267Y2096994D01*
G01X-5196418Y2097236D01*
G01X-5198600Y2097964D01*
G01X-5200539Y2099176D01*
G01X-5201509Y2100145D01*
G01X-5202721Y2101600D01*
G01X-5203691Y2104024D01*
G01X-5204176Y2106448D01*
G01X-5205388Y2108873D01*
G01X-5206358Y2110085D01*
G01X-5211448Y2110085D01*
G01X-5215509Y2109842D01*
G01X-5217509Y2109115D01*
G01X-5218721Y2106448D01*
G01X-5218964Y2101600D01*
G01X-5218721Y2097721D01*
G01X-5217994Y2095297D01*
G01X-5217024Y2092873D01*
G01X-5216055Y2091176D01*
G01X-5215085Y2089721D01*
G01X-5214115Y2088509D01*
G01X-5212418Y2087055D01*
G01X-5210236Y2085600D01*
G01X-5208055Y2084388D01*
G01X-5205388Y2083418D01*
G01X-5202236Y2082448D01*
G01X-5197873Y2081721D01*
G37*
G36*
G01X-5084176Y2081721D02*
G01X-5077873Y2081479D01*
G01X-5071812Y2081721D01*
G01X-5068418Y2082206D01*
G01X-5066236Y2082933D01*
G01X-5063570Y2083903D01*
G01X-5061146Y2085115D01*
G01X-5058721Y2086812D01*
G01X-5057024Y2088509D01*
G01X-5056055Y2089721D01*
G01X-5054842Y2091418D01*
G01X-5053630Y2093842D01*
G01X-5052661Y2096751D01*
G01X-5051933Y2100630D01*
G01X-5051691Y2117600D01*
G01X-5051933Y2133115D01*
G01X-5052418Y2135297D01*
G01X-5053145Y2137721D01*
G01X-5054115Y2139661D01*
G01X-5055327Y2141600D01*
G01X-5056782Y2143782D01*
G01X-5057752Y2146206D01*
G01X-5057752Y2148630D01*
G01X-5056539Y2151055D01*
G01X-5054600Y2152752D01*
G01X-5053388Y2154206D01*
G01X-5052661Y2156146D01*
G01X-5051933Y2158812D01*
G01X-5051691Y2174085D01*
G01X-5051933Y2188388D01*
G01X-5052418Y2190327D01*
G01X-5053145Y2192509D01*
G01X-5054115Y2194691D01*
G01X-5055570Y2197115D01*
G01X-5057024Y2199055D01*
G01X-5058721Y2200509D01*
G01X-5060903Y2201964D01*
G01X-5063085Y2203176D01*
G01X-5065752Y2204145D01*
G01X-5068903Y2204873D01*
G01X-5071327Y2205358D01*
G01X-5078600Y2205600D01*
G01X-5085873Y2205358D01*
G01X-5088297Y2204873D01*
G01X-5090964Y2204145D01*
G01X-5092903Y2203418D01*
G01X-5094600Y2202691D01*
G01X-5096539Y2201479D01*
G01X-5098236Y2200024D01*
G01X-5099449Y2198812D01*
G01X-5100903Y2197115D01*
G01X-5102115Y2194691D01*
G01X-5103085Y2192509D01*
G01X-5103812Y2189358D01*
G01X-5104297Y2185964D01*
G01X-5104539Y2183297D01*
G01X-5104297Y2181115D01*
G01X-5103570Y2179418D01*
G01X-5101873Y2177964D01*
G01X-5097752Y2177479D01*
G01X-5094115Y2177721D01*
G01X-5091933Y2178449D01*
G01X-5090721Y2179115D01*
G01X-5089994Y2180146D01*
G01X-5089509Y2182570D01*
G01X-5089024Y2184752D01*
G01X-5088055Y2186691D01*
G01X-5086358Y2188388D01*
G01X-5084176Y2189600D01*
G01X-5081024Y2190327D01*
G01X-5076661Y2190570D01*
G01X-5073752Y2190327D01*
G01X-5071812Y2189600D01*
G01X-5069388Y2188145D01*
G01X-5067691Y2185964D01*
G01X-5066964Y2183539D01*
G01X-5066479Y2180630D01*
G01X-5066236Y2171903D01*
G01X-5066479Y2164146D01*
G01X-5066964Y2162206D01*
G01X-5067691Y2160267D01*
G01X-5068661Y2158812D01*
G01X-5070358Y2157358D01*
G01X-5072297Y2156146D01*
G01X-5073994Y2155418D01*
G01X-5075933Y2154449D01*
G01X-5077630Y2153236D01*
G01X-5078843Y2152024D01*
G01X-5079812Y2150327D01*
G01X-5080297Y2146933D01*
G01X-5080055Y2143782D01*
G01X-5079327Y2142085D01*
G01X-5078115Y2140630D01*
G01X-5076661Y2139661D01*
G01X-5074721Y2138691D01*
G01X-5072297Y2137721D01*
G01X-5069873Y2136509D01*
G01X-5068418Y2135055D01*
G01X-5067691Y2133600D01*
G01X-5066964Y2131176D01*
G01X-5066479Y2128267D01*
G01X-5066236Y2117358D01*
G01X-5066479Y2106933D01*
G01X-5066964Y2104751D01*
G01X-5067933Y2102085D01*
G01X-5069146Y2100145D01*
G01X-5070843Y2098933D01*
G01X-5072782Y2097964D01*
G01X-5075691Y2097236D01*
G01X-5079327Y2096994D01*
G01X-5081509Y2097236D01*
G01X-5083206Y2097721D01*
G01X-5084903Y2098448D01*
G01X-5086358Y2099418D01*
G01X-5087812Y2101115D01*
G01X-5089024Y2104024D01*
G01X-5089752Y2106933D01*
G01X-5090964Y2109115D01*
G01X-5092964Y2109842D01*
G01X-5097024Y2110085D01*
G01X-5102600Y2109600D01*
G01X-5103570Y2108388D01*
G01X-5104297Y2105479D01*
G01X-5104539Y2101842D01*
G01X-5104297Y2099661D01*
G01X-5103812Y2097236D01*
G01X-5103085Y2094570D01*
G01X-5102115Y2092388D01*
G01X-5101145Y2090691D01*
G01X-5100176Y2089479D01*
G01X-5097752Y2087055D01*
G01X-5096539Y2086085D01*
G01X-5093146Y2084388D01*
G01X-5090964Y2083418D01*
G01X-5088297Y2082691D01*
G01X-5085873Y2082206D01*
G01X-5084176Y2081721D01*
G37*
G36*
G01X-5704731Y4351429D02*
G01X-5678201Y4350914D01*
G01X-5658560Y4351107D01*
G01X-5651670Y4351686D01*
G01X-5650640Y4352975D01*
G01X-5650125Y4359671D01*
G01X-5650318Y4364501D01*
G01X-5650898Y4366626D01*
G01X-5652958Y4367656D01*
G01X-5655534Y4368171D01*
G01X-5672534Y4368429D01*
G01X-5684511Y4368686D01*
G01X-5689019Y4369459D01*
G01X-5689792Y4372293D01*
G01X-5689534Y4374868D01*
G01X-5687989Y4381823D01*
G01X-5685670Y4389550D01*
G01X-5684125Y4394187D01*
G01X-5682579Y4398308D01*
G01X-5681549Y4400626D01*
G01X-5680519Y4403202D01*
G01X-5676398Y4411444D01*
G01X-5675110Y4413762D01*
G01X-5673822Y4415823D01*
G01X-5672792Y4417626D01*
G01X-5671504Y4419687D01*
G01X-5668413Y4424323D01*
G01X-5667125Y4426126D01*
G01X-5664034Y4429990D01*
G01X-5662489Y4432050D01*
G01X-5660686Y4433596D01*
G01X-5659655Y4434626D01*
G01X-5658625Y4435914D01*
G01X-5657079Y4437717D01*
G01X-5654504Y4441323D01*
G01X-5653216Y4443384D01*
G01X-5652186Y4445444D01*
G01X-5651155Y4448277D01*
G01X-5650382Y4451111D01*
G01X-5650125Y4457293D01*
G01X-5650382Y4462959D01*
G01X-5650898Y4465277D01*
G01X-5651670Y4467853D01*
G01X-5652701Y4470171D01*
G01X-5653731Y4472232D01*
G01X-5654761Y4473777D01*
G01X-5657337Y4476353D01*
G01X-5659140Y4477899D01*
G01X-5661201Y4479186D01*
G01X-5663261Y4480217D01*
G01X-5665837Y4481247D01*
G01X-5668928Y4482020D01*
G01X-5671504Y4482535D01*
G01X-5675625Y4483050D01*
G01X-5679231Y4483308D01*
G01X-5682837Y4483050D01*
G01X-5686958Y4482535D01*
G01X-5689276Y4482020D01*
G01X-5691852Y4481247D01*
G01X-5694428Y4480217D01*
G01X-5696488Y4479186D01*
G01X-5697777Y4478156D01*
G01X-5699837Y4476611D01*
G01X-5701640Y4474550D01*
G01X-5702670Y4473005D01*
G01X-5703701Y4471202D01*
G01X-5704731Y4469141D01*
G01X-5705504Y4467080D01*
G01X-5706534Y4462959D01*
G01X-5707049Y4459353D01*
G01X-5707049Y4455747D01*
G01X-5705761Y4453687D01*
G01X-5703443Y4452656D01*
G01X-5698034Y4452399D01*
G01X-5693140Y4452914D01*
G01X-5691595Y4453944D01*
G01X-5690951Y4454910D01*
G01X-5690564Y4456777D01*
G01X-5690049Y4459868D01*
G01X-5689276Y4461671D01*
G01X-5687989Y4463217D01*
G01X-5686701Y4464247D01*
G01X-5684640Y4465277D01*
G01X-5681292Y4466050D01*
G01X-5677428Y4466308D01*
G01X-5674595Y4466050D01*
G01X-5672276Y4465277D01*
G01X-5670216Y4464247D01*
G01X-5669186Y4463217D01*
G01X-5667898Y4461414D01*
G01X-5666867Y4457808D01*
G01X-5666610Y4454459D01*
G01X-5666867Y4452656D01*
G01X-5667383Y4450853D01*
G01X-5668413Y4449308D01*
G01X-5674852Y4442868D01*
G01X-5676398Y4440808D01*
G01X-5678201Y4439005D01*
G01X-5685413Y4429990D01*
G01X-5686443Y4428186D01*
G01X-5689534Y4423550D01*
G01X-5690822Y4421232D01*
G01X-5692882Y4417626D01*
G01X-5694170Y4415308D01*
G01X-5695201Y4413247D01*
G01X-5695973Y4411444D01*
G01X-5699064Y4404490D01*
G01X-5702155Y4395217D01*
G01X-5702928Y4392126D01*
G01X-5703701Y4389550D01*
G01X-5704216Y4387490D01*
G01X-5704473Y4385686D01*
G01X-5705504Y4380535D01*
G01X-5706019Y4377444D01*
G01X-5706534Y4373838D01*
G01X-5706791Y4371262D01*
G01X-5707049Y4369202D01*
G01X-5707307Y4361989D01*
G01X-5706791Y4354520D01*
G01X-5705761Y4352717D01*
G01X-5704731Y4351429D01*
G37*
G36*
G01X-5606079Y4351171D02*
G01X-5599383Y4350914D01*
G01X-5594295Y4351171D01*
G01X-5591913Y4351944D01*
G01X-5591140Y4360187D01*
G01X-5590883Y4382853D01*
G01X-5590625Y4413505D01*
G01X-5590367Y4447247D01*
G01X-5590883Y4481247D01*
G01X-5592170Y4482792D01*
G01X-5598867Y4483308D01*
G01X-5603632Y4483050D01*
G01X-5606079Y4482277D01*
G01X-5607883Y4480474D01*
G01X-5609686Y4479444D01*
G01X-5611746Y4478929D01*
G01X-5614064Y4478414D01*
G01X-5616640Y4477383D01*
G01X-5618186Y4475838D01*
G01X-5619216Y4473777D01*
G01X-5619989Y4471202D01*
G01X-5620246Y4468368D01*
G01X-5619989Y4466050D01*
G01X-5619473Y4464247D01*
G01X-5618186Y4462702D01*
G01X-5615867Y4461929D01*
G01X-5612004Y4461671D01*
G01X-5609943Y4461414D01*
G01X-5608913Y4460641D01*
G01X-5608140Y4458323D01*
G01X-5607883Y4405262D01*
G01X-5607689Y4366175D01*
G01X-5607110Y4352459D01*
G01X-5606079Y4351171D01*
G37*
G36*
G01X-5700201Y4096914D02*
G01X-5726731Y4097429D01*
G01X-5727761Y4098717D01*
G01X-5728791Y4100520D01*
G01X-5729307Y4107989D01*
G01X-5729049Y4115202D01*
G01X-5728791Y4117262D01*
G01X-5728534Y4119838D01*
G01X-5728019Y4123444D01*
G01X-5727504Y4126535D01*
G01X-5726473Y4131686D01*
G01X-5726216Y4133490D01*
G01X-5725701Y4135550D01*
G01X-5724928Y4138126D01*
G01X-5724155Y4141217D01*
G01X-5721064Y4150490D01*
G01X-5717973Y4157444D01*
G01X-5717201Y4159247D01*
G01X-5716170Y4161308D01*
G01X-5714882Y4163626D01*
G01X-5712822Y4167232D01*
G01X-5711534Y4169550D01*
G01X-5708443Y4174186D01*
G01X-5707413Y4175990D01*
G01X-5700201Y4185005D01*
G01X-5698398Y4186808D01*
G01X-5696852Y4188868D01*
G01X-5690413Y4195308D01*
G01X-5689383Y4196853D01*
G01X-5688867Y4198656D01*
G01X-5688610Y4200459D01*
G01X-5688867Y4203808D01*
G01X-5689898Y4207414D01*
G01X-5691185Y4209217D01*
G01X-5692216Y4210247D01*
G01X-5694276Y4211277D01*
G01X-5696595Y4212050D01*
G01X-5699428Y4212308D01*
G01X-5703292Y4212050D01*
G01X-5706640Y4211277D01*
G01X-5708701Y4210247D01*
G01X-5709989Y4209217D01*
G01X-5711276Y4207671D01*
G01X-5712049Y4205868D01*
G01X-5712564Y4202777D01*
G01X-5712951Y4200910D01*
G01X-5713595Y4199944D01*
G01X-5715140Y4198914D01*
G01X-5720034Y4198399D01*
G01X-5725443Y4198656D01*
G01X-5727761Y4199687D01*
G01X-5729049Y4201747D01*
G01X-5729049Y4205353D01*
G01X-5728534Y4208959D01*
G01X-5727504Y4213080D01*
G01X-5726731Y4215141D01*
G01X-5725701Y4217202D01*
G01X-5724670Y4219005D01*
G01X-5723640Y4220550D01*
G01X-5721837Y4222611D01*
G01X-5719776Y4224156D01*
G01X-5718488Y4225186D01*
G01X-5716428Y4226217D01*
G01X-5713852Y4227247D01*
G01X-5711276Y4228020D01*
G01X-5708958Y4228535D01*
G01X-5704837Y4229050D01*
G01X-5701231Y4229308D01*
G01X-5697625Y4229050D01*
G01X-5693504Y4228535D01*
G01X-5690928Y4228020D01*
G01X-5687837Y4227247D01*
G01X-5685261Y4226217D01*
G01X-5683201Y4225186D01*
G01X-5681140Y4223899D01*
G01X-5679337Y4222353D01*
G01X-5676761Y4219777D01*
G01X-5675731Y4218232D01*
G01X-5674701Y4216171D01*
G01X-5673670Y4213853D01*
G01X-5672898Y4211277D01*
G01X-5672382Y4208959D01*
G01X-5672125Y4203293D01*
G01X-5672382Y4197111D01*
G01X-5673155Y4194277D01*
G01X-5674186Y4191444D01*
G01X-5675216Y4189384D01*
G01X-5676504Y4187323D01*
G01X-5679079Y4183717D01*
G01X-5680625Y4181914D01*
G01X-5681655Y4180626D01*
G01X-5682686Y4179596D01*
G01X-5684489Y4178050D01*
G01X-5686034Y4175990D01*
G01X-5689125Y4172126D01*
G01X-5690413Y4170323D01*
G01X-5693504Y4165687D01*
G01X-5694792Y4163626D01*
G01X-5695822Y4161823D01*
G01X-5697110Y4159762D01*
G01X-5698398Y4157444D01*
G01X-5702519Y4149202D01*
G01X-5703549Y4146626D01*
G01X-5704579Y4144308D01*
G01X-5706125Y4140187D01*
G01X-5707670Y4135550D01*
G01X-5709989Y4127823D01*
G01X-5711534Y4120868D01*
G01X-5711791Y4118293D01*
G01X-5711019Y4115459D01*
G01X-5706511Y4114686D01*
G01X-5694534Y4114429D01*
G01X-5677534Y4114171D01*
G01X-5674958Y4113656D01*
G01X-5672898Y4112626D01*
G01X-5672318Y4110501D01*
G01X-5672125Y4105671D01*
G01X-5672640Y4098975D01*
G01X-5673670Y4097686D01*
G01X-5680560Y4097107D01*
G01X-5700201Y4096914D01*
G37*
G36*
G01X-5626019Y4096914D02*
G01X-5632973Y4097429D01*
G01X-5636837Y4098459D01*
G01X-5639413Y4099490D01*
G01X-5641473Y4100520D01*
G01X-5643276Y4101550D01*
G01X-5645079Y4102838D01*
G01X-5646883Y4104383D01*
G01X-5647913Y4105671D01*
G01X-5649201Y4107474D01*
G01X-5650489Y4109535D01*
G01X-5651261Y4111338D01*
G01X-5652034Y4113399D01*
G01X-5652807Y4115974D01*
G01X-5653322Y4118293D01*
G01X-5653837Y4122414D01*
G01X-5654095Y4164656D01*
G01X-5654085Y4166202D01*
G01X-5638640Y4166202D01*
G01X-5638382Y4129626D01*
G01X-5638125Y4127050D01*
G01X-5637867Y4123959D01*
G01X-5637352Y4121383D01*
G01X-5636580Y4118808D01*
G01X-5635291Y4116232D01*
G01X-5633231Y4113914D01*
G01X-5630655Y4112626D01*
G01X-5630655Y4112626D01*
G01X-5629110Y4112111D01*
G01X-5625761Y4111853D01*
G01X-5621640Y4112368D01*
G01X-5619322Y4113399D01*
G01X-5617261Y4114686D01*
G01X-5615974Y4116232D01*
G01X-5614685Y4118293D01*
G01X-5613655Y4121126D01*
G01X-5613140Y4123444D01*
G01X-5612883Y4163368D01*
G01X-5613140Y4203808D01*
G01X-5613655Y4205868D01*
G01X-5614428Y4207929D01*
G01X-5615716Y4209732D01*
G01X-5617776Y4211020D01*
G01X-5620352Y4212050D01*
G01X-5622413Y4212565D01*
G01X-5625504Y4212823D01*
G01X-5628595Y4212565D01*
G01X-5630913Y4212050D01*
G01X-5633231Y4211277D01*
G01X-5635034Y4210247D01*
G01X-5636580Y4208702D01*
G01X-5637610Y4206641D01*
G01X-5638125Y4204580D01*
G01X-5638382Y4202777D01*
G01X-5638640Y4166202D01*
G01X-5654085Y4166202D01*
G01X-5653837Y4206899D01*
G01X-5653579Y4208959D01*
G01X-5653064Y4212050D01*
G01X-5652034Y4215398D01*
G01X-5650746Y4218232D01*
G01X-5649201Y4220550D01*
G01X-5647913Y4222353D01*
G01X-5646110Y4223899D01*
G01X-5643792Y4225444D01*
G01X-5641473Y4226732D01*
G01X-5638382Y4227762D01*
G01X-5635807Y4228535D01*
G01X-5632201Y4229050D01*
G01X-5627564Y4229308D01*
G01X-5621382Y4229050D01*
G01X-5617776Y4228535D01*
G01X-5615716Y4228020D01*
G01X-5613398Y4227505D01*
G01X-5611079Y4226732D01*
G01X-5609019Y4225702D01*
G01X-5607216Y4224671D01*
G01X-5605413Y4223383D01*
G01X-5603610Y4221838D01*
G01X-5602064Y4219777D01*
G01X-5600519Y4217202D01*
G01X-5599489Y4214883D01*
G01X-5598716Y4211792D01*
G01X-5598201Y4208959D01*
G01X-5597943Y4166459D01*
G01X-5598201Y4123959D01*
G01X-5598716Y4119838D01*
G01X-5599231Y4117262D01*
G01X-5600004Y4113914D01*
G01X-5601034Y4111080D01*
G01X-5602322Y4108505D01*
G01X-5604898Y4104899D01*
G01X-5606443Y4103096D01*
G01X-5607731Y4102065D01*
G01X-5609277Y4101035D01*
G01X-5611079Y4100005D01*
G01X-5612883Y4099232D01*
G01X-5614943Y4098459D01*
G01X-5617776Y4097686D01*
G01X-5620352Y4097171D01*
G01X-5626019Y4096914D01*
G37*
G36*
G01X-5604019Y3842914D02*
G01X-5610974Y3843429D01*
G01X-5614837Y3844459D01*
G01X-5617413Y3845490D01*
G01X-5619473Y3846520D01*
G01X-5621277Y3847550D01*
G01X-5623079Y3848838D01*
G01X-5624883Y3850383D01*
G01X-5625913Y3851671D01*
G01X-5627201Y3853474D01*
G01X-5628489Y3855535D01*
G01X-5629261Y3857338D01*
G01X-5630034Y3859399D01*
G01X-5630807Y3861974D01*
G01X-5631322Y3864293D01*
G01X-5631837Y3868414D01*
G01X-5632095Y3910656D01*
G01X-5632085Y3912202D01*
G01X-5616640Y3912202D01*
G01X-5616382Y3875626D01*
G01X-5616125Y3873050D01*
G01X-5615867Y3869959D01*
G01X-5615352Y3867383D01*
G01X-5614580Y3864808D01*
G01X-5613292Y3862232D01*
G01X-5611231Y3859914D01*
G01X-5608655Y3858626D01*
G01X-5608655Y3858626D01*
G01X-5607110Y3858111D01*
G01X-5603761Y3857853D01*
G01X-5599640Y3858368D01*
G01X-5597322Y3859399D01*
G01X-5595261Y3860686D01*
G01X-5593974Y3862232D01*
G01X-5592686Y3864293D01*
G01X-5591655Y3867126D01*
G01X-5591140Y3869444D01*
G01X-5590883Y3909368D01*
G01X-5591140Y3949808D01*
G01X-5591655Y3951868D01*
G01X-5592428Y3953929D01*
G01X-5593716Y3955732D01*
G01X-5595776Y3957020D01*
G01X-5598352Y3958050D01*
G01X-5600413Y3958565D01*
G01X-5603504Y3958823D01*
G01X-5606595Y3958565D01*
G01X-5608913Y3958050D01*
G01X-5611231Y3957277D01*
G01X-5613034Y3956247D01*
G01X-5614580Y3954702D01*
G01X-5615610Y3952641D01*
G01X-5616125Y3950580D01*
G01X-5616382Y3948777D01*
G01X-5616640Y3912202D01*
G01X-5632085Y3912202D01*
G01X-5631837Y3952899D01*
G01X-5631580Y3954959D01*
G01X-5631064Y3958050D01*
G01X-5630034Y3961398D01*
G01X-5628746Y3964232D01*
G01X-5627201Y3966550D01*
G01X-5625913Y3968353D01*
G01X-5624110Y3969899D01*
G01X-5621792Y3971444D01*
G01X-5619473Y3972732D01*
G01X-5616382Y3973762D01*
G01X-5613807Y3974535D01*
G01X-5610201Y3975050D01*
G01X-5605564Y3975308D01*
G01X-5599383Y3975050D01*
G01X-5595776Y3974535D01*
G01X-5593716Y3974020D01*
G01X-5591398Y3973505D01*
G01X-5589079Y3972732D01*
G01X-5587019Y3971702D01*
G01X-5585216Y3970671D01*
G01X-5583413Y3969383D01*
G01X-5581610Y3967838D01*
G01X-5580064Y3965777D01*
G01X-5578519Y3963202D01*
G01X-5577489Y3960883D01*
G01X-5576716Y3957792D01*
G01X-5576201Y3954959D01*
G01X-5575943Y3912459D01*
G01X-5576201Y3869959D01*
G01X-5576716Y3865838D01*
G01X-5577231Y3863262D01*
G01X-5578004Y3859914D01*
G01X-5579034Y3857080D01*
G01X-5580322Y3854505D01*
G01X-5582898Y3850899D01*
G01X-5584443Y3849096D01*
G01X-5585731Y3848065D01*
G01X-5587277Y3847035D01*
G01X-5589079Y3846005D01*
G01X-5590883Y3845232D01*
G01X-5592943Y3844459D01*
G01X-5595776Y3843686D01*
G01X-5598352Y3843171D01*
G01X-5604019Y3842914D01*
G37*
G36*
G01X-5679102Y3843107D02*
G01X-5681292Y3843686D01*
G01X-5682322Y3845232D01*
G01X-5682837Y3950838D01*
G01X-5683352Y3952641D01*
G01X-5684254Y3953414D01*
G01X-5686443Y3953671D01*
G01X-5690564Y3953929D01*
G01X-5692882Y3954702D01*
G01X-5693720Y3955410D01*
G01X-5694170Y3956505D01*
G01X-5694686Y3958565D01*
G01X-5694943Y3960368D01*
G01X-5694686Y3962687D01*
G01X-5694170Y3964747D01*
G01X-5693398Y3966808D01*
G01X-5691595Y3969126D01*
G01X-5688504Y3970414D01*
G01X-5685928Y3970929D01*
G01X-5684125Y3971444D01*
G01X-5682579Y3972474D01*
G01X-5681292Y3973762D01*
G01X-5680004Y3974792D01*
G01X-5673564Y3975308D01*
G01X-5666867Y3974792D01*
G01X-5665579Y3973505D01*
G01X-5665064Y3910399D01*
G01X-5665322Y3846262D01*
G01X-5665773Y3844717D01*
G01X-5666610Y3843686D01*
G01X-5668992Y3843107D01*
G01X-5674080Y3842914D01*
G01X-5679102Y3843107D01*
G37*
G36*
G01X-5620700Y3589171D02*
G01X-5612458Y3588914D01*
G01X-5604473Y3589171D01*
G01X-5601898Y3589686D01*
G01X-5599064Y3590459D01*
G01X-5596746Y3591490D01*
G01X-5594943Y3592777D01*
G01X-5592367Y3594838D01*
G01X-5591079Y3596126D01*
G01X-5590049Y3597414D01*
G01X-5588246Y3601020D01*
G01X-5587216Y3603338D01*
G01X-5586443Y3606171D01*
G01X-5585928Y3608747D01*
G01X-5585413Y3612868D01*
G01X-5585155Y3656399D01*
G01X-5585413Y3699929D01*
G01X-5585928Y3703535D01*
G01X-5586701Y3706111D01*
G01X-5587731Y3708944D01*
G01X-5588761Y3711005D01*
G01X-5589791Y3712550D01*
G01X-5590822Y3713838D01*
G01X-5592110Y3715126D01*
G01X-5593397Y3716156D01*
G01X-5595201Y3717444D01*
G01X-5597776Y3718732D01*
G01X-5600094Y3719762D01*
G01X-5603185Y3720535D01*
G01X-5606019Y3721050D01*
G01X-5614261Y3721308D01*
G01X-5622504Y3721050D01*
G01X-5624564Y3720535D01*
G01X-5626882Y3719762D01*
G01X-5629201Y3718732D01*
G01X-5631776Y3717186D01*
G01X-5634867Y3714095D01*
G01X-5636155Y3712293D01*
G01X-5638216Y3708171D01*
G01X-5639246Y3705080D01*
G01X-5640019Y3700959D01*
G01X-5640276Y3697095D01*
G01X-5640534Y3694777D01*
G01X-5640684Y3687565D01*
G01X-5626367Y3687565D01*
G01X-5626110Y3699414D01*
G01X-5625337Y3701474D01*
G01X-5624049Y3703277D01*
G01X-5622504Y3704308D01*
G01X-5620185Y3705338D01*
G01X-5616322Y3706111D01*
G01X-5612458Y3706368D01*
G01X-5610140Y3706111D01*
G01X-5608079Y3705596D01*
G01X-5605761Y3704565D01*
G01X-5603958Y3703277D01*
G01X-5602928Y3701990D01*
G01X-5602155Y3700444D01*
G01X-5601382Y3697353D01*
G01X-5601125Y3682671D01*
G01X-5601640Y3669535D01*
G01X-5602670Y3667732D01*
G01X-5604473Y3665929D01*
G01X-5607049Y3664641D01*
G01X-5610140Y3663868D01*
G01X-5614261Y3663611D01*
G01X-5616837Y3663868D01*
G01X-5616837Y3663868D01*
G01X-5618125Y3664126D01*
G01X-5620185Y3664641D01*
G01X-5621989Y3665671D01*
G01X-5623276Y3666959D01*
G01X-5624307Y3668247D01*
G01X-5625337Y3670308D01*
G01X-5626110Y3674171D01*
G01X-5626367Y3687565D01*
G01X-5640684Y3687565D01*
G01X-5640791Y3682414D01*
G01X-5640534Y3670050D01*
G01X-5640019Y3664384D01*
G01X-5639246Y3661808D01*
G01X-5638216Y3659232D01*
G01X-5637185Y3657171D01*
G01X-5635898Y3655368D01*
G01X-5633322Y3652793D01*
G01X-5632034Y3651762D01*
G01X-5630231Y3650474D01*
G01X-5627655Y3649187D01*
G01X-5624822Y3648156D01*
G01X-5621989Y3647383D01*
G01X-5619413Y3646868D01*
G01X-5616837Y3646611D01*
G01X-5614776Y3646353D01*
G01X-5610655Y3646096D01*
G01X-5606534Y3646353D01*
G01X-5604216Y3646611D01*
G01X-5602928Y3646418D01*
G01X-5602155Y3645838D01*
G01X-5601125Y3644293D01*
G01X-5600610Y3633217D01*
G01X-5600352Y3622141D01*
G01X-5600094Y3619050D01*
G01X-5600352Y3615959D01*
G01X-5600610Y3613641D01*
G01X-5601125Y3611065D01*
G01X-5602155Y3609005D01*
G01X-5603443Y3607202D01*
G01X-5605504Y3605656D01*
G01X-5608337Y3604368D01*
G01X-5613488Y3603853D01*
G01X-5618125Y3604368D01*
G01X-5620185Y3605141D01*
G01X-5621731Y3606171D01*
G01X-5623019Y3607459D01*
G01X-5624049Y3609005D01*
G01X-5624822Y3611065D01*
G01X-5625337Y3614156D01*
G01X-5625595Y3615895D01*
G01X-5626367Y3616989D01*
G01X-5629716Y3618020D01*
G01X-5633837Y3618277D01*
G01X-5636413Y3618020D01*
G01X-5637958Y3617247D01*
G01X-5639246Y3615444D01*
G01X-5640019Y3613383D01*
G01X-5640019Y3610550D01*
G01X-5639246Y3607459D01*
G01X-5638473Y3605141D01*
G01X-5637700Y3603080D01*
G01X-5636670Y3601020D01*
G01X-5635640Y3599217D01*
G01X-5634352Y3597414D01*
G01X-5632807Y3595611D01*
G01X-5631519Y3594323D01*
G01X-5630231Y3593293D01*
G01X-5628428Y3592262D01*
G01X-5626110Y3590975D01*
G01X-5623276Y3589944D01*
G01X-5620700Y3589171D01*
G37*
G36*
G01X-5614261Y3334656D02*
G01X-5612973Y3334399D01*
G01X-5611170Y3334656D01*
G01X-5606019Y3335171D01*
G01X-5603701Y3335686D01*
G01X-5601125Y3336459D01*
G01X-5598807Y3337490D01*
G01X-5596488Y3338777D01*
G01X-5594686Y3340065D01*
G01X-5592110Y3342641D01*
G01X-5590822Y3344187D01*
G01X-5589791Y3345989D01*
G01X-5588761Y3348050D01*
G01X-5587731Y3350368D01*
G01X-5586701Y3353202D01*
G01X-5586185Y3356035D01*
G01X-5585928Y3357838D01*
G01X-5585413Y3361959D01*
G01X-5585155Y3378187D01*
G01X-5585413Y3394414D01*
G01X-5585928Y3396474D01*
G01X-5586701Y3398535D01*
G01X-5587731Y3400080D01*
G01X-5589276Y3402141D01*
G01X-5591079Y3403944D01*
G01X-5592110Y3405490D01*
G01X-5592110Y3406391D01*
G01X-5591595Y3407035D01*
G01X-5589019Y3409611D01*
G01X-5587473Y3411414D01*
G01X-5586185Y3414247D01*
G01X-5585413Y3418111D01*
G01X-5585155Y3433308D01*
G01X-5585413Y3446959D01*
G01X-5585928Y3450565D01*
G01X-5586701Y3452883D01*
G01X-5587989Y3455717D01*
G01X-5589534Y3458293D01*
G01X-5591079Y3460095D01*
G01X-5592367Y3461383D01*
G01X-5593655Y3462414D01*
G01X-5597261Y3464217D01*
G01X-5599579Y3465247D01*
G01X-5602413Y3466020D01*
G01X-5604989Y3466535D01*
G01X-5609110Y3467050D01*
G01X-5613746Y3467308D01*
G01X-5618382Y3467050D01*
G01X-5622504Y3466535D01*
G01X-5625079Y3465762D01*
G01X-5628170Y3464732D01*
G01X-5630746Y3463444D01*
G01X-5632807Y3462156D01*
G01X-5634867Y3460611D01*
G01X-5636413Y3458808D01*
G01X-5637185Y3457520D01*
G01X-5638216Y3455717D01*
G01X-5639246Y3453656D01*
G01X-5640019Y3451338D01*
G01X-5640534Y3449020D01*
G01X-5641049Y3446444D01*
G01X-5641233Y3434853D01*
G01X-5626367Y3434853D01*
G01X-5626110Y3444384D01*
G01X-5625337Y3446444D01*
G01X-5624049Y3448247D01*
G01X-5622761Y3449535D01*
G01X-5621216Y3450565D01*
G01X-5619413Y3451338D01*
G01X-5617610Y3451853D01*
G01X-5615807Y3452111D01*
G01X-5612201Y3452368D01*
G01X-5608595Y3452111D01*
G01X-5606276Y3451338D01*
G01X-5604216Y3450050D01*
G01X-5602928Y3448762D01*
G01X-5601898Y3447217D01*
G01X-5601125Y3445414D01*
G01X-5600352Y3442323D01*
G01X-5600094Y3432020D01*
G01X-5600352Y3423262D01*
G01X-5600867Y3421202D01*
G01X-5601898Y3418626D01*
G01X-5603185Y3416565D01*
G01X-5604473Y3415277D01*
G01X-5606276Y3413990D01*
G01X-5609625Y3412959D01*
G01X-5614261Y3412702D01*
G01X-5616837Y3412959D01*
G01X-5616837Y3412959D01*
G01X-5618382Y3413474D01*
G01X-5620700Y3414505D01*
G01X-5622504Y3415793D01*
G01X-5623534Y3417081D01*
G01X-5624307Y3418626D01*
G01X-5625337Y3420944D01*
G01X-5626110Y3424293D01*
G01X-5626367Y3434853D01*
G01X-5641233Y3434853D01*
G01X-5641307Y3430217D01*
G01X-5641049Y3415020D01*
G01X-5640276Y3412959D01*
G01X-5638731Y3410384D01*
G01X-5636670Y3408580D01*
G01X-5635125Y3407293D01*
G01X-5634352Y3405747D01*
G01X-5634610Y3404202D01*
G01X-5638473Y3400338D01*
G01X-5639504Y3398793D01*
G01X-5640276Y3396732D01*
G01X-5641049Y3393899D01*
G01X-5641307Y3376383D01*
G01X-5641279Y3374581D01*
G01X-5626367Y3374581D01*
G01X-5626110Y3389777D01*
G01X-5625337Y3391838D01*
G01X-5624049Y3393641D01*
G01X-5622761Y3394671D01*
G01X-5620958Y3395959D01*
G01X-5617867Y3396990D01*
G01X-5615292Y3397505D01*
G01X-5612201Y3397762D01*
G01X-5609110Y3397505D01*
G01X-5607307Y3396990D01*
G01X-5605504Y3396217D01*
G01X-5603958Y3395187D01*
G01X-5602413Y3393383D01*
G01X-5601125Y3390808D01*
G01X-5600352Y3387202D01*
G01X-5600094Y3371747D01*
G01X-5600352Y3357838D01*
G01X-5601125Y3355777D01*
G01X-5602670Y3353202D01*
G01X-5604989Y3351141D01*
G01X-5608079Y3349853D01*
G01X-5613231Y3349338D01*
G01X-5616837Y3349596D01*
G01X-5616837Y3349596D01*
G01X-5618125Y3349853D01*
G01X-5619928Y3350368D01*
G01X-5621989Y3351656D01*
G01X-5624049Y3353717D01*
G01X-5625337Y3356293D01*
G01X-5626110Y3358868D01*
G01X-5626367Y3374581D01*
G01X-5641279Y3374581D01*
G01X-5641049Y3359899D01*
G01X-5640534Y3356293D01*
G01X-5640019Y3354232D01*
G01X-5639246Y3351914D01*
G01X-5638473Y3349853D01*
G01X-5637700Y3348050D01*
G01X-5636670Y3346247D01*
G01X-5635125Y3343929D01*
G01X-5632034Y3340838D01*
G01X-5630488Y3339550D01*
G01X-5628428Y3338262D01*
G01X-5626367Y3337232D01*
G01X-5624307Y3336459D01*
G01X-5621473Y3335686D01*
G01X-5618898Y3335171D01*
G01X-5616322Y3334914D01*
G01X-5614261Y3334656D01*
G37*
G36*
G01X-5625852Y3081429D02*
G01X-5620443Y3080914D01*
G01X-5616901Y3081171D01*
G01X-5615034Y3081944D01*
G01X-5613488Y3084262D01*
G01X-5612458Y3087353D01*
G01X-5611685Y3091474D01*
G01X-5611170Y3096111D01*
G01X-5610655Y3100232D01*
G01X-5610140Y3103838D01*
G01X-5609625Y3107959D01*
G01X-5608595Y3115171D01*
G01X-5608079Y3118262D01*
G01X-5607564Y3121868D01*
G01X-5606534Y3127535D01*
G01X-5605504Y3133717D01*
G01X-5603443Y3144020D01*
G01X-5602155Y3149171D01*
G01X-5601382Y3152520D01*
G01X-5600867Y3154838D01*
G01X-5600094Y3157414D01*
G01X-5598034Y3164626D01*
G01X-5597004Y3167974D01*
G01X-5596231Y3170808D01*
G01X-5591595Y3184717D01*
G01X-5590822Y3186777D01*
G01X-5589276Y3190384D01*
G01X-5587216Y3194505D01*
G01X-5586443Y3196823D01*
G01X-5585928Y3199141D01*
G01X-5585670Y3205580D01*
G01X-5585928Y3209959D01*
G01X-5586701Y3211762D01*
G01X-5589019Y3212535D01*
G01X-5614776Y3212792D01*
G01X-5633386Y3212535D01*
G01X-5640276Y3211762D01*
G01X-5641049Y3209766D01*
G01X-5641307Y3205838D01*
G01X-5641113Y3202039D01*
G01X-5640534Y3200429D01*
G01X-5639246Y3199398D01*
G01X-5623019Y3198883D01*
G01X-5606534Y3198626D01*
G01X-5604989Y3198111D01*
G01X-5603958Y3196565D01*
G01X-5603958Y3193990D01*
G01X-5610140Y3175444D01*
G01X-5610655Y3173384D01*
G01X-5612458Y3167974D01*
G01X-5613231Y3165141D01*
G01X-5613746Y3163081D01*
G01X-5614519Y3160762D01*
G01X-5615292Y3157929D01*
G01X-5615807Y3155868D01*
G01X-5616579Y3153293D01*
G01X-5617610Y3149687D01*
G01X-5618382Y3146338D01*
G01X-5618898Y3144020D01*
G01X-5619670Y3141444D01*
G01X-5620443Y3137838D01*
G01X-5620958Y3135262D01*
G01X-5621731Y3132686D01*
G01X-5622504Y3129080D01*
G01X-5623019Y3125989D01*
G01X-5624049Y3120838D01*
G01X-5624564Y3117747D01*
G01X-5625079Y3115171D01*
G01X-5627140Y3100747D01*
G01X-5627655Y3096626D01*
G01X-5628685Y3086323D01*
G01X-5628685Y3084520D01*
G01X-5627655Y3082717D01*
G01X-5625852Y3081429D01*
G37*
G36*
G01X-5621731Y2827429D02*
G01X-5612458Y2826914D01*
G01X-5604473Y2827171D01*
G01X-5601898Y2827686D01*
G01X-5599064Y2828459D01*
G01X-5596746Y2829490D01*
G01X-5594943Y2830520D01*
G01X-5593655Y2831550D01*
G01X-5591079Y2834126D01*
G01X-5589791Y2835671D01*
G01X-5588761Y2837474D01*
G01X-5587731Y2839535D01*
G01X-5586701Y2842368D01*
G01X-5585928Y2846232D01*
G01X-5585413Y2849838D01*
G01X-5585155Y2867096D01*
G01X-5585413Y2883838D01*
G01X-5585928Y2886414D01*
G01X-5586701Y2889247D01*
G01X-5587473Y2891308D01*
G01X-5588246Y2893111D01*
G01X-5589276Y2894656D01*
G01X-5590822Y2896717D01*
G01X-5592882Y2898520D01*
G01X-5594428Y2899550D01*
G01X-5596231Y2900580D01*
G01X-5598292Y2901611D01*
G01X-5600352Y2902384D01*
G01X-5602670Y2903156D01*
G01X-5604731Y2903671D01*
G01X-5610140Y2904444D01*
G01X-5615034Y2904702D01*
G01X-5619928Y2904444D01*
G01X-5621989Y2904186D01*
G01X-5623791Y2904959D01*
G01X-5624822Y2906762D01*
G01X-5625337Y2921186D01*
G01X-5625079Y2935353D01*
G01X-5624564Y2937156D01*
G01X-5623534Y2939474D01*
G01X-5622246Y2941535D01*
G01X-5620958Y2942565D01*
G01X-5619413Y2943338D01*
G01X-5616837Y2944111D01*
G01X-5614004Y2944626D01*
G01X-5612201Y2944626D01*
G01X-5609882Y2944368D01*
G01X-5607307Y2943853D01*
G01X-5605246Y2942823D01*
G01X-5603443Y2941535D01*
G01X-5601898Y2939474D01*
G01X-5600867Y2936899D01*
G01X-5600352Y2934323D01*
G01X-5599837Y2932005D01*
G01X-5599322Y2931168D01*
G01X-5598292Y2930717D01*
G01X-5595201Y2930202D01*
G01X-5592625Y2930202D01*
G01X-5590307Y2930459D01*
G01X-5588825Y2930717D01*
G01X-5587473Y2931489D01*
G01X-5586443Y2932713D01*
G01X-5585928Y2934323D01*
G01X-5585670Y2937156D01*
G01X-5585928Y2938959D01*
G01X-5587731Y2944368D01*
G01X-5588761Y2946687D01*
G01X-5589791Y2948489D01*
G01X-5590822Y2950035D01*
G01X-5591852Y2951323D01*
G01X-5594428Y2953899D01*
G01X-5595973Y2955186D01*
G01X-5597776Y2956217D01*
G01X-5599837Y2957247D01*
G01X-5602413Y2958277D01*
G01X-5606019Y2959050D01*
G01X-5615292Y2959308D01*
G01X-5623019Y2959050D01*
G01X-5625337Y2958277D01*
G01X-5628170Y2957247D01*
G01X-5630488Y2955959D01*
G01X-5632292Y2954671D01*
G01X-5633579Y2953383D01*
G01X-5634610Y2952095D01*
G01X-5635898Y2950293D01*
G01X-5637185Y2947974D01*
G01X-5638216Y2945398D01*
G01X-5639246Y2942050D01*
G01X-5640019Y2937929D01*
G01X-5640276Y2933808D01*
G01X-5640534Y2931232D01*
G01X-5640791Y2891308D01*
G01X-5640630Y2866323D01*
G01X-5624822Y2866323D01*
G01X-5624564Y2880232D01*
G01X-5623791Y2882035D01*
G01X-5622246Y2884096D01*
G01X-5620185Y2885641D01*
G01X-5617352Y2886671D01*
G01X-5612201Y2887187D01*
G01X-5608079Y2886929D01*
G01X-5605761Y2886156D01*
G01X-5603701Y2885126D01*
G01X-5602413Y2884096D01*
G01X-5601382Y2882808D01*
G01X-5600610Y2881005D01*
G01X-5599837Y2878171D01*
G01X-5599579Y2862202D01*
G01X-5600094Y2847262D01*
G01X-5601125Y2845717D01*
G01X-5602928Y2844171D01*
G01X-5605504Y2843141D01*
G01X-5607564Y2842626D01*
G01X-5612201Y2842111D01*
G01X-5613231Y2842111D01*
G01X-5613231Y2842111D01*
G01X-5615292Y2842368D01*
G01X-5618125Y2842884D01*
G01X-5620185Y2843914D01*
G01X-5621731Y2845202D01*
G01X-5622761Y2846490D01*
G01X-5623791Y2848293D01*
G01X-5624564Y2851383D01*
G01X-5624822Y2866323D01*
G01X-5640630Y2866323D01*
G01X-5640534Y2851383D01*
G01X-5640019Y2845717D01*
G01X-5639504Y2843399D01*
G01X-5638731Y2841080D01*
G01X-5637958Y2839278D01*
G01X-5636928Y2837217D01*
G01X-5635640Y2835414D01*
G01X-5634094Y2833611D01*
G01X-5632292Y2832065D01*
G01X-5630488Y2830777D01*
G01X-5628170Y2829490D01*
G01X-5625337Y2828459D01*
G01X-5621731Y2827429D01*
G37*
G36*
G01X-5616579Y2573171D02*
G01X-5611685Y2572914D01*
G01X-5607049Y2573171D01*
G01X-5601898Y2574202D01*
G01X-5599837Y2574975D01*
G01X-5597261Y2576005D01*
G01X-5595458Y2577035D01*
G01X-5594170Y2578065D01*
G01X-5591595Y2580641D01*
G01X-5590307Y2582187D01*
G01X-5589276Y2583989D01*
G01X-5588246Y2586050D01*
G01X-5587216Y2588368D01*
G01X-5586443Y2591459D01*
G01X-5585928Y2594293D01*
G01X-5585670Y2616959D01*
G01X-5585928Y2639626D01*
G01X-5586443Y2641687D01*
G01X-5587216Y2644005D01*
G01X-5588246Y2646323D01*
G01X-5589276Y2648126D01*
G01X-5590307Y2649414D01*
G01X-5591595Y2650702D01*
G01X-5592625Y2651990D01*
G01X-5593655Y2653020D01*
G01X-5596231Y2655081D01*
G01X-5598034Y2656111D01*
G01X-5600352Y2657399D01*
G01X-5602670Y2658429D01*
G01X-5605246Y2659459D01*
G01X-5608079Y2660232D01*
G01X-5613231Y2661262D01*
G01X-5616064Y2661520D01*
G01X-5618382Y2661262D01*
G01X-5620958Y2660747D01*
G01X-5624049Y2660747D01*
G01X-5625144Y2661262D01*
G01X-5625852Y2662293D01*
G01X-5626367Y2675687D01*
G01X-5626110Y2685024D01*
G01X-5625337Y2688823D01*
G01X-5622504Y2690111D01*
G01X-5605246Y2690368D01*
G01X-5589019Y2690626D01*
G01X-5587216Y2691398D01*
G01X-5586379Y2692236D01*
G01X-5585928Y2693717D01*
G01X-5585670Y2699126D01*
G01X-5585863Y2701959D01*
G01X-5586443Y2703247D01*
G01X-5587989Y2704277D01*
G01X-5613488Y2704792D01*
G01X-5632356Y2704535D01*
G01X-5639504Y2703762D01*
G01X-5640534Y2702539D01*
G01X-5641049Y2700929D01*
G01X-5641307Y2667444D01*
G01X-5641113Y2643425D01*
G01X-5640534Y2634732D01*
G01X-5638473Y2633444D01*
G01X-5635382Y2633187D01*
G01X-5632807Y2633444D01*
G01X-5630746Y2633702D01*
G01X-5628428Y2634217D01*
G01X-5626882Y2635247D01*
G01X-5626367Y2637050D01*
G01X-5625852Y2639368D01*
G01X-5624822Y2641429D01*
G01X-5623534Y2642974D01*
G01X-5622246Y2644262D01*
G01X-5620700Y2645293D01*
G01X-5618898Y2646065D01*
G01X-5616322Y2646838D01*
G01X-5613746Y2647353D01*
G01X-5611170Y2647353D01*
G01X-5607822Y2646580D01*
G01X-5605504Y2645550D01*
G01X-5603443Y2644005D01*
G01X-5601898Y2642202D01*
G01X-5601125Y2640914D01*
G01X-5600094Y2638596D01*
G01X-5599579Y2615929D01*
G01X-5599837Y2599959D01*
G01X-5600610Y2593777D01*
G01X-5602670Y2591717D01*
G01X-5604989Y2590429D01*
G01X-5607564Y2589656D01*
G01X-5610655Y2589141D01*
G01X-5613746Y2588884D01*
G01X-5615807Y2589141D01*
G01X-5617867Y2589656D01*
G01X-5619928Y2590429D01*
G01X-5621473Y2591459D01*
G01X-5624049Y2594035D01*
G01X-5625079Y2595323D01*
G01X-5625852Y2597126D01*
G01X-5627655Y2599187D01*
G01X-5630488Y2600474D01*
G01X-5632807Y2600989D01*
G01X-5636155Y2601247D01*
G01X-5638280Y2601054D01*
G01X-5639504Y2600474D01*
G01X-5640791Y2598671D01*
G01X-5641307Y2595838D01*
G01X-5641049Y2593262D01*
G01X-5640534Y2591202D01*
G01X-5639761Y2589141D01*
G01X-5638988Y2587338D01*
G01X-5637958Y2585278D01*
G01X-5636670Y2583474D01*
G01X-5632807Y2579611D01*
G01X-5631003Y2578323D01*
G01X-5628943Y2577035D01*
G01X-5624307Y2574975D01*
G01X-5621216Y2574202D01*
G01X-5618382Y2573686D01*
G01X-5616579Y2573171D01*
G37*
G36*
G01X-6758186Y4351429D02*
G01X-6751232Y4350914D01*
G01X-6745565Y4351171D01*
G01X-6740414Y4352202D01*
G01X-6738353Y4352975D01*
G01X-6736292Y4354005D01*
G01X-6734489Y4355035D01*
G01X-6732944Y4356065D01*
G01X-6731656Y4357096D01*
G01X-6730368Y4358383D01*
G01X-6728823Y4360444D01*
G01X-6727277Y4363020D01*
G01X-6726247Y4365080D01*
G01X-6725217Y4367399D01*
G01X-6724444Y4370747D01*
G01X-6723929Y4373323D01*
G01X-6723414Y4377444D01*
G01X-6723156Y4420459D01*
G01X-6723414Y4463474D01*
G01X-6723929Y4466050D01*
G01X-6724702Y4468883D01*
G01X-6725732Y4471202D01*
G01X-6727020Y4473520D01*
G01X-6728308Y4475323D01*
G01X-6729595Y4476611D01*
G01X-6731656Y4478156D01*
G01X-6734232Y4479702D01*
G01X-6736292Y4480732D01*
G01X-6738611Y4481505D01*
G01X-6740929Y4482020D01*
G01X-6742989Y4482535D01*
G01X-6746596Y4483050D01*
G01X-6752777Y4483308D01*
G01X-6757414Y4483050D01*
G01X-6761020Y4482535D01*
G01X-6766429Y4480732D01*
G01X-6769004Y4479444D01*
G01X-6770808Y4478156D01*
G01X-6773383Y4475580D01*
G01X-6774929Y4473777D01*
G01X-6776217Y4471717D01*
G01X-6776989Y4469914D01*
G01X-6777762Y4467853D01*
G01X-6778277Y4465792D01*
G01X-6779050Y4460384D01*
G01X-6779304Y4419429D01*
G01X-6763338Y4419429D01*
G01X-6762823Y4460641D01*
G01X-6761535Y4462959D01*
G01X-6759990Y4464505D01*
G01X-6758444Y4465277D01*
G01X-6756126Y4466050D01*
G01X-6753808Y4466565D01*
G01X-6750717Y4466823D01*
G01X-6747626Y4466565D01*
G01X-6745308Y4466050D01*
G01X-6742732Y4465020D01*
G01X-6740929Y4463732D01*
G01X-6739641Y4461929D01*
G01X-6738611Y4459611D01*
G01X-6738095Y4418141D01*
G01X-6738353Y4376929D01*
G01X-6738868Y4374868D01*
G01X-6739641Y4372550D01*
G01X-6740929Y4370232D01*
G01X-6742989Y4368171D01*
G01X-6745565Y4366884D01*
G01X-6748141Y4366111D01*
G01X-6751747Y4365853D01*
G01X-6754323Y4366111D01*
G01X-6754323Y4366111D01*
G01X-6755868Y4366626D01*
G01X-6758444Y4367914D01*
G01X-6760505Y4370232D01*
G01X-6761792Y4372808D01*
G01X-6762565Y4375383D01*
G01X-6763080Y4377959D01*
G01X-6763338Y4419429D01*
G01X-6779304Y4419429D01*
G01X-6779307Y4418914D01*
G01X-6779050Y4377444D01*
G01X-6778535Y4372808D01*
G01X-6778020Y4370490D01*
G01X-6777247Y4367914D01*
G01X-6776474Y4365853D01*
G01X-6775444Y4363535D01*
G01X-6774156Y4361217D01*
G01X-6773126Y4359671D01*
G01X-6772095Y4358383D01*
G01X-6770293Y4356838D01*
G01X-6768489Y4355550D01*
G01X-6766686Y4354520D01*
G01X-6764626Y4353490D01*
G01X-6762050Y4352459D01*
G01X-6758186Y4351429D01*
G37*
G36*
G01X-6765656Y4097686D02*
G01X-6763467Y4097107D01*
G01X-6758444Y4096914D01*
G01X-6753357Y4097107D01*
G01X-6750974Y4097686D01*
G01X-6750137Y4098717D01*
G01X-6749686Y4100262D01*
G01X-6749429Y4164399D01*
G01X-6749944Y4227505D01*
G01X-6751232Y4228792D01*
G01X-6757929Y4229308D01*
G01X-6764368Y4228792D01*
G01X-6765656Y4227762D01*
G01X-6766944Y4226474D01*
G01X-6768489Y4225444D01*
G01X-6770292Y4224929D01*
G01X-6772868Y4224414D01*
G01X-6775959Y4223126D01*
G01X-6777762Y4220808D01*
G01X-6778535Y4218747D01*
G01X-6779050Y4216687D01*
G01X-6779307Y4214368D01*
G01X-6779050Y4212565D01*
G01X-6778535Y4210505D01*
G01X-6778084Y4209410D01*
G01X-6777247Y4208702D01*
G01X-6774929Y4207929D01*
G01X-6770807Y4207671D01*
G01X-6768618Y4207414D01*
G01X-6767716Y4206641D01*
G01X-6767201Y4204838D01*
G01X-6766686Y4099232D01*
G01X-6765656Y4097686D01*
G37*
G36*
G01X-6776732Y3843429D02*
G01X-6750201Y3842914D01*
G01X-6730561Y3843107D01*
G01X-6723671Y3843686D01*
G01X-6722641Y3844975D01*
G01X-6722125Y3851671D01*
G01X-6722319Y3856501D01*
G01X-6722898Y3858626D01*
G01X-6724959Y3859656D01*
G01X-6727535Y3860171D01*
G01X-6744535Y3860429D01*
G01X-6756512Y3860686D01*
G01X-6761019Y3861459D01*
G01X-6761792Y3864293D01*
G01X-6761535Y3866868D01*
G01X-6759989Y3873823D01*
G01X-6757671Y3881550D01*
G01X-6756126Y3886187D01*
G01X-6754580Y3890308D01*
G01X-6753550Y3892626D01*
G01X-6752519Y3895202D01*
G01X-6748398Y3903444D01*
G01X-6747110Y3905762D01*
G01X-6745822Y3907823D01*
G01X-6744792Y3909626D01*
G01X-6743504Y3911687D01*
G01X-6740413Y3916323D01*
G01X-6739125Y3918126D01*
G01X-6736035Y3921990D01*
G01X-6734489Y3924050D01*
G01X-6732686Y3925596D01*
G01X-6731656Y3926626D01*
G01X-6730626Y3927914D01*
G01X-6729080Y3929717D01*
G01X-6726504Y3933323D01*
G01X-6725216Y3935384D01*
G01X-6724186Y3937444D01*
G01X-6723156Y3940277D01*
G01X-6722383Y3943111D01*
G01X-6722125Y3949293D01*
G01X-6722383Y3954959D01*
G01X-6722898Y3957277D01*
G01X-6723671Y3959853D01*
G01X-6724701Y3962171D01*
G01X-6725732Y3964232D01*
G01X-6726762Y3965777D01*
G01X-6729338Y3968353D01*
G01X-6731141Y3969899D01*
G01X-6733201Y3971186D01*
G01X-6735262Y3972217D01*
G01X-6737838Y3973247D01*
G01X-6740929Y3974020D01*
G01X-6743504Y3974535D01*
G01X-6747626Y3975050D01*
G01X-6751232Y3975308D01*
G01X-6754838Y3975050D01*
G01X-6758959Y3974535D01*
G01X-6761277Y3974020D01*
G01X-6763853Y3973247D01*
G01X-6766429Y3972217D01*
G01X-6768489Y3971186D01*
G01X-6769777Y3970156D01*
G01X-6771838Y3968611D01*
G01X-6773641Y3966550D01*
G01X-6774671Y3965005D01*
G01X-6775701Y3963202D01*
G01X-6776732Y3961141D01*
G01X-6777504Y3959080D01*
G01X-6778535Y3954959D01*
G01X-6779050Y3951353D01*
G01X-6779050Y3947747D01*
G01X-6777762Y3945687D01*
G01X-6775444Y3944656D01*
G01X-6770035Y3944399D01*
G01X-6765141Y3944914D01*
G01X-6763595Y3945944D01*
G01X-6762951Y3946910D01*
G01X-6762565Y3948777D01*
G01X-6762050Y3951868D01*
G01X-6761277Y3953671D01*
G01X-6759989Y3955217D01*
G01X-6758701Y3956247D01*
G01X-6756641Y3957277D01*
G01X-6753292Y3958050D01*
G01X-6749429Y3958308D01*
G01X-6746595Y3958050D01*
G01X-6744277Y3957277D01*
G01X-6742216Y3956247D01*
G01X-6741186Y3955217D01*
G01X-6739898Y3953414D01*
G01X-6738868Y3949808D01*
G01X-6738610Y3946459D01*
G01X-6738868Y3944656D01*
G01X-6739383Y3942853D01*
G01X-6740413Y3941308D01*
G01X-6746853Y3934868D01*
G01X-6748398Y3932808D01*
G01X-6750201Y3931005D01*
G01X-6757413Y3921990D01*
G01X-6758444Y3920186D01*
G01X-6761535Y3915550D01*
G01X-6762823Y3913232D01*
G01X-6764883Y3909626D01*
G01X-6766171Y3907308D01*
G01X-6767201Y3905247D01*
G01X-6767974Y3903444D01*
G01X-6771065Y3896490D01*
G01X-6774156Y3887217D01*
G01X-6774929Y3884126D01*
G01X-6775701Y3881550D01*
G01X-6776217Y3879490D01*
G01X-6776474Y3877686D01*
G01X-6777504Y3872535D01*
G01X-6778019Y3869444D01*
G01X-6778535Y3865838D01*
G01X-6778792Y3863262D01*
G01X-6779050Y3861202D01*
G01X-6779307Y3853989D01*
G01X-6778792Y3846520D01*
G01X-6777762Y3844717D01*
G01X-6776732Y3843429D01*
G37*
G36*
G01X-6756898Y3589171D02*
G01X-6750974Y3588914D01*
G01X-6744535Y3589171D01*
G01X-6739383Y3590202D01*
G01X-6737065Y3590975D01*
G01X-6734747Y3592005D01*
G01X-6732686Y3593293D01*
G01X-6730883Y3594581D01*
G01X-6729595Y3595611D01*
G01X-6728308Y3597156D01*
G01X-6727020Y3599217D01*
G01X-6725732Y3601535D01*
G01X-6724702Y3604368D01*
G01X-6723929Y3607717D01*
G01X-6723414Y3611323D01*
G01X-6723156Y3626777D01*
G01X-6723414Y3641202D01*
G01X-6723929Y3645838D01*
G01X-6724702Y3648156D01*
G01X-6725732Y3650474D01*
G01X-6726762Y3652020D01*
G01X-6728050Y3653823D01*
G01X-6729338Y3656141D01*
G01X-6729853Y3659232D01*
G01X-6729080Y3662065D01*
G01X-6727792Y3663611D01*
G01X-6726504Y3664641D01*
G01X-6725217Y3666444D01*
G01X-6724186Y3668762D01*
G01X-6723671Y3670823D01*
G01X-6723414Y3672626D01*
G01X-6723156Y3686535D01*
G01X-6723414Y3700444D01*
G01X-6723929Y3703277D01*
G01X-6724702Y3706111D01*
G01X-6726247Y3709717D01*
G01X-6727535Y3711777D01*
G01X-6729080Y3713580D01*
G01X-6730368Y3714868D01*
G01X-6731914Y3716156D01*
G01X-6733717Y3717186D01*
G01X-6735777Y3718217D01*
G01X-6738611Y3719247D01*
G01X-6741444Y3720020D01*
G01X-6744535Y3720535D01*
G01X-6752520Y3720792D01*
G01X-6759474Y3720535D01*
G01X-6764626Y3719505D01*
G01X-6766686Y3718732D01*
G01X-6769004Y3717702D01*
G01X-6771065Y3716414D01*
G01X-6772868Y3715126D01*
G01X-6774156Y3713838D01*
G01X-6775186Y3712550D01*
G01X-6776217Y3710747D01*
G01X-6777247Y3708687D01*
G01X-6778277Y3706111D01*
G01X-6779050Y3702505D01*
G01X-6779307Y3697353D01*
G01X-6779050Y3694520D01*
G01X-6778277Y3692717D01*
G01X-6775959Y3691171D01*
G01X-6772095Y3690914D01*
G01X-6768747Y3691171D01*
G01X-6766944Y3691687D01*
G01X-6764883Y3692974D01*
G01X-6764046Y3694327D01*
G01X-6763596Y3696323D01*
G01X-6762823Y3699414D01*
G01X-6761792Y3700959D01*
G01X-6760505Y3702247D01*
G01X-6758959Y3703277D01*
G01X-6756641Y3704050D01*
G01X-6754323Y3704565D01*
G01X-6750459Y3704823D01*
G01X-6746595Y3704565D01*
G01X-6744535Y3703792D01*
G01X-6742732Y3702762D01*
G01X-6741186Y3700959D01*
G01X-6739641Y3697868D01*
G01X-6739126Y3686020D01*
G01X-6739383Y3675202D01*
G01X-6740156Y3673141D01*
G01X-6741444Y3671338D01*
G01X-6742732Y3670050D01*
G01X-6744535Y3668762D01*
G01X-6748656Y3666702D01*
G01X-6750459Y3665671D01*
G01X-6751747Y3664641D01*
G01X-6753035Y3662838D01*
G01X-6753550Y3657944D01*
G01X-6753035Y3653565D01*
G01X-6752005Y3652020D01*
G01X-6750717Y3650990D01*
G01X-6749171Y3650217D01*
G01X-6746853Y3649187D01*
G01X-6744020Y3648156D01*
G01X-6742217Y3646868D01*
G01X-6741186Y3645580D01*
G01X-6740156Y3643777D01*
G01X-6739383Y3640686D01*
G01X-6739126Y3626777D01*
G01X-6739383Y3613899D01*
G01X-6740156Y3611838D01*
G01X-6741702Y3609262D01*
G01X-6744020Y3607202D01*
G01X-6746595Y3606171D01*
G01X-6748656Y3605656D01*
G01X-6752005Y3605399D01*
G01X-6755353Y3605656D01*
G01X-6757671Y3606429D01*
G01X-6759732Y3607717D01*
G01X-6760762Y3608747D01*
G01X-6762050Y3610293D01*
G01X-6763080Y3612868D01*
G01X-6763596Y3615444D01*
G01X-6764883Y3618020D01*
G01X-6765914Y3619308D01*
G01X-6771323Y3619308D01*
G01X-6775637Y3619050D01*
G01X-6777762Y3618277D01*
G01X-6779050Y3615444D01*
G01X-6779307Y3610293D01*
G01X-6779050Y3606171D01*
G01X-6778277Y3603596D01*
G01X-6777247Y3601020D01*
G01X-6776217Y3599217D01*
G01X-6775186Y3597671D01*
G01X-6774156Y3596383D01*
G01X-6772353Y3594838D01*
G01X-6770035Y3593293D01*
G01X-6767717Y3592005D01*
G01X-6764883Y3590975D01*
G01X-6761535Y3589944D01*
G01X-6756898Y3589171D01*
G37*
G36*
G01X-6742989Y3335944D02*
G01X-6741251Y3335171D01*
G01X-6737580Y3334914D01*
G01X-6732429Y3335429D01*
G01X-6731399Y3336717D01*
G01X-6730626Y3338777D01*
G01X-6730368Y3347278D01*
G01X-6730110Y3355262D01*
G01X-6729595Y3357323D01*
G01X-6729016Y3358353D01*
G01X-6727792Y3358868D01*
G01X-6725732Y3359899D01*
G01X-6724959Y3361444D01*
G01X-6724444Y3363505D01*
G01X-6724186Y3367626D01*
G01X-6724379Y3370073D01*
G01X-6724959Y3371747D01*
G01X-6725989Y3372777D01*
G01X-6727535Y3373292D01*
G01X-6729338Y3373550D01*
G01X-6730110Y3378959D01*
G01X-6730368Y3423005D01*
G01X-6730561Y3454815D01*
G01X-6731141Y3465762D01*
G01X-6732686Y3466535D01*
G01X-6741959Y3466792D01*
G01X-6748656Y3466535D01*
G01X-6751747Y3465762D01*
G01X-6753550Y3463186D01*
G01X-6755611Y3456489D01*
G01X-6756383Y3453656D01*
G01X-6756898Y3451596D01*
G01X-6757671Y3449277D01*
G01X-6758444Y3446444D01*
G01X-6758959Y3444384D01*
G01X-6759732Y3442065D01*
G01X-6760504Y3439232D01*
G01X-6761019Y3437171D01*
G01X-6761792Y3434853D01*
G01X-6762565Y3432020D01*
G01X-6763338Y3429702D01*
G01X-6764110Y3427126D01*
G01X-6764626Y3424808D01*
G01X-6765398Y3422489D01*
G01X-6766171Y3419656D01*
G01X-6766686Y3417596D01*
G01X-6767459Y3415277D01*
G01X-6768232Y3412444D01*
G01X-6768747Y3410384D01*
G01X-6769520Y3408065D01*
G01X-6770292Y3405232D01*
G01X-6771065Y3402914D01*
G01X-6771838Y3400338D01*
G01X-6772353Y3398020D01*
G01X-6773126Y3395702D01*
G01X-6773898Y3392868D01*
G01X-6774413Y3390808D01*
G01X-6775186Y3388490D01*
G01X-6775959Y3385656D01*
G01X-6776474Y3383596D01*
G01X-6777247Y3381277D01*
G01X-6778020Y3378444D01*
G01X-6778535Y3376383D01*
G01X-6778844Y3374838D01*
G01X-6764110Y3374838D01*
G01X-6764110Y3377671D01*
G01X-6763338Y3380247D01*
G01X-6761792Y3385914D01*
G01X-6761019Y3388490D01*
G01X-6760504Y3390808D01*
G01X-6759732Y3393126D01*
G01X-6758959Y3396217D01*
G01X-6757413Y3401368D01*
G01X-6756898Y3403687D01*
G01X-6756126Y3406005D01*
G01X-6755353Y3409096D01*
G01X-6753807Y3414247D01*
G01X-6753292Y3416565D01*
G01X-6752520Y3419141D01*
G01X-6751489Y3422489D01*
G01X-6749944Y3425065D01*
G01X-6747626Y3426353D01*
G01X-6745565Y3426096D01*
G01X-6744985Y3419399D01*
G01X-6744792Y3400338D01*
G01X-6744985Y3381213D01*
G01X-6745565Y3374323D01*
G01X-6747626Y3373035D01*
G01X-6755095Y3372520D01*
G01X-6761535Y3372777D01*
G01X-6761535Y3372777D01*
G01X-6762823Y3373292D01*
G01X-6763660Y3373808D01*
G01X-6764110Y3374838D01*
G01X-6778844Y3374838D01*
G01X-6779050Y3373808D01*
G01X-6779307Y3366596D01*
G01X-6779114Y3362410D01*
G01X-6778535Y3360671D01*
G01X-6776989Y3359641D01*
G01X-6762050Y3359126D01*
G01X-6746853Y3358611D01*
G01X-6745308Y3357323D01*
G01X-6744792Y3347793D01*
G01X-6744277Y3338005D01*
G01X-6742989Y3335944D01*
G37*
G36*
G01X-6675762Y2573171D02*
G01X-6673959Y2573171D01*
G01X-6672156Y2573686D01*
G01X-6669838Y2574975D01*
G01X-6668035Y2577035D01*
G01X-6667004Y2579868D01*
G01X-6666489Y2582959D01*
G01X-6666232Y2585020D01*
G01X-6664171Y2596353D01*
G01X-6663141Y2602535D01*
G01X-6662626Y2605111D01*
G01X-6662111Y2608202D01*
G01X-6661596Y2610777D01*
G01X-6661080Y2613868D01*
G01X-6660565Y2616444D01*
G01X-6658505Y2627777D01*
G01X-6657474Y2633959D01*
G01X-6656959Y2636535D01*
G01X-6656444Y2639626D01*
G01X-6655929Y2642202D01*
G01X-6655414Y2645293D01*
G01X-6654899Y2647868D01*
G01X-6652838Y2659202D01*
G01X-6651808Y2665384D01*
G01X-6651292Y2667959D01*
G01X-6650777Y2671050D01*
G01X-6650262Y2673626D01*
G01X-6649747Y2676717D01*
G01X-6649232Y2679293D01*
G01X-6647171Y2690626D01*
G01X-6646141Y2696808D01*
G01X-6645883Y2699383D01*
G01X-6646398Y2702217D01*
G01X-6647429Y2704020D01*
G01X-6649232Y2705050D01*
G01X-6654641Y2705308D01*
G01X-6658054Y2705050D01*
G01X-6660050Y2704277D01*
G01X-6661596Y2701959D01*
G01X-6662111Y2699899D01*
G01X-6662626Y2697323D01*
G01X-6667777Y2666414D01*
G01X-6668292Y2662808D01*
G01X-6671899Y2641171D01*
G01X-6672349Y2640077D01*
G01X-6673186Y2639368D01*
G01X-6674989Y2639111D01*
G01X-6676277Y2640399D01*
G01X-6677307Y2643232D01*
G01X-6677823Y2646065D01*
G01X-6678080Y2647868D01*
G01X-6678595Y2650444D01*
G01X-6679626Y2656626D01*
G01X-6680141Y2659202D01*
G01X-6681171Y2664868D01*
G01X-6682202Y2671050D01*
G01X-6682717Y2673626D01*
G01X-6683747Y2679808D01*
G01X-6684262Y2682384D01*
G01X-6685292Y2688050D01*
G01X-6686323Y2694232D01*
G01X-6686838Y2696808D01*
G01X-6687353Y2700156D01*
G01X-6688383Y2702732D01*
G01X-6689929Y2704277D01*
G01X-6691989Y2705050D01*
G01X-6696883Y2705308D01*
G01X-6699717Y2705114D01*
G01X-6701004Y2704535D01*
G01X-6702035Y2702990D01*
G01X-6703065Y2700414D01*
G01X-6703580Y2697580D01*
G01X-6703323Y2695777D01*
G01X-6702292Y2690111D01*
G01X-6700232Y2677747D01*
G01X-6699717Y2675171D01*
G01X-6697656Y2662808D01*
G01X-6697141Y2660232D01*
G01X-6695080Y2647868D01*
G01X-6694565Y2645293D01*
G01X-6692505Y2632929D01*
G01X-6691989Y2630353D01*
G01X-6689929Y2617989D01*
G01X-6689414Y2615414D01*
G01X-6687353Y2603050D01*
G01X-6686838Y2600474D01*
G01X-6684777Y2588111D01*
G01X-6684262Y2585535D01*
G01X-6683747Y2582444D01*
G01X-6683232Y2579611D01*
G01X-6681944Y2576777D01*
G01X-6679883Y2574975D01*
G01X-6677823Y2573944D01*
G01X-6675762Y2573171D01*
G37*
G36*
G01X-6753807Y2573171D02*
G01X-6749429Y2572914D01*
G01X-6745050Y2573171D01*
G01X-6741444Y2573686D01*
G01X-6738868Y2574459D01*
G01X-6736292Y2575490D01*
G01X-6734232Y2576520D01*
G01X-6732429Y2577550D01*
G01X-6731141Y2578581D01*
G01X-6729853Y2579868D01*
G01X-6727792Y2582444D01*
G01X-6726762Y2583989D01*
G01X-6725732Y2586050D01*
G01X-6724701Y2588884D01*
G01X-6723929Y2592232D01*
G01X-6723414Y2595838D01*
G01X-6723156Y2617989D01*
G01X-6723414Y2639111D01*
G01X-6723929Y2641429D01*
G01X-6724701Y2644005D01*
G01X-6725732Y2646065D01*
G01X-6727020Y2648126D01*
G01X-6728308Y2649929D01*
G01X-6730883Y2652505D01*
G01X-6732686Y2654050D01*
G01X-6734489Y2655338D01*
G01X-6736035Y2656368D01*
G01X-6737838Y2657399D01*
G01X-6739641Y2658171D01*
G01X-6741702Y2658944D01*
G01X-6744020Y2659717D01*
G01X-6748141Y2660747D01*
G01X-6750716Y2661262D01*
G01X-6753550Y2661520D01*
G01X-6755868Y2661262D01*
G01X-6758959Y2660747D01*
G01X-6762308Y2661005D01*
G01X-6763145Y2661842D01*
G01X-6763595Y2663323D01*
G01X-6763853Y2676717D01*
G01X-6763660Y2685539D01*
G01X-6763080Y2688823D01*
G01X-6761277Y2689853D01*
G01X-6743762Y2690368D01*
G01X-6726504Y2690626D01*
G01X-6724959Y2691398D01*
G01X-6723671Y2692944D01*
G01X-6723156Y2698095D01*
G01X-6723414Y2701444D01*
G01X-6724186Y2703247D01*
G01X-6726504Y2704535D01*
G01X-6751747Y2704792D01*
G01X-6776474Y2704277D01*
G01X-6778019Y2702732D01*
G01X-6778792Y2700671D01*
G01X-6779050Y2698868D01*
G01X-6779307Y2667959D01*
G01X-6779050Y2637050D01*
G01X-6778535Y2635247D01*
G01X-6778019Y2634346D01*
G01X-6776989Y2633702D01*
G01X-6773383Y2633187D01*
G01X-6770292Y2633444D01*
G01X-6766686Y2633959D01*
G01X-6765141Y2634732D01*
G01X-6764110Y2636535D01*
G01X-6763595Y2639111D01*
G01X-6762823Y2640914D01*
G01X-6761535Y2642717D01*
G01X-6759989Y2644262D01*
G01X-6758701Y2645035D01*
G01X-6756898Y2646065D01*
G01X-6754323Y2646838D01*
G01X-6751232Y2647353D01*
G01X-6748656Y2647353D01*
G01X-6746338Y2646838D01*
G01X-6743504Y2645808D01*
G01X-6741702Y2644520D01*
G01X-6740156Y2642717D01*
G01X-6738611Y2640656D01*
G01X-6737580Y2638080D01*
G01X-6737065Y2615929D01*
G01X-6737580Y2594808D01*
G01X-6738611Y2593262D01*
G01X-6739898Y2591974D01*
G01X-6741444Y2590944D01*
G01X-6744020Y2589914D01*
G01X-6748141Y2589141D01*
G01X-6751489Y2588884D01*
G01X-6753292Y2589141D01*
G01X-6755353Y2589656D01*
G01X-6757413Y2590429D01*
G01X-6759474Y2591717D01*
G01X-6761535Y2593777D01*
G01X-6762823Y2595838D01*
G01X-6763853Y2597641D01*
G01X-6765656Y2599444D01*
G01X-6768747Y2600732D01*
G01X-6773383Y2601247D01*
G01X-6775766Y2600989D01*
G01X-6777247Y2600217D01*
G01X-6778535Y2597899D01*
G01X-6778792Y2595065D01*
G01X-6778535Y2592747D01*
G01X-6778019Y2590944D01*
G01X-6777247Y2588884D01*
G01X-6776217Y2586565D01*
G01X-6775186Y2584762D01*
G01X-6774156Y2583217D01*
G01X-6772868Y2581671D01*
G01X-6771580Y2580383D01*
G01X-6770035Y2579096D01*
G01X-6767974Y2577808D01*
G01X-6765656Y2576520D01*
G01X-6763080Y2575490D01*
G01X-6759989Y2574459D01*
G01X-6756383Y2573686D01*
G01X-6753807Y2573171D01*
G37*
G36*
G01X-6753035Y2826914D02*
G01X-6758444Y2827171D01*
G01X-6760762Y2827686D01*
G01X-6763853Y2828459D01*
G01X-6766171Y2829490D01*
G01X-6768232Y2830520D01*
G01X-6770035Y2831550D01*
G01X-6771580Y2832838D01*
G01X-6774156Y2835414D01*
G01X-6775444Y2837217D01*
G01X-6776474Y2839278D01*
G01X-6777247Y2841080D01*
G01X-6778020Y2843399D01*
G01X-6778535Y2845717D01*
G01X-6779050Y2849838D01*
G01X-6779307Y2892338D01*
G01X-6779050Y2934838D01*
G01X-6778535Y2938959D01*
G01X-6778020Y2941792D01*
G01X-6777247Y2944883D01*
G01X-6776217Y2947202D01*
G01X-6775186Y2949262D01*
G01X-6773899Y2951323D01*
G01X-6772353Y2953126D01*
G01X-6771065Y2954414D01*
G01X-6769520Y2955702D01*
G01X-6767974Y2956732D01*
G01X-6766429Y2957505D01*
G01X-6764368Y2958277D01*
G01X-6762050Y2959050D01*
G01X-6759989Y2959565D01*
G01X-6753550Y2959823D01*
G01X-6747111Y2959565D01*
G01X-6744535Y2959050D01*
G01X-6741186Y2958277D01*
G01X-6738353Y2957247D01*
G01X-6735777Y2955959D01*
G01X-6733974Y2954671D01*
G01X-6732686Y2953899D01*
G01X-6730883Y2952353D01*
G01X-6729338Y2950293D01*
G01X-6728308Y2948747D01*
G01X-6727277Y2946687D01*
G01X-6726247Y2944368D01*
G01X-6725474Y2941535D01*
G01X-6724959Y2938959D01*
G01X-6724702Y2935095D01*
G01X-6724959Y2932520D01*
G01X-6725732Y2930974D01*
G01X-6728565Y2929687D01*
G01X-6732686Y2929687D01*
G01X-6736292Y2930459D01*
G01X-6738095Y2931747D01*
G01X-6738611Y2934065D01*
G01X-6739126Y2937414D01*
G01X-6740156Y2939990D01*
G01X-6741186Y2941535D01*
G01X-6742474Y2942823D01*
G01X-6744535Y2944111D01*
G01X-6747368Y2945141D01*
G01X-6749686Y2945656D01*
G01X-6752262Y2945914D01*
G01X-6754838Y2945656D01*
G01X-6756641Y2945398D01*
G01X-6758444Y2944883D01*
G01X-6760505Y2943853D01*
G01X-6762823Y2942050D01*
G01X-6764368Y2939217D01*
G01X-6765141Y2936899D01*
G01X-6765398Y2894656D01*
G01X-6765141Y2851899D01*
G01X-6764626Y2849838D01*
G01X-6764111Y2848035D01*
G01X-6763080Y2846490D01*
G01X-6761792Y2845202D01*
G01X-6759989Y2843914D01*
G01X-6757929Y2843141D01*
G01X-6753808Y2842884D01*
G01X-6748656Y2843141D01*
G01X-6745308Y2843914D01*
G01X-6742474Y2845202D01*
G01X-6740671Y2846747D01*
G01X-6739383Y2848808D01*
G01X-6738611Y2851126D01*
G01X-6738353Y2852929D01*
G01X-6738095Y2859368D01*
G01X-6738353Y2867353D01*
G01X-6738868Y2870959D01*
G01X-6739641Y2873020D01*
G01X-6740671Y2874565D01*
G01X-6742474Y2875853D01*
G01X-6744535Y2876626D01*
G01X-6746595Y2876884D01*
G01X-6749171Y2877141D01*
G01X-6751489Y2878429D01*
G01X-6752777Y2881005D01*
G01X-6752777Y2883323D01*
G01X-6752262Y2885641D01*
G01X-6751747Y2887058D01*
G01X-6750717Y2888217D01*
G01X-6747239Y2888990D01*
G01X-6739383Y2889247D01*
G01X-6728050Y2888732D01*
G01X-6725732Y2887187D01*
G01X-6724959Y2881842D01*
G01X-6724702Y2867868D01*
G01X-6724959Y2848808D01*
G01X-6725474Y2845974D01*
G01X-6726247Y2842884D01*
G01X-6727277Y2840565D01*
G01X-6728308Y2838505D01*
G01X-6729338Y2836702D01*
G01X-6730626Y2835156D01*
G01X-6733717Y2832065D01*
G01X-6736035Y2830520D01*
G01X-6738095Y2829490D01*
G01X-6740929Y2828459D01*
G01X-6743504Y2827686D01*
G01X-6747111Y2827171D01*
G01X-6753035Y2826914D01*
G37*
G36*
G01X-6611368Y2826914D02*
G01X-6628626Y2827429D01*
G01X-6629914Y2829232D01*
G01X-6630687Y2831293D01*
G01X-6630944Y2892338D01*
G01X-6630940Y2893368D01*
G01X-6615489Y2893368D01*
G01X-6615232Y2847777D01*
G01X-6614717Y2845974D01*
G01X-6613687Y2844686D01*
G01X-6613687Y2844686D01*
G01X-6612656Y2844171D01*
G01X-6606217Y2843914D01*
G01X-6598232Y2844171D01*
G01X-6595656Y2844944D01*
G01X-6594111Y2845974D01*
G01X-6592823Y2847262D01*
G01X-6591793Y2849065D01*
G01X-6591277Y2851383D01*
G01X-6591020Y2853444D01*
G01X-6590762Y2891823D01*
G01X-6591020Y2930202D01*
G01X-6591277Y2933035D01*
G01X-6591793Y2936126D01*
G01X-6592823Y2938444D01*
G01X-6594111Y2940247D01*
G01X-6596171Y2941535D01*
G01X-6598812Y2942115D01*
G01X-6604156Y2942308D01*
G01X-6612141Y2942050D01*
G01X-6613944Y2941020D01*
G01X-6614974Y2939217D01*
G01X-6615489Y2893368D01*
G01X-6630940Y2893368D01*
G01X-6630687Y2953383D01*
G01X-6630171Y2955702D01*
G01X-6628883Y2958277D01*
G01X-6624698Y2959050D01*
G01X-6614202Y2959308D01*
G01X-6599777Y2959050D01*
G01X-6594626Y2958535D01*
G01X-6592050Y2958020D01*
G01X-6589217Y2957247D01*
G01X-6587156Y2956474D01*
G01X-6585611Y2955702D01*
G01X-6583808Y2954414D01*
G01X-6582005Y2952868D01*
G01X-6580717Y2951580D01*
G01X-6579429Y2950035D01*
G01X-6578399Y2948232D01*
G01X-6577626Y2945914D01*
G01X-6576853Y2943338D01*
G01X-6576338Y2894656D01*
G01X-6576595Y2845202D01*
G01X-6577111Y2842626D01*
G01X-6577626Y2840565D01*
G01X-6578399Y2838505D01*
G01X-6579171Y2836702D01*
G01X-6580201Y2835156D01*
G01X-6582262Y2832581D01*
G01X-6584323Y2831035D01*
G01X-6586898Y2829490D01*
G01X-6589217Y2828459D01*
G01X-6591793Y2827686D01*
G01X-6594111Y2827171D01*
G01X-6611368Y2826914D01*
G37*
G36*
G01X-6696883Y2826914D02*
G01X-6702035Y2827171D01*
G01X-6703580Y2828459D01*
G01X-6704353Y2845009D01*
G01X-6704611Y2892596D01*
G01X-6704096Y2956732D01*
G01X-6702808Y2958535D01*
G01X-6701133Y2959114D01*
G01X-6697656Y2959308D01*
G01X-6692247Y2958792D01*
G01X-6690702Y2957762D01*
G01X-6689414Y2955959D01*
G01X-6688383Y2953383D01*
G01X-6687611Y2951065D01*
G01X-6686065Y2945914D01*
G01X-6685292Y2943596D01*
G01X-6684520Y2940762D01*
G01X-6682717Y2935353D01*
G01X-6682202Y2933293D01*
G01X-6681429Y2930974D01*
G01X-6679883Y2925823D01*
G01X-6679111Y2923505D01*
G01X-6678338Y2920671D01*
G01X-6676535Y2915262D01*
G01X-6676020Y2913202D01*
G01X-6675247Y2910883D01*
G01X-6673702Y2905732D01*
G01X-6672929Y2903414D01*
G01X-6672156Y2900580D01*
G01X-6671126Y2897490D01*
G01X-6670095Y2895171D01*
G01X-6669065Y2893111D01*
G01X-6668421Y2892080D01*
G01X-6667520Y2891565D01*
G01X-6666554Y2891565D01*
G01X-6665717Y2892080D01*
G01X-6665137Y2900065D01*
G01X-6664944Y2922474D01*
G01X-6664686Y2954414D01*
G01X-6663914Y2957505D01*
G01X-6662883Y2958792D01*
G01X-6657989Y2959308D01*
G01X-6652323Y2959050D01*
G01X-6650262Y2957762D01*
G01X-6649683Y2941084D01*
G01X-6649489Y2893111D01*
G01X-6650004Y2828717D01*
G01X-6651035Y2827429D01*
G01X-6656186Y2826914D01*
G01X-6662368Y2827429D01*
G01X-6664944Y2829232D01*
G01X-6666232Y2831550D01*
G01X-6667005Y2834126D01*
G01X-6668035Y2837474D01*
G01X-6669065Y2841080D01*
G01X-6670095Y2844429D01*
G01X-6670868Y2846747D01*
G01X-6671383Y2848808D01*
G01X-6672156Y2851641D01*
G01X-6673186Y2854989D01*
G01X-6674217Y2858596D01*
G01X-6675247Y2861944D01*
G01X-6676020Y2864262D01*
G01X-6676535Y2866323D01*
G01X-6677308Y2869156D01*
G01X-6678338Y2872505D01*
G01X-6680399Y2879717D01*
G01X-6681429Y2883065D01*
G01X-6682202Y2885383D01*
G01X-6682717Y2887444D01*
G01X-6683489Y2890277D01*
G01X-6684520Y2893111D01*
G01X-6685164Y2894141D01*
G01X-6686065Y2894656D01*
G01X-6686967Y2894656D01*
G01X-6687611Y2894141D01*
G01X-6688383Y2892596D01*
G01X-6688641Y2861686D01*
G01X-6689156Y2830005D01*
G01X-6689864Y2828652D01*
G01X-6690959Y2827686D01*
G01X-6693084Y2827107D01*
G01X-6696883Y2826914D01*
G37*
G36*
G01X-6555732Y3081429D02*
G01X-6552383Y3081429D01*
G01X-6549550Y3082459D01*
G01X-6547747Y3084262D01*
G01X-6546459Y3086838D01*
G01X-6545944Y3089414D01*
G01X-6545686Y3091474D01*
G01X-6542595Y3108474D01*
G01X-6541565Y3114656D01*
G01X-6541050Y3117232D01*
G01X-6540535Y3120323D01*
G01X-6540020Y3122899D01*
G01X-6539505Y3125989D01*
G01X-6538989Y3128565D01*
G01X-6536929Y3139899D01*
G01X-6535899Y3146080D01*
G01X-6535383Y3148656D01*
G01X-6534868Y3151747D01*
G01X-6534353Y3154323D01*
G01X-6533838Y3157414D01*
G01X-6533323Y3159990D01*
G01X-6532292Y3165656D01*
G01X-6531262Y3171838D01*
G01X-6530747Y3174414D01*
G01X-6530232Y3177505D01*
G01X-6529717Y3180081D01*
G01X-6529202Y3183171D01*
G01X-6528686Y3185747D01*
G01X-6526626Y3197080D01*
G01X-6525595Y3203262D01*
G01X-6525080Y3205838D01*
G01X-6525080Y3208414D01*
G01X-6525853Y3210474D01*
G01X-6527141Y3212277D01*
G01X-6528686Y3213050D01*
G01X-6533838Y3213308D01*
G01X-6537379Y3213050D01*
G01X-6539247Y3212277D01*
G01X-6540792Y3209959D01*
G01X-6541565Y3206868D01*
G01X-6544656Y3188323D01*
G01X-6545171Y3184717D01*
G01X-6550323Y3153808D01*
G01X-6550838Y3150202D01*
G01X-6551610Y3147883D01*
G01X-6552899Y3147111D01*
G01X-6554444Y3147368D01*
G01X-6555732Y3149171D01*
G01X-6556505Y3151747D01*
G01X-6557020Y3154323D01*
G01X-6557535Y3157414D01*
G01X-6558050Y3159990D01*
G01X-6559080Y3166171D01*
G01X-6559595Y3168747D01*
G01X-6560626Y3174929D01*
G01X-6561141Y3177505D01*
G01X-6562171Y3183171D01*
G01X-6563202Y3189353D01*
G01X-6563717Y3191929D01*
G01X-6564232Y3195020D01*
G01X-6564747Y3197596D01*
G01X-6565777Y3203777D01*
G01X-6566808Y3208929D01*
G01X-6568095Y3211505D01*
G01X-6569319Y3212535D01*
G01X-6570929Y3213050D01*
G01X-6576080Y3213308D01*
G01X-6578720Y3213114D01*
G01X-6579944Y3212535D01*
G01X-6580974Y3211247D01*
G01X-6582004Y3208929D01*
G01X-6582520Y3205065D01*
G01X-6582262Y3202232D01*
G01X-6581747Y3199656D01*
G01X-6579686Y3187293D01*
G01X-6579171Y3184717D01*
G01X-6577111Y3172353D01*
G01X-6576595Y3169778D01*
G01X-6575050Y3160505D01*
G01X-6574535Y3157929D01*
G01X-6572474Y3145565D01*
G01X-6571959Y3142990D01*
G01X-6569898Y3130626D01*
G01X-6569383Y3128050D01*
G01X-6567323Y3115686D01*
G01X-6566808Y3113111D01*
G01X-6564747Y3100747D01*
G01X-6564232Y3098171D01*
G01X-6563202Y3091989D01*
G01X-6562686Y3088641D01*
G01X-6561913Y3085808D01*
G01X-6560883Y3084262D01*
G01X-6559595Y3083232D01*
G01X-6558050Y3082459D01*
G01X-6555732Y3081429D01*
G37*
G36*
G01X-6757671Y3081171D02*
G01X-6750974Y3080914D01*
G01X-6744535Y3081171D01*
G01X-6740929Y3081686D01*
G01X-6738353Y3082459D01*
G01X-6735519Y3083490D01*
G01X-6733459Y3084520D01*
G01X-6731141Y3086065D01*
G01X-6728050Y3089156D01*
G01X-6726762Y3090959D01*
G01X-6725732Y3093020D01*
G01X-6724701Y3095338D01*
G01X-6723929Y3098171D01*
G01X-6723414Y3100747D01*
G01X-6723156Y3119035D01*
G01X-6723414Y3136808D01*
G01X-6723929Y3138868D01*
G01X-6724701Y3140929D01*
G01X-6725732Y3142990D01*
G01X-6727020Y3144793D01*
G01X-6728050Y3146080D01*
G01X-6728822Y3147626D01*
G01X-6729595Y3149944D01*
G01X-6729595Y3152262D01*
G01X-6728822Y3154065D01*
G01X-6727020Y3155868D01*
G01X-6725216Y3157929D01*
G01X-6724186Y3159990D01*
G01X-6723414Y3162565D01*
G01X-6722898Y3166171D01*
G01X-6722641Y3178792D01*
G01X-6722898Y3190384D01*
G01X-6723414Y3195020D01*
G01X-6724186Y3197596D01*
G01X-6725216Y3200687D01*
G01X-6726247Y3202489D01*
G01X-6727535Y3204293D01*
G01X-6729080Y3206095D01*
G01X-6731656Y3208156D01*
G01X-6733201Y3209186D01*
G01X-6735262Y3210217D01*
G01X-6738095Y3211247D01*
G01X-6741444Y3212020D01*
G01X-6744020Y3212535D01*
G01X-6751489Y3212792D01*
G01X-6758959Y3212535D01*
G01X-6761792Y3212020D01*
G01X-6764883Y3211247D01*
G01X-6766944Y3210474D01*
G01X-6768747Y3209702D01*
G01X-6770807Y3208414D01*
G01X-6772611Y3206868D01*
G01X-6773898Y3205580D01*
G01X-6775186Y3204035D01*
G01X-6776217Y3202232D01*
G01X-6777247Y3199914D01*
G01X-6778019Y3197596D01*
G01X-6778535Y3195020D01*
G01X-6778792Y3191929D01*
G01X-6779050Y3189868D01*
G01X-6779050Y3188323D01*
G01X-6778535Y3186262D01*
G01X-6777504Y3184202D01*
G01X-6775444Y3183171D01*
G01X-6771580Y3182914D01*
G01X-6768232Y3183171D01*
G01X-6766429Y3183687D01*
G01X-6764368Y3184974D01*
G01X-6763595Y3186133D01*
G01X-6763338Y3187550D01*
G01X-6763080Y3189868D01*
G01X-6762307Y3191929D01*
G01X-6761019Y3193732D01*
G01X-6759474Y3194762D01*
G01X-6757413Y3195792D01*
G01X-6754323Y3196565D01*
G01X-6749944Y3196823D01*
G01X-6746595Y3196565D01*
G01X-6744277Y3195792D01*
G01X-6742216Y3194505D01*
G01X-6740929Y3193217D01*
G01X-6739898Y3191671D01*
G01X-6739383Y3189868D01*
G01X-6738868Y3187293D01*
G01X-6738610Y3177247D01*
G01X-6738868Y3168232D01*
G01X-6739383Y3166171D01*
G01X-6740156Y3164368D01*
G01X-6741186Y3163081D01*
G01X-6742474Y3161793D01*
G01X-6744020Y3160762D01*
G01X-6748141Y3158702D01*
G01X-6749944Y3157671D01*
G01X-6751489Y3156384D01*
G01X-6752520Y3155096D01*
G01X-6753035Y3150202D01*
G01X-6752777Y3146596D01*
G01X-6752004Y3144535D01*
G01X-6750201Y3142990D01*
G01X-6748656Y3142217D01*
G01X-6746338Y3141187D01*
G01X-6743762Y3140156D01*
G01X-6741701Y3138611D01*
G01X-6740156Y3136293D01*
G01X-6739383Y3134232D01*
G01X-6738868Y3131656D01*
G01X-6738610Y3118777D01*
G01X-6738868Y3106929D01*
G01X-6739383Y3104868D01*
G01X-6740413Y3102550D01*
G01X-6741701Y3100747D01*
G01X-6743504Y3099459D01*
G01X-6745565Y3098429D01*
G01X-6748141Y3097656D01*
G01X-6752004Y3097399D01*
G01X-6754838Y3097656D01*
G01X-6757156Y3098429D01*
G01X-6759989Y3099974D01*
G01X-6761535Y3101777D01*
G01X-6762307Y3103581D01*
G01X-6763080Y3106671D01*
G01X-6763853Y3109247D01*
G01X-6764883Y3110535D01*
G01X-6766686Y3111114D01*
G01X-6771065Y3111308D01*
G01X-6775444Y3111114D01*
G01X-6777247Y3110535D01*
G01X-6778277Y3108989D01*
G01X-6778792Y3107187D01*
G01X-6779050Y3105383D01*
G01X-6779307Y3103323D01*
G01X-6779050Y3101262D01*
G01X-6778535Y3097656D01*
G01X-6777762Y3095338D01*
G01X-6776732Y3092505D01*
G01X-6775701Y3090702D01*
G01X-6774671Y3089414D01*
G01X-6772095Y3086838D01*
G01X-6770807Y3085808D01*
G01X-6767201Y3084005D01*
G01X-6764883Y3082975D01*
G01X-6762050Y3082202D01*
G01X-6759474Y3081686D01*
G01X-6757671Y3081171D01*
G37*
G36*
G01X-6635323Y3081171D02*
G01X-6628883Y3080914D01*
G01X-6622444Y3081171D01*
G01X-6619611Y3081686D01*
G01X-6616520Y3082459D01*
G01X-6614459Y3083232D01*
G01X-6612656Y3084005D01*
G01X-6610853Y3085035D01*
G01X-6609308Y3086065D01*
G01X-6608020Y3087096D01*
G01X-6606732Y3088383D01*
G01X-6605444Y3090187D01*
G01X-6604156Y3092505D01*
G01X-6603126Y3094565D01*
G01X-6602353Y3096884D01*
G01X-6601838Y3099202D01*
G01X-6601323Y3102293D01*
G01X-6601065Y3119292D01*
G01X-6601323Y3134747D01*
G01X-6601580Y3136550D01*
G01X-6602095Y3138611D01*
G01X-6602868Y3140671D01*
G01X-6603898Y3142990D01*
G01X-6606989Y3147626D01*
G01X-6607762Y3150717D01*
G01X-6606989Y3153808D01*
G01X-6605444Y3155611D01*
G01X-6604156Y3156899D01*
G01X-6603126Y3158444D01*
G01X-6602095Y3160505D01*
G01X-6601323Y3163596D01*
G01X-6601065Y3179050D01*
G01X-6601323Y3193474D01*
G01X-6601838Y3195792D01*
G01X-6602611Y3198368D01*
G01X-6603383Y3200429D01*
G01X-6604414Y3202489D01*
G01X-6605701Y3204293D01*
G01X-6608277Y3206868D01*
G01X-6610080Y3208414D01*
G01X-6614717Y3210732D01*
G01X-6617035Y3211505D01*
G01X-6619353Y3212020D01*
G01X-6622444Y3212535D01*
G01X-6630686Y3212792D01*
G01X-6637383Y3212535D01*
G01X-6639959Y3212020D01*
G01X-6642792Y3211247D01*
G01X-6644853Y3210474D01*
G01X-6646656Y3209702D01*
G01X-6648459Y3208671D01*
G01X-6650004Y3207641D01*
G01X-6651292Y3206611D01*
G01X-6652580Y3205065D01*
G01X-6653611Y3203520D01*
G01X-6654641Y3201717D01*
G01X-6655671Y3199398D01*
G01X-6656444Y3196308D01*
G01X-6656959Y3193474D01*
G01X-6657217Y3189611D01*
G01X-6657023Y3186971D01*
G01X-6656444Y3185232D01*
G01X-6654383Y3183429D01*
G01X-6650004Y3182914D01*
G01X-6646141Y3183171D01*
G01X-6644080Y3183944D01*
G01X-6642019Y3185747D01*
G01X-6641247Y3188580D01*
G01X-6640732Y3191156D01*
G01X-6639701Y3192959D01*
G01X-6637898Y3194505D01*
G01X-6635580Y3195792D01*
G01X-6632232Y3196565D01*
G01X-6627595Y3196823D01*
G01X-6624504Y3196565D01*
G01X-6622444Y3195792D01*
G01X-6620126Y3194247D01*
G01X-6618323Y3191929D01*
G01X-6617292Y3188838D01*
G01X-6617035Y3177247D01*
G01X-6617550Y3166429D01*
G01X-6618580Y3164368D01*
G01X-6619868Y3162565D01*
G01X-6621413Y3161277D01*
G01X-6622959Y3160247D01*
G01X-6626565Y3158702D01*
G01X-6628626Y3157414D01*
G01X-6630429Y3155353D01*
G01X-6631201Y3153293D01*
G01X-6631459Y3149687D01*
G01X-6631266Y3147240D01*
G01X-6630686Y3145565D01*
G01X-6629141Y3143762D01*
G01X-6627338Y3142474D01*
G01X-6625277Y3141444D01*
G01X-6623217Y3140671D01*
G01X-6621156Y3139641D01*
G01X-6619611Y3138353D01*
G01X-6618580Y3136808D01*
G01X-6617550Y3134490D01*
G01X-6617035Y3119550D01*
G01X-6617292Y3105383D01*
G01X-6618065Y3103323D01*
G01X-6619353Y3101520D01*
G01X-6620641Y3100232D01*
G01X-6622444Y3098944D01*
G01X-6624504Y3098171D01*
G01X-6626565Y3097656D01*
G01X-6630171Y3097399D01*
G01X-6633262Y3097656D01*
G01X-6635323Y3098429D01*
G01X-6637898Y3099974D01*
G01X-6639959Y3102293D01*
G01X-6640989Y3105383D01*
G01X-6641762Y3108474D01*
G01X-6643050Y3110277D01*
G01X-6644595Y3111050D01*
G01X-6650004Y3111308D01*
G01X-6653675Y3111114D01*
G01X-6655413Y3110535D01*
G01X-6656701Y3108474D01*
G01X-6657217Y3103581D01*
G01X-6656959Y3099202D01*
G01X-6656444Y3096884D01*
G01X-6655671Y3094308D01*
G01X-6654641Y3092247D01*
G01X-6653095Y3089929D01*
G01X-6650777Y3087611D01*
G01X-6648974Y3086065D01*
G01X-6647429Y3085035D01*
G01X-6645368Y3084005D01*
G01X-6642792Y3082975D01*
G01X-6639959Y3082202D01*
G01X-6637383Y3081686D01*
G01X-6635323Y3081171D01*
G37*
G36*
G01X-6510900Y3761083D02*
G01X-6519900Y3761833D01*
G01X-6522233Y3763833D01*
G01X-6523233Y3765833D01*
G01X-6523567Y3845500D01*
G01X-6523233Y3925833D01*
G01X-6522567Y3928500D01*
G01X-6521567Y3930500D01*
G01X-6513067Y3931250D01*
G01X-6488900Y3931500D01*
G01X-6455900Y3931167D01*
G01X-6453567Y3930500D01*
G01X-6451567Y3928833D01*
G01X-6450567Y3926500D01*
G01X-6450233Y3923167D01*
G01X-6450567Y3918500D01*
G01X-6451567Y3914500D01*
G01X-6453900Y3911833D01*
G01X-6460733Y3911083D01*
G01X-6494983Y3910583D01*
G01X-6501567Y3909833D01*
G01X-6502567Y3904000D01*
G01X-6502900Y3888500D01*
G01X-6502567Y3865834D01*
G01X-6500900Y3862167D01*
G01X-6497150Y3861167D01*
G01X-6488567Y3860834D01*
G01X-6475233Y3860500D01*
G01X-6473233Y3859834D01*
G01X-6471900Y3858500D01*
G01X-6471150Y3855917D01*
G01X-6470900Y3851500D01*
G01X-6471233Y3844500D01*
G01X-6472900Y3841500D01*
G01X-6476567Y3840500D01*
G01X-6484900Y3840167D01*
G01X-6497900Y3839834D01*
G01X-6500900Y3838834D01*
G01X-6502233Y3836833D01*
G01X-6502900Y3811500D01*
G01X-6502567Y3785833D01*
G01X-6501233Y3783167D01*
G01X-6495400Y3782417D01*
G01X-6479900Y3782167D01*
G01X-6457233Y3781833D01*
G01X-6453567Y3780500D01*
G01X-6451567Y3778500D01*
G01X-6450900Y3772167D01*
G01X-6451567Y3765167D01*
G01X-6452900Y3762833D01*
G01X-6454900Y3761500D01*
G01X-6487233Y3760833D01*
G01X-6510900Y3761083D01*
G37*
G36*
G01X-6324567Y3761167D02*
G01X-6327233Y3762167D01*
G01X-6329233Y3764833D01*
G01X-6329900Y3767167D01*
G01X-6330233Y3844834D01*
G01X-6330042Y3889833D01*
G01X-6309567Y3889833D01*
G01X-6309233Y3869834D01*
G01X-6308567Y3866500D01*
G01X-6307900Y3864167D01*
G01X-6307317Y3863083D01*
G01X-6306233Y3862500D01*
G01X-6306233Y3862500D01*
G01X-6304567Y3861834D01*
G01X-6297233Y3861500D01*
G01X-6288567Y3861834D01*
G01X-6285233Y3862500D01*
G01X-6282567Y3863500D01*
G01X-6280567Y3864834D01*
G01X-6278567Y3867167D01*
G01X-6277817Y3872500D01*
G01X-6277567Y3885167D01*
G01X-6278233Y3903500D01*
G01X-6279567Y3906500D01*
G01X-6280900Y3908500D01*
G01X-6283233Y3910167D01*
G01X-6286233Y3911500D01*
G01X-6289233Y3912167D01*
G01X-6291900Y3912500D01*
G01X-6296233Y3912833D01*
G01X-6300567Y3912500D01*
G01X-6302900Y3912167D01*
G01X-6305900Y3911500D01*
G01X-6308567Y3909167D01*
G01X-6309317Y3903500D01*
G01X-6309567Y3889833D01*
G01X-6330042Y3889833D01*
G01X-6329900Y3923167D01*
G01X-6329233Y3927167D01*
G01X-6327567Y3930833D01*
G01X-6322317Y3931833D01*
G01X-6309233Y3932167D01*
G01X-6289233Y3931833D01*
G01X-6284567Y3931167D01*
G01X-6281233Y3930500D01*
G01X-6277567Y3929500D01*
G01X-6273900Y3928167D01*
G01X-6269233Y3925833D01*
G01X-6267567Y3924500D01*
G01X-6264233Y3921167D01*
G01X-6262900Y3919500D01*
G01X-6261567Y3917167D01*
G01X-6260233Y3914167D01*
G01X-6259233Y3911167D01*
G01X-6258567Y3908500D01*
G01X-6258233Y3887500D01*
G01X-6258567Y3866500D01*
G01X-6259233Y3862834D01*
G01X-6260233Y3858834D01*
G01X-6261567Y3855834D01*
G01X-6262900Y3853500D01*
G01X-6265567Y3850167D01*
G01X-6266900Y3848834D01*
G01X-6269233Y3847167D01*
G01X-6272233Y3845500D01*
G01X-6275900Y3844167D01*
G01X-6279233Y3843167D01*
G01X-6286567Y3842500D01*
G01X-6295900Y3842167D01*
G01X-6305900Y3841500D01*
G01X-6308233Y3839500D01*
G01X-6309233Y3837167D01*
G01X-6309567Y3801167D01*
G01X-6310233Y3764833D01*
G01X-6311567Y3762833D01*
G01X-6313233Y3761500D01*
G01X-6319900Y3760833D01*
G01X-6324567Y3761167D01*
G37*
G36*
G01X-6391900Y3760833D02*
G01X-6400233Y3761167D01*
G01X-6402567Y3761833D01*
G01X-6405567Y3762500D01*
G01X-6408900Y3763500D01*
G01X-6411567Y3764500D01*
G01X-6414233Y3765833D01*
G01X-6416567Y3767167D01*
G01X-6418233Y3768500D01*
G01X-6421567Y3771833D01*
G01X-6422900Y3773500D01*
G01X-6424233Y3775833D01*
G01X-6425567Y3778833D01*
G01X-6426567Y3782500D01*
G01X-6427233Y3785833D01*
G01X-6427567Y3788500D01*
G01X-6427233Y3792500D01*
G01X-6425900Y3795500D01*
G01X-6423567Y3796833D01*
G01X-6417567Y3797500D01*
G01X-6411233Y3797167D01*
G01X-6407900Y3796167D01*
G01X-6405900Y3794500D01*
G01X-6405233Y3790500D01*
G01X-6404233Y3786500D01*
G01X-6403233Y3784500D01*
G01X-6401900Y3782833D01*
G01X-6399900Y3781500D01*
G01X-6397233Y3780500D01*
G01X-6394567Y3779833D01*
G01X-6391900Y3779500D01*
G01X-6389233Y3779833D01*
G01X-6386900Y3780167D01*
G01X-6383900Y3780833D01*
G01X-6381233Y3782167D01*
G01X-6379233Y3783500D01*
G01X-6377567Y3785500D01*
G01X-6376567Y3787833D01*
G01X-6376233Y3792167D01*
G01X-6376567Y3797833D01*
G01X-6377233Y3801167D01*
G01X-6377567Y3803500D01*
G01X-6378233Y3806167D01*
G01X-6380233Y3812833D01*
G01X-6382900Y3819500D01*
G01X-6384233Y3822500D01*
G01X-6385567Y3825167D01*
G01X-6386900Y3827500D01*
G01X-6388567Y3830167D01*
G01X-6390567Y3833167D01*
G01X-6392900Y3836500D01*
G01X-6394900Y3839167D01*
G01X-6396567Y3840834D01*
G01X-6399900Y3844834D01*
G01X-6401567Y3846500D01*
G01X-6403900Y3848500D01*
G01X-6406567Y3851167D01*
G01X-6412567Y3858167D01*
G01X-6415900Y3862167D01*
G01X-6417567Y3863834D01*
G01X-6420233Y3867167D01*
G01X-6421900Y3869834D01*
G01X-6423567Y3873167D01*
G01X-6424900Y3876167D01*
G01X-6425900Y3879500D01*
G01X-6426567Y3882500D01*
G01X-6427233Y3887167D01*
G01X-6427567Y3893500D01*
G01X-6427233Y3901833D01*
G01X-6426567Y3905833D01*
G01X-6425900Y3908833D01*
G01X-6424900Y3912500D01*
G01X-6423567Y3915833D01*
G01X-6421900Y3918833D01*
G01X-6420233Y3921167D01*
G01X-6416900Y3924500D01*
G01X-6414567Y3926500D01*
G01X-6411900Y3928167D01*
G01X-6409567Y3929167D01*
G01X-6406900Y3930167D01*
G01X-6403567Y3931167D01*
G01X-6400567Y3931833D01*
G01X-6392233Y3932167D01*
G01X-6383900Y3931833D01*
G01X-6380233Y3931167D01*
G01X-6376233Y3930167D01*
G01X-6373233Y3928833D01*
G01X-6370567Y3927500D01*
G01X-6367900Y3925833D01*
G01X-6365567Y3923833D01*
G01X-6363900Y3922167D01*
G01X-6361900Y3919833D01*
G01X-6360233Y3917167D01*
G01X-6359233Y3914833D01*
G01X-6358233Y3912167D01*
G01X-6357233Y3908833D01*
G01X-6356567Y3905833D01*
G01X-6356233Y3899833D01*
G01X-6356567Y3892500D01*
G01X-6357233Y3890417D01*
G01X-6358567Y3888833D01*
G01X-6360900Y3887833D01*
G01X-6364567Y3887500D01*
G01X-6371233Y3887833D01*
G01X-6374233Y3889167D01*
G01X-6375567Y3891167D01*
G01X-6376233Y3894167D01*
G01X-6376567Y3899167D01*
G01X-6377567Y3903833D01*
G01X-6378900Y3906500D01*
G01X-6380233Y3908500D01*
G01X-6382233Y3910167D01*
G01X-6384567Y3911500D01*
G01X-6387233Y3912167D01*
G01X-6389900Y3912500D01*
G01X-6391567Y3912500D01*
G01X-6394233Y3912167D01*
G01X-6397233Y3911500D01*
G01X-6399900Y3910167D01*
G01X-6402233Y3908500D01*
G01X-6403567Y3906500D01*
G01X-6404567Y3904167D01*
G01X-6405233Y3901833D01*
G01X-6405567Y3896500D01*
G01X-6405233Y3891167D01*
G01X-6404567Y3887500D01*
G01X-6403567Y3883500D01*
G01X-6402233Y3880500D01*
G01X-6400567Y3878167D01*
G01X-6393900Y3870167D01*
G01X-6389900Y3865500D01*
G01X-6383233Y3857500D01*
G01X-6381567Y3855834D01*
G01X-6380233Y3854167D01*
G01X-6378233Y3851834D01*
G01X-6376233Y3849167D01*
G01X-6372900Y3845834D01*
G01X-6371567Y3844167D01*
G01X-6369900Y3841834D01*
G01X-6367900Y3838834D01*
G01X-6366233Y3835833D01*
G01X-6363567Y3830500D01*
G01X-6362233Y3826833D01*
G01X-6360900Y3822833D01*
G01X-6359567Y3818500D01*
G01X-6358567Y3815167D01*
G01X-6357233Y3808500D01*
G01X-6356567Y3803833D01*
G01X-6356233Y3797500D01*
G01X-6356567Y3789833D01*
G01X-6357233Y3785833D01*
G01X-6358233Y3782167D01*
G01X-6359567Y3778500D01*
G01X-6361233Y3775167D01*
G01X-6362900Y3772833D01*
G01X-6364233Y3770833D01*
G01X-6365900Y3769167D01*
G01X-6367567Y3767833D01*
G01X-6369567Y3766167D01*
G01X-6371900Y3764833D01*
G01X-6374567Y3763500D01*
G01X-6377233Y3762500D01*
G01X-6383900Y3761167D01*
G01X-6391900Y3760833D01*
G37*
G36*
G01X-6486991Y3331500D02*
G01X-6493536Y3331773D01*
G01X-6495173Y3332318D01*
G01X-6497900Y3332864D01*
G01X-6500900Y3333682D01*
G01X-6503355Y3334773D01*
G01X-6507173Y3336682D01*
G01X-6508536Y3337773D01*
G01X-6509900Y3339136D01*
G01X-6511536Y3341045D01*
G01X-6512900Y3342954D01*
G01X-6513991Y3345136D01*
G01X-6515082Y3348682D01*
G01X-6515900Y3352500D01*
G01X-6515900Y3356863D01*
G01X-6515491Y3358841D01*
G01X-6514809Y3359863D01*
G01X-6512900Y3360954D01*
G01X-6508264Y3361500D01*
G01X-6502809Y3361227D01*
G01X-6499536Y3360136D01*
G01X-6498514Y3359113D01*
G01X-6498173Y3357682D01*
G01X-6497627Y3354409D01*
G01X-6496536Y3351682D01*
G01X-6495445Y3350045D01*
G01X-6493809Y3348682D01*
G01X-6491355Y3347591D01*
G01X-6489173Y3347045D01*
G01X-6486991Y3346773D01*
G01X-6484809Y3347045D01*
G01X-6482900Y3347318D01*
G01X-6480446Y3347864D01*
G01X-6477718Y3349227D01*
G01X-6475809Y3350864D01*
G01X-6474718Y3352773D01*
G01X-6474173Y3357682D01*
G01X-6474446Y3362318D01*
G01X-6474991Y3365045D01*
G01X-6475809Y3368863D01*
G01X-6476900Y3372682D01*
G01X-6477991Y3375682D01*
G01X-6479082Y3378409D01*
G01X-6480173Y3380863D01*
G01X-6482355Y3385227D01*
G01X-6485082Y3389591D01*
G01X-6486173Y3391227D01*
G01X-6487264Y3392591D01*
G01X-6488082Y3393954D01*
G01X-6489173Y3395318D01*
G01X-6490536Y3396682D01*
G01X-6492718Y3399409D01*
G01X-6500082Y3406772D01*
G01X-6503355Y3410591D01*
G01X-6505536Y3413318D01*
G01X-6507445Y3415227D01*
G01X-6509627Y3417954D01*
G01X-6511264Y3420409D01*
G01X-6512355Y3422318D01*
G01X-6513173Y3424227D01*
G01X-6513991Y3426409D01*
G01X-6514809Y3429136D01*
G01X-6515355Y3431591D01*
G01X-6515900Y3435954D01*
G01X-6516173Y3440318D01*
G01X-6515900Y3446318D01*
G01X-6515355Y3449591D01*
G01X-6514809Y3452318D01*
G01X-6513991Y3455318D01*
G01X-6512900Y3457773D01*
G01X-6511809Y3459954D01*
G01X-6510445Y3462136D01*
G01X-6508809Y3464045D01*
G01X-6507445Y3465409D01*
G01X-6505536Y3467045D01*
G01X-6503355Y3468409D01*
G01X-6501445Y3469227D01*
G01X-6499264Y3470045D01*
G01X-6496536Y3470864D01*
G01X-6494082Y3471409D01*
G01X-6487264Y3471682D01*
G01X-6480446Y3471409D01*
G01X-6477718Y3470864D01*
G01X-6474173Y3470045D01*
G01X-6471446Y3468954D01*
G01X-6469264Y3467864D01*
G01X-6467627Y3466773D01*
G01X-6463809Y3463500D01*
G01X-6462718Y3462136D01*
G01X-6461627Y3460500D01*
G01X-6460536Y3458318D01*
G01X-6459446Y3455864D01*
G01X-6458627Y3453136D01*
G01X-6458082Y3450682D01*
G01X-6457536Y3445773D01*
G01X-6457264Y3443591D01*
G01X-6457536Y3441409D01*
G01X-6458082Y3438954D01*
G01X-6458627Y3437454D01*
G01X-6459718Y3436227D01*
G01X-6461627Y3435409D01*
G01X-6464627Y3435136D01*
G01X-6470082Y3435409D01*
G01X-6472536Y3436500D01*
G01X-6473627Y3438409D01*
G01X-6474173Y3441409D01*
G01X-6474446Y3445227D01*
G01X-6475264Y3448773D01*
G01X-6476355Y3450954D01*
G01X-6477446Y3452318D01*
G01X-6478809Y3453682D01*
G01X-6480718Y3454773D01*
G01X-6482900Y3455318D01*
G01X-6484809Y3455591D01*
G01X-6486445Y3455591D01*
G01X-6488900Y3455318D01*
G01X-6491355Y3454773D01*
G01X-6493264Y3453954D01*
G01X-6494900Y3452864D01*
G01X-6495991Y3451500D01*
G01X-6497082Y3449318D01*
G01X-6497900Y3446864D01*
G01X-6498173Y3443045D01*
G01X-6497900Y3439227D01*
G01X-6497627Y3437045D01*
G01X-6497082Y3433773D01*
G01X-6495991Y3431045D01*
G01X-6494900Y3428863D01*
G01X-6493536Y3426954D01*
G01X-6488082Y3420409D01*
G01X-6484809Y3416591D01*
G01X-6479355Y3410045D01*
G01X-6477991Y3408682D01*
G01X-6476900Y3407318D01*
G01X-6475264Y3405409D01*
G01X-6473627Y3403227D01*
G01X-6470900Y3400500D01*
G01X-6469264Y3398318D01*
G01X-6467627Y3395863D01*
G01X-6465446Y3392045D01*
G01X-6463264Y3387136D01*
G01X-6461627Y3382773D01*
G01X-6459173Y3373773D01*
G01X-6458082Y3367227D01*
G01X-6457536Y3362863D01*
G01X-6457536Y3359591D01*
G01X-6458082Y3354682D01*
G01X-6458627Y3351682D01*
G01X-6459446Y3348409D01*
G01X-6461627Y3343500D01*
G01X-6463809Y3340227D01*
G01X-6465718Y3338045D01*
G01X-6467900Y3336409D01*
G01X-6470082Y3335045D01*
G01X-6472809Y3333682D01*
G01X-6474991Y3332864D01*
G01X-6480446Y3331773D01*
G01X-6486991Y3331500D01*
G37*
G36*
G01X-6406537Y3331500D02*
G01X-6412809Y3331773D01*
G01X-6414446Y3332318D01*
G01X-6416900Y3332864D01*
G01X-6419900Y3333682D01*
G01X-6422627Y3334773D01*
G01X-6425082Y3336136D01*
G01X-6426991Y3337500D01*
G01X-6429718Y3340227D01*
G01X-6431355Y3342136D01*
G01X-6432718Y3344318D01*
G01X-6433537Y3346227D01*
G01X-6434355Y3348409D01*
G01X-6435173Y3351136D01*
G01X-6435718Y3353591D01*
G01X-6435991Y3409500D01*
G01X-6435718Y3467045D01*
G01X-6435173Y3469159D01*
G01X-6434082Y3470591D01*
G01X-6431900Y3471409D01*
G01X-6428082Y3471682D01*
G01X-6422627Y3471136D01*
G01X-6420991Y3470045D01*
G01X-6419900Y3468409D01*
G01X-6419355Y3466500D01*
G01X-6419082Y3412772D01*
G01X-6418809Y3357409D01*
G01X-6417991Y3353863D01*
G01X-6416628Y3351409D01*
G01X-6414991Y3349500D01*
G01X-6413355Y3348409D01*
G01X-6411173Y3347591D01*
G01X-6408991Y3347045D01*
G01X-6407082Y3346773D01*
G01X-6405173Y3347045D01*
G01X-6402991Y3347318D01*
G01X-6400809Y3347864D01*
G01X-6398900Y3348682D01*
G01X-6397264Y3349773D01*
G01X-6395900Y3351136D01*
G01X-6394537Y3353045D01*
G01X-6393718Y3355227D01*
G01X-6393173Y3359591D01*
G01X-6392900Y3412772D01*
G01X-6392628Y3467045D01*
G01X-6391809Y3469500D01*
G01X-6390718Y3470864D01*
G01X-6389218Y3471477D01*
G01X-6385809Y3471682D01*
G01X-6380355Y3471136D01*
G01X-6378446Y3469227D01*
G01X-6377832Y3454500D01*
G01X-6377627Y3413045D01*
G01X-6377900Y3355773D01*
G01X-6378446Y3352500D01*
G01X-6378991Y3350045D01*
G01X-6379809Y3347318D01*
G01X-6380900Y3344864D01*
G01X-6382264Y3342409D01*
G01X-6383627Y3340500D01*
G01X-6386355Y3337773D01*
G01X-6388264Y3336136D01*
G01X-6390446Y3334773D01*
G01X-6392355Y3333954D01*
G01X-6394537Y3333136D01*
G01X-6397537Y3332318D01*
G01X-6400264Y3331773D01*
G01X-6406537Y3331500D01*
G37*
G36*
G01X-6352809Y3331773D02*
G01X-6354991Y3332591D01*
G01X-6356627Y3334773D01*
G01X-6357173Y3336682D01*
G01X-6357446Y3400227D01*
G01X-6357289Y3437045D01*
G01X-6340536Y3437045D01*
G01X-6340264Y3420682D01*
G01X-6339718Y3417954D01*
G01X-6339173Y3416045D01*
G01X-6338696Y3415159D01*
G01X-6337809Y3414682D01*
G01X-6337809Y3414682D01*
G01X-6336446Y3414136D01*
G01X-6330446Y3413863D01*
G01X-6323355Y3414136D01*
G01X-6320627Y3414682D01*
G01X-6318446Y3415500D01*
G01X-6316809Y3416591D01*
G01X-6315173Y3418500D01*
G01X-6314559Y3422863D01*
G01X-6314355Y3433227D01*
G01X-6314900Y3448227D01*
G01X-6315991Y3450682D01*
G01X-6317082Y3452318D01*
G01X-6318991Y3453682D01*
G01X-6321446Y3454773D01*
G01X-6323900Y3455318D01*
G01X-6326082Y3455591D01*
G01X-6329627Y3455864D01*
G01X-6333173Y3455591D01*
G01X-6335082Y3455318D01*
G01X-6337536Y3454773D01*
G01X-6339718Y3452864D01*
G01X-6340332Y3448227D01*
G01X-6340536Y3437045D01*
G01X-6357289Y3437045D01*
G01X-6357173Y3464318D01*
G01X-6356627Y3467591D01*
G01X-6355264Y3470591D01*
G01X-6350968Y3471409D01*
G01X-6340264Y3471682D01*
G01X-6323900Y3471409D01*
G01X-6320082Y3470864D01*
G01X-6317355Y3470318D01*
G01X-6314355Y3469500D01*
G01X-6311355Y3468409D01*
G01X-6307537Y3466500D01*
G01X-6306173Y3465409D01*
G01X-6303446Y3462682D01*
G01X-6302355Y3461318D01*
G01X-6301264Y3459409D01*
G01X-6300173Y3456954D01*
G01X-6299355Y3454500D01*
G01X-6298809Y3452318D01*
G01X-6298537Y3435136D01*
G01X-6298809Y3417954D01*
G01X-6299355Y3414954D01*
G01X-6300173Y3411682D01*
G01X-6301264Y3409227D01*
G01X-6302355Y3407318D01*
G01X-6304537Y3404591D01*
G01X-6305627Y3403500D01*
G01X-6307537Y3402136D01*
G01X-6309991Y3400772D01*
G01X-6312991Y3399682D01*
G01X-6315718Y3398863D01*
G01X-6321718Y3398318D01*
G01X-6329355Y3398045D01*
G01X-6337536Y3397500D01*
G01X-6339446Y3395863D01*
G01X-6340264Y3393954D01*
G01X-6340536Y3364500D01*
G01X-6341082Y3334773D01*
G01X-6342173Y3333136D01*
G01X-6343536Y3332045D01*
G01X-6348991Y3331500D01*
G01X-6352809Y3331773D01*
G37*
G36*
G01X-5953810Y3331500D02*
G01X-5959537Y3332045D01*
G01X-5961173Y3333409D01*
G01X-5961787Y3350523D01*
G01X-5961991Y3400227D01*
G01X-5961719Y3467591D01*
G01X-5960900Y3469773D01*
G01X-5959810Y3471136D01*
G01X-5954900Y3471682D01*
G01X-5949719Y3471409D01*
G01X-5947537Y3470318D01*
G01X-5945628Y3468136D01*
G01X-5944537Y3464864D01*
G01X-5927082Y3408136D01*
G01X-5925991Y3404863D01*
G01X-5924628Y3402136D01*
G01X-5922991Y3400227D01*
G01X-5921082Y3400227D01*
G01X-5920264Y3408682D01*
G01X-5919991Y3432954D01*
G01X-5919719Y3465954D01*
G01X-5919446Y3467864D01*
G01X-5918901Y3469500D01*
G01X-5917810Y3470864D01*
G01X-5916241Y3471477D01*
G01X-5912628Y3471682D01*
G01X-5906628Y3471409D01*
G01X-5904446Y3470318D01*
G01X-5903832Y3453000D01*
G01X-5903628Y3402682D01*
G01X-5903901Y3334500D01*
G01X-5904991Y3332318D01*
G01X-5906628Y3331705D01*
G01X-5909901Y3331500D01*
G01X-5915901Y3331773D01*
G01X-5918355Y3332591D01*
G01X-5919719Y3333682D01*
G01X-5921082Y3335864D01*
G01X-5922991Y3341591D01*
G01X-5923537Y3344045D01*
G01X-5924355Y3346773D01*
G01X-5925173Y3349227D01*
G01X-5925991Y3352227D01*
G01X-5926810Y3354682D01*
G01X-5927355Y3356863D01*
G01X-5928173Y3359863D01*
G01X-5929264Y3363409D01*
G01X-5930355Y3367227D01*
G01X-5931446Y3370773D01*
G01X-5932264Y3373227D01*
G01X-5932810Y3375409D01*
G01X-5933628Y3378409D01*
G01X-5934719Y3381954D01*
G01X-5935810Y3385773D01*
G01X-5936900Y3389318D01*
G01X-5937719Y3391772D01*
G01X-5938264Y3394227D01*
G01X-5939082Y3396954D01*
G01X-5939900Y3399409D01*
G01X-5940991Y3402136D01*
G01X-5941878Y3403159D01*
G01X-5942900Y3403500D01*
G01X-5943787Y3403227D01*
G01X-5944264Y3402409D01*
G01X-5944810Y3400500D01*
G01X-5945082Y3367773D01*
G01X-5945628Y3334500D01*
G01X-5947537Y3332318D01*
G01X-5949787Y3331705D01*
G01X-5953810Y3331500D01*
G37*
G36*
G01X-5853173Y3331500D02*
G01X-5872537Y3331773D01*
G01X-5873900Y3333409D01*
G01X-5874514Y3335591D01*
G01X-5874719Y3339409D01*
G01X-5874446Y3344864D01*
G01X-5874173Y3346773D01*
G01X-5873832Y3347864D01*
G01X-5872809Y3348954D01*
G01X-5870969Y3349773D01*
G01X-5868173Y3350045D01*
G01X-5864082Y3350318D01*
G01X-5862446Y3351136D01*
G01X-5861832Y3363750D01*
G01X-5861628Y3400500D01*
G01X-5861900Y3450682D01*
G01X-5862991Y3452864D01*
G01X-5864355Y3453477D01*
G01X-5866809Y3453682D01*
G01X-5871173Y3453954D01*
G01X-5873082Y3454773D01*
G01X-5874173Y3456136D01*
G01X-5874719Y3461045D01*
G01X-5874446Y3467045D01*
G01X-5873628Y3469773D01*
G01X-5872537Y3471409D01*
G01X-5867423Y3472023D01*
G01X-5853173Y3472227D01*
G01X-5838787Y3472023D01*
G01X-5833264Y3471409D01*
G01X-5831628Y3469500D01*
G01X-5831082Y3463773D01*
G01X-5831355Y3457773D01*
G01X-5832173Y3455591D01*
G01X-5833537Y3454227D01*
G01X-5837082Y3453682D01*
G01X-5841719Y3453409D01*
G01X-5843355Y3452864D01*
G01X-5844446Y3451773D01*
G01X-5845060Y3439091D01*
G01X-5845264Y3403772D01*
G01X-5844991Y3356318D01*
G01X-5844719Y3354136D01*
G01X-5843900Y3351409D01*
G01X-5842469Y3350386D01*
G01X-5839810Y3350045D01*
G01X-5835173Y3349773D01*
G01X-5832991Y3348954D01*
G01X-5831628Y3347318D01*
G01X-5831082Y3341591D01*
G01X-5831355Y3335591D01*
G01X-5832173Y3333409D01*
G01X-5833537Y3332045D01*
G01X-5853173Y3331500D01*
G37*
G36*
G01X-6248355Y3328773D02*
G01X-6275355Y3329318D01*
G01X-6276991Y3330954D01*
G01X-6278082Y3332864D01*
G01X-6278355Y3397227D01*
G01X-6278082Y3463227D01*
G01X-6276991Y3467045D01*
G01X-6276173Y3468409D01*
G01X-6250537Y3468409D01*
G01X-6223537Y3468136D01*
G01X-6221082Y3467318D01*
G01X-6219446Y3465954D01*
G01X-6218628Y3464318D01*
G01X-6218355Y3460773D01*
G01X-6218628Y3457227D01*
G01X-6219173Y3455045D01*
G01X-6220809Y3452591D01*
G01X-6226196Y3451773D01*
G01X-6239628Y3451500D01*
G01X-6258446Y3451227D01*
G01X-6260628Y3450136D01*
G01X-6261241Y3445432D01*
G01X-6261446Y3432954D01*
G01X-6261173Y3414682D01*
G01X-6259809Y3411682D01*
G01X-6256878Y3410863D01*
G01X-6250264Y3410591D01*
G01X-6239900Y3410318D01*
G01X-6237173Y3409500D01*
G01X-6235809Y3408136D01*
G01X-6235264Y3402136D01*
G01X-6235809Y3395863D01*
G01X-6237173Y3394227D01*
G01X-6238809Y3393409D01*
G01X-6248355Y3393136D01*
G01X-6258446Y3392863D01*
G01X-6259673Y3392318D01*
G01X-6260628Y3391227D01*
G01X-6261241Y3385091D01*
G01X-6261446Y3369409D01*
G01X-6261241Y3353727D01*
G01X-6260628Y3347591D01*
G01X-6259809Y3346227D01*
G01X-6243446Y3346227D01*
G01X-6224628Y3345954D01*
G01X-6221082Y3344864D01*
G01X-6219446Y3343227D01*
G01X-6218900Y3338591D01*
G01X-6219173Y3332864D01*
G01X-6219718Y3331159D01*
G01X-6220809Y3329864D01*
G01X-6228377Y3329045D01*
G01X-6248355Y3328773D01*
G37*
G36*
G01X-6191355Y3331500D02*
G01X-6196537Y3332045D01*
G01X-6198173Y3333682D01*
G01X-6198991Y3335591D01*
G01X-6199264Y3401045D01*
G01X-6198976Y3436227D01*
G01X-6183446Y3436227D01*
G01X-6183173Y3417409D01*
G01X-6182355Y3413591D01*
G01X-6180991Y3411954D01*
G01X-6180991Y3411954D01*
G01X-6179900Y3411409D01*
G01X-6172809Y3411136D01*
G01X-6165173Y3411409D01*
G01X-6162718Y3411954D01*
G01X-6160537Y3413045D01*
G01X-6159173Y3414409D01*
G01X-6157809Y3416045D01*
G01X-6156718Y3417954D01*
G01X-6156173Y3432136D01*
G01X-6156446Y3446864D01*
G01X-6156991Y3449045D01*
G01X-6157809Y3451227D01*
G01X-6159718Y3453682D01*
G01X-6162446Y3455318D01*
G01X-6164627Y3456136D01*
G01X-6171991Y3456409D01*
G01X-6179900Y3455864D01*
G01X-6181809Y3454773D01*
G01X-6182900Y3453409D01*
G01X-6183446Y3436227D01*
G01X-6198976Y3436227D01*
G01X-6198718Y3467591D01*
G01X-6197082Y3470591D01*
G01X-6192582Y3471409D01*
G01X-6181264Y3471682D01*
G01X-6165718Y3471409D01*
G01X-6161900Y3470864D01*
G01X-6159446Y3470318D01*
G01X-6156173Y3469500D01*
G01X-6153173Y3468409D01*
G01X-6150991Y3467318D01*
G01X-6149082Y3466227D01*
G01X-6147446Y3464864D01*
G01X-6144718Y3462136D01*
G01X-6143628Y3460773D01*
G01X-6142537Y3458864D01*
G01X-6141446Y3456409D01*
G01X-6140628Y3453409D01*
G01X-6140082Y3450682D01*
G01X-6139809Y3433500D01*
G01X-6140355Y3415227D01*
G01X-6141446Y3411954D01*
G01X-6142809Y3409227D01*
G01X-6144173Y3407318D01*
G01X-6145264Y3405954D01*
G01X-6147173Y3404045D01*
G01X-6149900Y3402136D01*
G01X-6152082Y3400772D01*
G01X-6154537Y3399682D01*
G01X-6156446Y3398318D01*
G01X-6156446Y3396682D01*
G01X-6155900Y3394500D01*
G01X-6155082Y3391500D01*
G01X-6154264Y3389045D01*
G01X-6153718Y3386863D01*
G01X-6152900Y3383863D01*
G01X-6152082Y3381409D01*
G01X-6151537Y3378954D01*
G01X-6149900Y3373500D01*
G01X-6149082Y3370227D01*
G01X-6148264Y3367773D01*
G01X-6147718Y3365591D01*
G01X-6146900Y3362591D01*
G01X-6146082Y3360136D01*
G01X-6145537Y3357954D01*
G01X-6144718Y3354954D01*
G01X-6143900Y3352500D01*
G01X-6143355Y3350318D01*
G01X-6142537Y3347318D01*
G01X-6141718Y3344864D01*
G01X-6141173Y3342409D01*
G01X-6140355Y3339682D01*
G01X-6139809Y3337227D01*
G01X-6140082Y3334500D01*
G01X-6140628Y3333272D01*
G01X-6141718Y3332318D01*
G01X-6143628Y3331705D01*
G01X-6146628Y3331500D01*
G01X-6150991Y3331773D01*
G01X-6152900Y3332318D01*
G01X-6154809Y3333954D01*
G01X-6156173Y3337227D01*
G01X-6156991Y3339954D01*
G01X-6158628Y3347318D01*
G01X-6159446Y3350864D01*
G01X-6160264Y3353591D01*
G01X-6160809Y3356318D01*
G01X-6161628Y3360136D01*
G01X-6162446Y3362863D01*
G01X-6162991Y3365591D01*
G01X-6163809Y3369409D01*
G01X-6164627Y3372136D01*
G01X-6166264Y3379500D01*
G01X-6167082Y3383045D01*
G01X-6168446Y3388500D01*
G01X-6168991Y3390954D01*
G01X-6169809Y3394227D01*
G01X-6171446Y3396954D01*
G01X-6173150Y3397772D01*
G01X-6176082Y3398045D01*
G01X-6179082Y3397841D01*
G01X-6180991Y3397227D01*
G01X-6182627Y3395318D01*
G01X-6183173Y3393409D01*
G01X-6183446Y3364500D01*
G01X-6183991Y3335045D01*
G01X-6185082Y3333136D01*
G01X-6186446Y3332045D01*
G01X-6191355Y3331500D01*
G37*
G36*
G01X-6116491Y3331705D02*
G01X-6118264Y3332318D01*
G01X-6119628Y3333954D01*
G01X-6120173Y3399954D01*
G01X-6119900Y3467045D01*
G01X-6119082Y3469773D01*
G01X-6117991Y3471136D01*
G01X-6112809Y3471682D01*
G01X-6106809Y3471136D01*
G01X-6104628Y3469227D01*
G01X-6103537Y3466500D01*
G01X-6102719Y3464045D01*
G01X-6099446Y3453136D01*
G01X-6097809Y3448227D01*
G01X-6096173Y3442773D01*
G01X-6095355Y3440318D01*
G01X-6094537Y3437318D01*
G01X-6093446Y3434045D01*
G01X-6092628Y3432818D01*
G01X-6091264Y3432409D01*
G01X-6088537Y3432954D01*
G01X-6087650Y3433704D01*
G01X-6087173Y3434863D01*
G01X-6085537Y3439773D01*
G01X-6084719Y3442773D01*
G01X-6082810Y3448500D01*
G01X-6082264Y3450682D01*
G01X-6080628Y3455591D01*
G01X-6079810Y3458591D01*
G01X-6078719Y3461864D01*
G01X-6077628Y3465409D01*
G01X-6076537Y3468682D01*
G01X-6075173Y3470864D01*
G01X-6073400Y3471477D01*
G01X-6069719Y3471682D01*
G01X-6063991Y3471136D01*
G01X-6062355Y3469773D01*
G01X-6061537Y3468136D01*
G01X-6061264Y3402954D01*
G01X-6061537Y3336136D01*
G01X-6062082Y3334023D01*
G01X-6063173Y3332591D01*
G01X-6065082Y3331773D01*
G01X-6068082Y3331500D01*
G01X-6073537Y3331773D01*
G01X-6075173Y3332318D01*
G01X-6076264Y3333409D01*
G01X-6076878Y3342136D01*
G01X-6077082Y3365591D01*
G01X-6077628Y3397772D01*
G01X-6078378Y3398795D01*
G01X-6079537Y3399136D01*
G01X-6080832Y3398863D01*
G01X-6081991Y3398045D01*
G01X-6083628Y3395318D01*
G01X-6085537Y3389591D01*
G01X-6086628Y3384136D01*
G01X-6087173Y3381682D01*
G01X-6088264Y3378682D01*
G01X-6089150Y3377659D01*
G01X-6090173Y3377318D01*
G01X-6092082Y3378136D01*
G01X-6093446Y3380591D01*
G01X-6094537Y3384136D01*
G01X-6095355Y3386863D01*
G01X-6095900Y3389318D01*
G01X-6096719Y3392591D01*
G01X-6097809Y3395591D01*
G01X-6099446Y3398045D01*
G01X-6101628Y3399136D01*
G01X-6102650Y3398795D01*
G01X-6103537Y3397772D01*
G01X-6104150Y3393409D01*
G01X-6104355Y3383045D01*
G01X-6104082Y3368863D01*
G01X-6103809Y3353863D01*
G01X-6104082Y3337227D01*
G01X-6105173Y3333682D01*
G01X-6107082Y3332045D01*
G01X-6112809Y3331500D01*
G01X-6116491Y3331705D01*
G37*
G36*
G01X-6011082Y3331500D02*
G01X-6030718Y3332045D01*
G01X-6031809Y3333409D01*
G01X-6032628Y3335045D01*
G01X-6032900Y3339136D01*
G01X-6032628Y3343773D01*
G01X-6032082Y3346500D01*
G01X-6030718Y3348954D01*
G01X-6028946Y3349773D01*
G01X-6025809Y3350045D01*
G01X-6022673Y3350250D01*
G01X-6020900Y3350864D01*
G01X-6020082Y3363818D01*
G01X-6019809Y3401045D01*
G01X-6020082Y3451227D01*
G01X-6020900Y3452864D01*
G01X-6022264Y3453477D01*
G01X-6025264Y3453682D01*
G01X-6030173Y3454227D01*
G01X-6031809Y3455591D01*
G01X-6032628Y3457227D01*
G01X-6032900Y3461318D01*
G01X-6032628Y3465954D01*
G01X-6032082Y3468682D01*
G01X-6030718Y3471136D01*
G01X-6025469Y3471954D01*
G01X-6011900Y3472227D01*
G01X-5992809Y3471954D01*
G01X-5990900Y3471136D01*
G01X-5989809Y3469773D01*
G01X-5989264Y3463773D01*
G01X-5989537Y3457227D01*
G01X-5990900Y3454773D01*
G01X-5992741Y3453954D01*
G01X-5996082Y3453682D01*
G01X-5999491Y3453477D01*
G01X-6001537Y3452864D01*
G01X-6002900Y3452045D01*
G01X-6002900Y3403500D01*
G01X-6002628Y3353591D01*
G01X-6001809Y3351136D01*
G01X-6000582Y3350318D01*
G01X-5997991Y3350045D01*
G01X-5993355Y3349773D01*
G01X-5991173Y3348954D01*
G01X-5989809Y3347864D01*
G01X-5989264Y3341864D01*
G01X-5989537Y3335045D01*
G01X-5990900Y3332591D01*
G01X-5996491Y3331773D01*
G01X-6011082Y3331500D01*
G37*
G36*
G01X-6379430Y3503242D02*
G01X-6366631Y3502186D01*
G01X-6331052Y3501833D01*
G01X-6295355Y3502303D01*
G01X-6282203Y3503712D01*
G01X-6279855Y3507939D01*
G01X-6279385Y3519682D01*
G01X-6279737Y3527079D01*
G01X-6280794Y3530485D01*
G01X-6284552Y3532364D01*
G01X-6289249Y3533303D01*
G01X-6320249Y3533772D01*
G01X-6342089Y3534242D01*
G01X-6350309Y3535651D01*
G01X-6351718Y3541288D01*
G01X-6351249Y3546454D01*
G01X-6350309Y3550212D01*
G01X-6349370Y3554909D01*
G01X-6346552Y3565242D01*
G01X-6345612Y3569000D01*
G01X-6344203Y3573227D01*
G01X-6338567Y3588727D01*
G01X-6334809Y3597182D01*
G01X-6332930Y3601878D01*
G01X-6329173Y3609394D01*
G01X-6323537Y3619257D01*
G01X-6321658Y3622076D01*
G01X-6319309Y3625833D01*
G01X-6313673Y3634288D01*
G01X-6311324Y3637576D01*
G01X-6302870Y3648848D01*
G01X-6294885Y3656833D01*
G01X-6292067Y3660121D01*
G01X-6287370Y3666697D01*
G01X-6283143Y3675151D01*
G01X-6281264Y3679378D01*
G01X-6279855Y3685485D01*
G01X-6279385Y3696288D01*
G01X-6279855Y3705212D01*
G01X-6281733Y3713666D01*
G01X-6283143Y3717424D01*
G01X-6285021Y3721182D01*
G01X-6287370Y3724939D01*
G01X-6290188Y3728227D01*
G01X-6292537Y3730575D01*
G01X-6295824Y3733394D01*
G01X-6299582Y3735742D01*
G01X-6303339Y3737621D01*
G01X-6308036Y3739500D01*
G01X-6313673Y3740909D01*
G01X-6318370Y3741848D01*
G01X-6325885Y3742788D01*
G01X-6332461Y3743257D01*
G01X-6339037Y3742788D01*
G01X-6346552Y3741848D01*
G01X-6350779Y3740909D01*
G01X-6355476Y3739500D01*
G01X-6359233Y3738091D01*
G01X-6362991Y3736212D01*
G01X-6367218Y3733394D01*
G01X-6370506Y3730575D01*
G01X-6372855Y3728227D01*
G01X-6374734Y3725879D01*
G01X-6376612Y3722591D01*
G01X-6378961Y3717894D01*
G01X-6380839Y3713197D01*
G01X-6382249Y3707091D01*
G01X-6383188Y3701454D01*
G01X-6383658Y3695818D01*
G01X-6383305Y3692295D01*
G01X-6382249Y3690182D01*
G01X-6378491Y3687833D01*
G01X-6368158Y3686894D01*
G01X-6361582Y3687246D01*
G01X-6357824Y3688303D01*
G01X-6354067Y3692060D01*
G01X-6352658Y3697227D01*
G01X-6351718Y3701924D01*
G01X-6349839Y3705212D01*
G01X-6347491Y3707560D01*
G01X-6344673Y3709439D01*
G01X-6340446Y3710848D01*
G01X-6336218Y3711788D01*
G01X-6330582Y3712257D01*
G01X-6324946Y3711788D01*
G01X-6321188Y3710848D01*
G01X-6316961Y3708969D01*
G01X-6313673Y3705682D01*
G01X-6311324Y3701454D01*
G01X-6309915Y3694879D01*
G01X-6309915Y3688303D01*
G01X-6311324Y3683606D01*
G01X-6313673Y3680318D01*
G01X-6325415Y3668576D01*
G01X-6328233Y3664818D01*
G01X-6331521Y3661530D01*
G01X-6337158Y3654485D01*
G01X-6338567Y3652136D01*
G01X-6342324Y3647439D01*
G01X-6344673Y3644151D01*
G01X-6350309Y3635697D01*
G01X-6355006Y3628182D01*
G01X-6357355Y3623485D01*
G01X-6361112Y3616909D01*
G01X-6366749Y3604227D01*
G01X-6368627Y3599530D01*
G01X-6372385Y3589197D01*
G01X-6374264Y3583091D01*
G01X-6376142Y3576515D01*
G01X-6377552Y3570409D01*
G01X-6378491Y3566182D01*
G01X-6379430Y3561485D01*
G01X-6380370Y3555848D01*
G01X-6381309Y3551151D01*
G01X-6382249Y3544576D01*
G01X-6383188Y3536121D01*
G01X-6383658Y3520621D01*
G01X-6383305Y3511579D01*
G01X-6382249Y3507000D01*
G01X-6379430Y3503242D01*
G37*
G36*
G01X-6477127Y3502303D02*
G01X-6466324Y3501833D01*
G01X-6454582Y3502303D01*
G01X-6445188Y3504182D01*
G01X-6440961Y3505591D01*
G01X-6436733Y3507469D01*
G01X-6432976Y3509818D01*
G01X-6429688Y3512166D01*
G01X-6427339Y3514045D01*
G01X-6424991Y3516863D01*
G01X-6422642Y3520621D01*
G01X-6420294Y3524848D01*
G01X-6418415Y3530015D01*
G01X-6417006Y3536121D01*
G01X-6416067Y3542697D01*
G01X-6415597Y3570879D01*
G01X-6416067Y3597182D01*
G01X-6417006Y3605636D01*
G01X-6418415Y3609863D01*
G01X-6420294Y3614091D01*
G01X-6422173Y3616909D01*
G01X-6424521Y3620197D01*
G01X-6426870Y3624424D01*
G01X-6427809Y3630060D01*
G01X-6426400Y3635227D01*
G01X-6424052Y3638045D01*
G01X-6421703Y3639924D01*
G01X-6419355Y3643212D01*
G01X-6417476Y3647439D01*
G01X-6416537Y3651197D01*
G01X-6416067Y3654485D01*
G01X-6415597Y3679848D01*
G01X-6416067Y3705212D01*
G01X-6417006Y3710379D01*
G01X-6418415Y3715545D01*
G01X-6421234Y3722121D01*
G01X-6423582Y3725879D01*
G01X-6426400Y3729167D01*
G01X-6428749Y3731515D01*
G01X-6431567Y3733864D01*
G01X-6434855Y3735742D01*
G01X-6438612Y3737621D01*
G01X-6443779Y3739500D01*
G01X-6448945Y3740909D01*
G01X-6454582Y3741848D01*
G01X-6469143Y3742318D01*
G01X-6481824Y3741848D01*
G01X-6491218Y3739969D01*
G01X-6494976Y3738560D01*
G01X-6499203Y3736682D01*
G01X-6502961Y3734333D01*
G01X-6506249Y3731985D01*
G01X-6508597Y3729636D01*
G01X-6510476Y3727288D01*
G01X-6512355Y3724000D01*
G01X-6514233Y3720242D01*
G01X-6516112Y3715545D01*
G01X-6517521Y3708969D01*
G01X-6517991Y3699576D01*
G01X-6517521Y3694409D01*
G01X-6516112Y3691121D01*
G01X-6511885Y3688303D01*
G01X-6504839Y3687833D01*
G01X-6498734Y3688303D01*
G01X-6495445Y3689242D01*
G01X-6491688Y3691591D01*
G01X-6490162Y3694057D01*
G01X-6489340Y3697697D01*
G01X-6487930Y3703333D01*
G01X-6486052Y3706151D01*
G01X-6483703Y3708500D01*
G01X-6480885Y3710379D01*
G01X-6476658Y3711788D01*
G01X-6472430Y3712727D01*
G01X-6465385Y3713197D01*
G01X-6458339Y3712727D01*
G01X-6454582Y3711318D01*
G01X-6451294Y3709439D01*
G01X-6448476Y3706151D01*
G01X-6445658Y3700515D01*
G01X-6444718Y3678909D01*
G01X-6445188Y3659182D01*
G01X-6446597Y3655424D01*
G01X-6448945Y3652136D01*
G01X-6451294Y3649788D01*
G01X-6454582Y3647439D01*
G01X-6462097Y3643682D01*
G01X-6465385Y3641803D01*
G01X-6467733Y3639924D01*
G01X-6470082Y3636636D01*
G01X-6471021Y3627712D01*
G01X-6470082Y3619727D01*
G01X-6468203Y3616909D01*
G01X-6465855Y3615030D01*
G01X-6463036Y3613621D01*
G01X-6458809Y3611742D01*
G01X-6453642Y3609863D01*
G01X-6450355Y3607515D01*
G01X-6448476Y3605167D01*
G01X-6446597Y3601878D01*
G01X-6445188Y3596242D01*
G01X-6444718Y3570879D01*
G01X-6445188Y3547394D01*
G01X-6446597Y3543636D01*
G01X-6449415Y3538939D01*
G01X-6453642Y3535182D01*
G01X-6458339Y3533303D01*
G01X-6462097Y3532364D01*
G01X-6468203Y3531894D01*
G01X-6474309Y3532364D01*
G01X-6478536Y3533772D01*
G01X-6482294Y3536121D01*
G01X-6484173Y3538000D01*
G01X-6486521Y3540818D01*
G01X-6488400Y3545515D01*
G01X-6489340Y3550212D01*
G01X-6491688Y3554909D01*
G01X-6493567Y3557257D01*
G01X-6503430Y3557257D01*
G01X-6511298Y3556788D01*
G01X-6515173Y3555379D01*
G01X-6517521Y3550212D01*
G01X-6517991Y3540818D01*
G01X-6517521Y3533303D01*
G01X-6516112Y3528606D01*
G01X-6514233Y3523909D01*
G01X-6512355Y3520621D01*
G01X-6510476Y3517803D01*
G01X-6508597Y3515454D01*
G01X-6505309Y3512636D01*
G01X-6501082Y3509818D01*
G01X-6496855Y3507469D01*
G01X-6491688Y3505591D01*
G01X-6485582Y3503712D01*
G01X-6477127Y3502303D01*
G37*
G36*
G01X-6159900Y3508667D02*
G01X-6134900Y3507833D01*
G01X-6110734Y3508667D01*
G01X-6103233Y3510333D01*
G01X-6094900Y3512833D01*
G01X-6088233Y3515333D01*
G01X-6082400Y3517833D01*
G01X-6076567Y3521167D01*
G01X-6071567Y3524500D01*
G01X-6067400Y3527833D01*
G01X-6062400Y3533667D01*
G01X-6058234Y3539500D01*
G01X-6054900Y3545333D01*
G01X-6051567Y3552000D01*
G01X-6049067Y3559500D01*
G01X-6047400Y3567000D01*
G01X-6045733Y3575333D01*
G01X-6044900Y3587833D01*
G01X-6045733Y3593250D01*
G01X-6048234Y3596167D01*
G01X-6057400Y3598667D01*
G01X-6074900Y3599500D01*
G01X-6084483Y3598667D01*
G01X-6089900Y3596167D01*
G01X-6094067Y3588667D01*
G01X-6095734Y3580333D01*
G01X-6099067Y3574500D01*
G01X-6103233Y3570333D01*
G01X-6108233Y3567000D01*
G01X-6114067Y3565333D01*
G01X-6120734Y3563667D01*
G01X-6137400Y3562833D01*
G01X-6153234Y3564500D01*
G01X-6159067Y3567000D01*
G01X-6165733Y3571167D01*
G01X-6170733Y3577833D01*
G01X-6173234Y3584500D01*
G01X-6174900Y3592833D01*
G01X-6175733Y3600333D01*
G01X-6176567Y3726167D01*
G01X-6175733Y3852000D01*
G01X-6174900Y3857833D01*
G01X-6173234Y3863667D01*
G01X-6169900Y3869500D01*
G01X-6164900Y3874500D01*
G01X-6158234Y3877833D01*
G01X-6147400Y3880333D01*
G01X-6129067Y3881166D01*
G01X-6115734Y3880333D01*
G01X-6108233Y3877833D01*
G01X-6101567Y3873667D01*
G01X-6098233Y3869500D01*
G01X-6095734Y3862000D01*
G01X-6091567Y3852833D01*
G01X-6084483Y3850333D01*
G01X-6069900Y3849500D01*
G01X-6055317Y3850333D01*
G01X-6048234Y3852833D01*
G01X-6045733Y3857833D01*
G01X-6044900Y3866167D01*
G01X-6045733Y3878667D01*
G01X-6048234Y3887000D01*
G01X-6051567Y3895333D01*
G01X-6054900Y3902000D01*
G01X-6059067Y3907833D01*
G01X-6067400Y3916167D01*
G01X-6071567Y3919500D01*
G01X-6076567Y3922833D01*
G01X-6083233Y3926167D01*
G01X-6091567Y3929500D01*
G01X-6102400Y3932833D01*
G01X-6111567Y3934500D01*
G01X-6117400Y3935333D01*
G01X-6137400Y3936167D01*
G01X-6157400Y3935333D01*
G01X-6165733Y3933667D01*
G01X-6174900Y3931167D01*
G01X-6181567Y3928667D01*
G01X-6187400Y3926167D01*
G01X-6193233Y3922833D01*
G01X-6200733Y3917833D01*
G01X-6206567Y3912000D01*
G01X-6209900Y3907833D01*
G01X-6214067Y3902000D01*
G01X-6218233Y3894500D01*
G01X-6221567Y3887000D01*
G01X-6224067Y3877833D01*
G01X-6225734Y3870333D01*
G01X-6227400Y3858667D01*
G01X-6228233Y3720333D01*
G01X-6227400Y3582000D01*
G01X-6225734Y3570333D01*
G01X-6224067Y3563667D01*
G01X-6221567Y3556167D01*
G01X-6218233Y3548667D01*
G01X-6214067Y3541167D01*
G01X-6209900Y3535333D01*
G01X-6201567Y3527000D01*
G01X-6197400Y3523667D01*
G01X-6192400Y3521167D01*
G01X-6186567Y3517833D01*
G01X-6179067Y3514500D01*
G01X-6169067Y3511167D01*
G01X-6159900Y3508667D01*
G37*
G36*
G01X-5915733Y3508667D02*
G01X-5893234Y3507833D01*
G01X-5872400Y3508667D01*
G01X-5860734Y3510333D01*
G01X-5852400Y3512833D01*
G01X-5842400Y3516167D01*
G01X-5834900Y3520333D01*
G01X-5829067Y3524500D01*
G01X-5820734Y3532833D01*
G01X-5815734Y3538667D01*
G01X-5811567Y3546167D01*
G01X-5808233Y3553667D01*
G01X-5805734Y3562000D01*
G01X-5804067Y3570333D01*
G01X-5803234Y3579500D01*
G01X-5802400Y3587000D01*
G01X-5801567Y3628667D01*
G01X-5802400Y3670333D01*
G01X-5804067Y3690333D01*
G01X-5806567Y3698666D01*
G01X-5810734Y3707833D01*
G01X-5814900Y3713667D01*
G01X-5818233Y3718667D01*
G01X-5821567Y3725333D01*
G01X-5824067Y3732000D01*
G01X-5824067Y3737000D01*
G01X-5821567Y3743667D01*
G01X-5815734Y3750333D01*
G01X-5809900Y3756166D01*
G01X-5806567Y3762833D01*
G01X-5804067Y3772000D01*
G01X-5802400Y3780333D01*
G01X-5801567Y3822833D01*
G01X-5802400Y3865333D01*
G01X-5804067Y3878667D01*
G01X-5806567Y3886166D01*
G01X-5809900Y3895333D01*
G01X-5814067Y3902833D01*
G01X-5818233Y3908667D01*
G01X-5826567Y3917000D01*
G01X-5830734Y3920333D01*
G01X-5842400Y3926167D01*
G01X-5851567Y3929500D01*
G01X-5862400Y3932000D01*
G01X-5870733Y3933667D01*
G01X-5894900Y3934500D01*
G01X-5919067Y3933667D01*
G01X-5928234Y3932000D01*
G01X-5938233Y3929500D01*
G01X-5946567Y3926167D01*
G01X-5954900Y3922000D01*
G01X-5960734Y3917833D01*
G01X-5969067Y3909500D01*
G01X-5972400Y3905333D01*
G01X-5974900Y3900333D01*
G01X-5978233Y3892833D01*
G01X-5981567Y3882000D01*
G01X-5983233Y3862000D01*
G01X-5981567Y3845333D01*
G01X-5978233Y3841167D01*
G01X-5972400Y3838667D01*
G01X-5959900Y3837833D01*
G01X-5949067Y3838667D01*
G01X-5943233Y3840333D01*
G01X-5936567Y3844500D01*
G01X-5933233Y3851167D01*
G01X-5932400Y3857000D01*
G01X-5930733Y3863667D01*
G01X-5928234Y3869500D01*
G01X-5924900Y3872833D01*
G01X-5919067Y3877000D01*
G01X-5909900Y3880333D01*
G01X-5902400Y3882000D01*
G01X-5890733Y3882833D01*
G01X-5879067Y3882000D01*
G01X-5873234Y3880333D01*
G01X-5865734Y3876166D01*
G01X-5859067Y3868667D01*
G01X-5854900Y3858667D01*
G01X-5853233Y3822000D01*
G01X-5854067Y3788667D01*
G01X-5856567Y3782000D01*
G01X-5861567Y3773667D01*
G01X-5869067Y3767000D01*
G01X-5884067Y3759500D01*
G01X-5889900Y3756166D01*
G01X-5894900Y3752000D01*
G01X-5898234Y3747000D01*
G01X-5899900Y3732000D01*
G01X-5898234Y3717000D01*
G01X-5894900Y3712000D01*
G01X-5890733Y3708667D01*
G01X-5885733Y3706167D01*
G01X-5878234Y3702833D01*
G01X-5869067Y3699500D01*
G01X-5863233Y3695333D01*
G01X-5859067Y3689500D01*
G01X-5855734Y3681167D01*
G01X-5854067Y3673667D01*
G01X-5853233Y3632000D01*
G01X-5854067Y3590333D01*
G01X-5855734Y3584500D01*
G01X-5858233Y3578667D01*
G01X-5861567Y3573667D01*
G01X-5867400Y3568667D01*
G01X-5874900Y3564500D01*
G01X-5884067Y3562000D01*
G01X-5896567Y3561167D01*
G01X-5905733Y3562000D01*
G01X-5913234Y3564500D01*
G01X-5922400Y3569500D01*
G01X-5927400Y3575333D01*
G01X-5929900Y3581167D01*
G01X-5931567Y3587833D01*
G01X-5932400Y3593667D01*
G01X-5934900Y3599500D01*
G01X-5939900Y3604500D01*
G01X-5959900Y3606167D01*
G01X-5972817Y3605542D01*
G01X-5978233Y3603667D01*
G01X-5981567Y3598667D01*
G01X-5983233Y3592000D01*
G01X-5984067Y3585333D01*
G01X-5984067Y3580333D01*
G01X-5982400Y3562000D01*
G01X-5979900Y3554500D01*
G01X-5975734Y3545333D01*
G01X-5970734Y3537000D01*
G01X-5965734Y3531167D01*
G01X-5957400Y3524500D01*
G01X-5952400Y3521167D01*
G01X-5945734Y3517833D01*
G01X-5936567Y3514500D01*
G01X-5925733Y3511167D01*
G01X-5915733Y3508667D01*
G37*
G04 Text End*

G04 PolygonModel Start*
G36*
G01X-4257990Y941000D02*
G01X-4257990Y735000D01*
G01X-4259494Y721649D01*
G01X-4263932Y708967D01*
G01X-4271080Y697590D01*
G01X-4280581Y688090D01*
G01X-4291957Y680942D01*
G01X-4304639Y676504D01*
G01X-4317990Y675000D01*
G01X-4979990Y675000D01*
G01X-4993341Y676504D01*
G01X-5006023Y680942D01*
G01X-5017399Y688090D01*
G01X-5026900Y697590D01*
G01X-5034048Y708967D01*
G01X-5038486Y721649D01*
G01X-5039108Y727168D01*
G01X-4460182Y727168D01*
G01X-4305781Y727168D01*
G01X-4305781Y772595D01*
G01X-4460182Y772595D01*
G01X-4460182Y727168D01*
G01X-4460182Y727168D01*
G01X-5039108Y727168D01*
G01X-5039990Y735000D01*
G01X-5039990Y941000D01*
G01X-5038486Y954351D01*
G01X-5034048Y967033D01*
G01X-5026900Y978409D01*
G01X-5017399Y987910D01*
G01X-5006023Y995058D01*
G01X-4993341Y999496D01*
G01X-4979990Y1001000D01*
G01X-4317990Y1001000D01*
G01X-4304639Y999496D01*
G01X-4291957Y995058D01*
G01X-4280581Y987910D01*
G01X-4271080Y978409D01*
G01X-4263932Y967033D01*
G01X-4259494Y954351D01*
G01X-4257990Y941000D01*
G37*
G54D11*
G01X-5130800Y2095800D02*
G01X-5130800Y2096054D01*
G54D12*
G01X-3309200Y3545300D02*
G01X-3217696Y3545300D01*
G01X-4183920Y2852000D02*
G01X-4183920Y2760496D01*
G01X-2291259Y4058600D02*
G01X-2470800Y4058600D01*
G01X-2381029Y4058600D02*
G01X-2381029Y4187768D01*
G01X-2381029Y4003604D02*
G01X-2381029Y3874435D01*
G54D13*
G01X-2310800Y4158600D02*
G01X-2310800Y4118600D01*
G01X-2330800Y4138600D02*
G01X-2290800Y4138600D01*
G01X-2330800Y3938600D02*
G01X-2290800Y3938600D01*
G01X-2291259Y3977499D02*
G03X-2470800Y3977499I-89771J-94158D01*
G54D12*
G01X-1148259Y4058600D02*
G01X-1327800Y4058600D01*
G01X-1238029Y4058600D02*
G01X-1238029Y4187768D01*
G01X-1238029Y4003604D02*
G01X-1238029Y3874435D01*
G54D13*
G01X-1167800Y4158600D02*
G01X-1167800Y4118600D01*
G01X-1187800Y4138600D02*
G01X-1147800Y4138600D01*
G01X-1187800Y3938600D02*
G01X-1147800Y3938600D01*
G01X-1148259Y3977499D02*
G03X-1327800Y3977499I-89771J-94158D01*
G54D11*
G01X-7094900Y4532846D02*
G01X-7094900Y4609503D01*
G02X-7044903Y4659500I49998J0D01*
G01X-6154027Y4659500D01*
G01X-5284902Y4532846D02*
G01X-5284902Y4609503D01*
G03X-5334900Y4659500I-49998J0D01*
G01X-6174900Y4659500D01*
G54D12*
G01X-6685200Y3089500D02*
G01X-6685200Y3089800D01*

M02*

