G04 Layer: BottomSolderMaskLayer*
G04 EasyEDA Pro v2.2.45.4, 2025-12-19 14:04:37*
G04 Gerber Generator version 0.3*
G04 Scale: 100 percent, Rotated: No, Reflected: No*
G04 Dimensions in millimeters*
G04 Leading zeros omitted, absolute positions, 4 integers and 5 decimals*
G04 Generated by one-click*
%FSLAX45Y45*%
%MOMM*%
%AMRoundRect*1,1,$1,$2,$3*1,1,$1,$4,$5*1,1,$1,0-$2,0-$3*1,1,$1,0-$4,0-$5*20,1,$1,$2,$3,$4,$5,0*20,1,$1,$4,$5,0-$2,0-$3,0*20,1,$1,0-$2,0-$3,0-$4,0-$5,0*20,1,$1,0-$4,0-$5,$2,$3,0*4,1,4,$2,$3,$4,$5,0-$2,0-$3,0-$4,0-$5,$2,$3,0*%
%ADD10RoundRect,0.85865X-0.57147X-0.57147X-0.57147X0.57147*%
%ADD11RoundRect,0.85865X-0.57147X0.57147X0.57147X0.57147*%
%ADD12RoundRect,0.83858X-0.55651X-0.55651X-0.55651X0.55651*%
%ADD13RoundRect,1.45988X-1.02086X-1.02086X-1.02086X1.02086*%
%ADD14C,0.0323*%
G75*


G04 Text Start*
G36*
G01X-1043798Y4524064D02*
G01X-1043071Y4518973D01*
G01X-1042343Y4468791D01*
G01X-1042343Y4420791D01*
G01X-1330343Y4420791D01*
G01X-1330343Y4471700D01*
G01X-1329725Y4516791D01*
G01X-1282343Y4516791D01*
G01X-1282343Y4492791D01*
G01X-1281616Y4468063D01*
G01X-1245252Y4467336D01*
G01X-1218161Y4468063D01*
G01X-1149252Y4468063D01*
G01X-1119434Y4467336D01*
G01X-1090343Y4467336D01*
G01X-1090343Y4516791D01*
G01X-1102707Y4516791D01*
G01X-1112343Y4516064D01*
G01X-1116525Y4513882D01*
G01X-1119434Y4509518D01*
G01X-1119434Y4509518D01*
G01X-1122343Y4505882D01*
G01X-1148525Y4470973D01*
G01X-1149252Y4468063D01*
G01X-1218161Y4468063D01*
G01X-1208161Y4470245D01*
G01X-1205252Y4474609D01*
G01X-1202343Y4478245D01*
G01X-1197980Y4484063D01*
G01X-1193616Y4490609D01*
G01X-1193071Y4493154D01*
G01X-1194343Y4494973D01*
G01X-1197252Y4498609D01*
G01X-1199434Y4502245D01*
G01X-1202343Y4505882D01*
G01X-1206707Y4511700D01*
G01X-1211798Y4516064D01*
G01X-1248161Y4516791D01*
G01X-1248161Y4516791D01*
G01X-1282343Y4516791D01*
G01X-1329725Y4516791D01*
G01X-1329616Y4524791D01*
G01X-1327434Y4532064D01*
G01X-1324525Y4538609D01*
G01X-1320889Y4543700D01*
G01X-1316525Y4548791D01*
G01X-1312889Y4552427D01*
G01X-1309252Y4555336D01*
G01X-1299071Y4560427D01*
G01X-1290343Y4562609D01*
G01X-1235798Y4563336D01*
G01X-1198343Y4562791D01*
G01X-1184889Y4561154D01*
G01X-1167434Y4537882D01*
G01X-1163798Y4534245D01*
G01X-1161434Y4534064D01*
G01X-1158707Y4536427D01*
G01X-1141252Y4559700D01*
G01X-1138343Y4563336D01*
G01X-1109252Y4563336D01*
G01X-1077252Y4561882D01*
G01X-1071434Y4559700D01*
G01X-1064889Y4556064D01*
G01X-1059071Y4551700D01*
G01X-1055434Y4548064D01*
G01X-1051798Y4542973D01*
G01X-1048161Y4536427D01*
G01X-1045252Y4529882D01*
G01X-1043798Y4524064D01*
G37*
G36*
G01X-1317980Y4244791D02*
G01X-1322343Y4249882D01*
G01X-1325980Y4257154D01*
G01X-1328889Y4264427D01*
G01X-1330343Y4319700D01*
G01X-1330343Y4371336D01*
G01X-1186343Y4371336D01*
G01X-1186343Y4300064D01*
G01X-1234343Y4300064D01*
G01X-1234343Y4324791D01*
G01X-1282343Y4324791D01*
G01X-1282343Y4275336D01*
G01X-1090343Y4275336D01*
G01X-1090343Y4324791D01*
G01X-1138343Y4324791D01*
G01X-1138343Y4371336D01*
G01X-1109252Y4371336D01*
G01X-1077252Y4369882D01*
G01X-1071434Y4367700D01*
G01X-1064889Y4364063D01*
G01X-1059071Y4359700D01*
G01X-1055434Y4356063D01*
G01X-1051798Y4350973D01*
G01X-1048161Y4344427D01*
G01X-1045252Y4337882D01*
G01X-1043798Y4332063D01*
G01X-1043071Y4326973D01*
G01X-1042343Y4297882D01*
G01X-1043071Y4268791D01*
G01X-1044525Y4262245D01*
G01X-1046707Y4256427D01*
G01X-1053980Y4245518D01*
G01X-1060525Y4239700D01*
G01X-1065616Y4236063D01*
G01X-1070707Y4233154D01*
G01X-1078707Y4230245D01*
G01X-1188525Y4228791D01*
G01X-1296889Y4230245D01*
G01X-1301980Y4232427D01*
G01X-1306343Y4234609D01*
G01X-1310707Y4237518D01*
G01X-1317980Y4244791D01*
G37*
G36*
G01X-1043798Y4140064D02*
G01X-1043071Y4134973D01*
G01X-1042343Y4085518D01*
G01X-1042343Y4038245D01*
G01X-1330343Y4038245D01*
G01X-1330343Y4083336D01*
G01X-1282343Y4083336D01*
G01X-1245979Y4083882D01*
G01X-1238708Y4084791D01*
G01X-1172525Y4084791D01*
G01X-1131070Y4083336D01*
G01X-1090343Y4083336D01*
G01X-1090343Y4132791D01*
G01X-1114343Y4132791D01*
G01X-1132707Y4132245D01*
G01X-1132707Y4132245D01*
G01X-1139798Y4130609D01*
G01X-1170343Y4089882D01*
G01X-1172525Y4084791D01*
G01X-1238708Y4084791D01*
G01X-1232889Y4085518D01*
G01X-1219798Y4102972D01*
G01X-1217798Y4106427D01*
G01X-1217616Y4109518D01*
G01X-1220525Y4113882D01*
G01X-1223434Y4117518D01*
G01X-1225616Y4121154D01*
G01X-1228525Y4124791D01*
G01X-1232889Y4129882D01*
G01X-1246889Y4132064D01*
G01X-1283071Y4132791D01*
G01X-1330343Y4132791D01*
G01X-1330343Y4179336D01*
G01X-1269980Y4179336D01*
G01X-1224343Y4178609D01*
G01X-1208161Y4176427D01*
G01X-1205252Y4172064D01*
G01X-1202343Y4168427D01*
G01X-1193616Y4156791D01*
G01X-1189252Y4151700D01*
G01X-1186525Y4149882D01*
G01X-1184161Y4150245D01*
G01X-1181252Y4153882D01*
G01X-1179071Y4157518D01*
G01X-1176161Y4161154D01*
G01X-1167434Y4172791D01*
G01X-1163798Y4177154D01*
G01X-1151980Y4178791D01*
G01X-1120889Y4179336D01*
G01X-1077252Y4177882D01*
G01X-1071434Y4175700D01*
G01X-1064889Y4172064D01*
G01X-1059071Y4167700D01*
G01X-1055434Y4164064D01*
G01X-1051798Y4158973D01*
G01X-1048161Y4152427D01*
G01X-1045252Y4145882D01*
G01X-1043798Y4140064D01*
G37*
G04 Text End*

G04 Pad Start*
G54D10*
G01X-1861091Y789705D03*
G01X-1353091Y789705D03*
G01X-1607091Y789705D03*
G54D11*
G01X-1095384Y1746004D03*
G01X-1095384Y1414904D03*
G01X-1095384Y791704D03*
G01X-1349384Y1746004D03*
G01X-1349384Y1414904D03*
G54D12*
G01X-4589784Y878782D03*
G01X-4589784Y1132782D03*
G01X-4589784Y1386782D03*
G01X-4589784Y1640782D03*
G01X-4589784Y1894782D03*
G01X-4589784Y2148782D03*
G01X-4843784Y878782D03*
G01X-4843784Y1132782D03*
G01X-4843784Y1386782D03*
G01X-4843784Y1640782D03*
G01X-4843784Y1894782D03*
G01X-4843784Y2148782D03*
G54D13*
G01X-1514884Y2229617D03*
G01X-1514884Y2730505D03*
G04 Pad End*

M02*

