G04 Layer: TopPasteMaskLayer*
G04 EasyEDA Pro v2.2.45.4, 2025-12-19 14:04:37*
G04 Gerber Generator version 0.3*
G04 Scale: 100 percent, Rotated: No, Reflected: No*
G04 Dimensions in millimeters*
G04 Leading zeros omitted, absolute positions, 4 integers and 5 decimals*
G04 Generated by one-click*
%FSLAX45Y45*%
%MOMM*%
%ADD10R,0.8X0.9*%
%ADD11R,1.21999X0.91001*%
%ADD12R,2.0X2.49999*%
%ADD13R,0.3X1.25001*%
%ADD14R,0.91001X1.21999*%
%ADD15R,1.65001X4.49999*%
%ADD16R,0.532X1.07*%
%ADD17R,10.2X9.00001*%
%ADD18R,1.6079X3.49999*%
%ADD19R,1.6X3.49999*%
G75*


G04 PolygonModel Start*
G36*
G01X-3367382Y1979181D02*
G01X-3310813Y2035749D01*
G01X-3310813Y2042822D01*
G01X-3326933Y2058941D01*
G01X-3353096Y2032778D01*
G01X-3376430Y2056113D01*
G01X-3350267Y2082276D01*
G01X-3367382Y2099390D01*
G01X-3374453Y2099388D01*
G01X-3431021Y2042820D01*
G01X-3431021Y2035751D01*
G01X-3374453Y1979182D01*
G01X-3367382Y1979181D01*
G37*
G36*
G01X-3262018Y2211819D02*
G01X-3318587Y2155251D01*
G01X-3318587Y2148178D01*
G01X-3302467Y2132059D01*
G01X-3276304Y2158222D01*
G01X-3252970Y2134887D01*
G01X-3279133Y2108724D01*
G01X-3262018Y2091610D01*
G01X-3254947Y2091612D01*
G01X-3198379Y2148180D01*
G01X-3198379Y2155249D01*
G01X-3254947Y2211818D01*
G01X-3262018Y2211819D01*
G37*
G36*
G01X-3367382Y2169681D02*
G01X-3310813Y2226249D01*
G01X-3310813Y2233322D01*
G01X-3326933Y2249441D01*
G01X-3353096Y2223278D01*
G01X-3376430Y2246613D01*
G01X-3350267Y2272776D01*
G01X-3367382Y2289890D01*
G01X-3374453Y2289888D01*
G01X-3431021Y2233320D01*
G01X-3431021Y2226251D01*
G01X-3374453Y2169682D01*
G01X-3367382Y2169681D01*
G37*
G36*
G01X-3262018Y2402319D02*
G01X-3318587Y2345751D01*
G01X-3318587Y2338678D01*
G01X-3302467Y2322559D01*
G01X-3276304Y2348722D01*
G01X-3252970Y2325387D01*
G01X-3279133Y2299224D01*
G01X-3262018Y2282110D01*
G01X-3254947Y2282112D01*
G01X-3198379Y2338680D01*
G01X-3198379Y2345749D01*
G01X-3254947Y2402318D01*
G01X-3262018Y2402319D01*
G37*
G36*
G01X-2872082Y1979181D02*
G01X-2815513Y2035749D01*
G01X-2815513Y2042822D01*
G01X-2831633Y2058941D01*
G01X-2857796Y2032778D01*
G01X-2881130Y2056113D01*
G01X-2854967Y2082276D01*
G01X-2872082Y2099390D01*
G01X-2879153Y2099388D01*
G01X-2935721Y2042820D01*
G01X-2935721Y2035751D01*
G01X-2879153Y1979182D01*
G01X-2872082Y1979181D01*
G37*
G36*
G01X-2766718Y2211819D02*
G01X-2823287Y2155251D01*
G01X-2823287Y2148178D01*
G01X-2807167Y2132059D01*
G01X-2781004Y2158222D01*
G01X-2757670Y2134887D01*
G01X-2783833Y2108724D01*
G01X-2766718Y2091610D01*
G01X-2759647Y2091612D01*
G01X-2703079Y2148180D01*
G01X-2703079Y2155249D01*
G01X-2759647Y2211818D01*
G01X-2766718Y2211819D01*
G37*
G36*
G01X-2872082Y2169681D02*
G01X-2815513Y2226249D01*
G01X-2815513Y2233322D01*
G01X-2831633Y2249441D01*
G01X-2857796Y2223278D01*
G01X-2881130Y2246613D01*
G01X-2854967Y2272776D01*
G01X-2872082Y2289890D01*
G01X-2879153Y2289888D01*
G01X-2935721Y2233320D01*
G01X-2935721Y2226251D01*
G01X-2879153Y2169682D01*
G01X-2872082Y2169681D01*
G37*
G36*
G01X-2766718Y2402319D02*
G01X-2823287Y2345751D01*
G01X-2823287Y2338678D01*
G01X-2807167Y2322559D01*
G01X-2781004Y2348722D01*
G01X-2757670Y2325387D01*
G01X-2783833Y2299224D01*
G01X-2766718Y2282110D01*
G01X-2759647Y2282112D01*
G01X-2703079Y2338680D01*
G01X-2703079Y2345749D01*
G01X-2759647Y2402318D01*
G01X-2766718Y2402319D01*
G37*
G36*
G01X-3862682Y1979181D02*
G01X-3806113Y2035749D01*
G01X-3806113Y2042822D01*
G01X-3822233Y2058941D01*
G01X-3848396Y2032778D01*
G01X-3871730Y2056113D01*
G01X-3845567Y2082276D01*
G01X-3862682Y2099390D01*
G01X-3869753Y2099388D01*
G01X-3926321Y2042820D01*
G01X-3926321Y2035751D01*
G01X-3869753Y1979182D01*
G01X-3862682Y1979181D01*
G37*
G36*
G01X-3757318Y2211819D02*
G01X-3813887Y2155251D01*
G01X-3813887Y2148178D01*
G01X-3797767Y2132059D01*
G01X-3771604Y2158222D01*
G01X-3748270Y2134887D01*
G01X-3774433Y2108724D01*
G01X-3757318Y2091610D01*
G01X-3750247Y2091612D01*
G01X-3693679Y2148180D01*
G01X-3693679Y2155249D01*
G01X-3750247Y2211818D01*
G01X-3757318Y2211819D01*
G37*
G36*
G01X-3862682Y2169681D02*
G01X-3806113Y2226249D01*
G01X-3806113Y2233322D01*
G01X-3822233Y2249441D01*
G01X-3848396Y2223278D01*
G01X-3871730Y2246613D01*
G01X-3845567Y2272776D01*
G01X-3862682Y2289890D01*
G01X-3869753Y2289888D01*
G01X-3926321Y2233320D01*
G01X-3926321Y2226251D01*
G01X-3869753Y2169682D01*
G01X-3862682Y2169681D01*
G37*
G36*
G01X-3757318Y2402319D02*
G01X-3813887Y2345751D01*
G01X-3813887Y2338678D01*
G01X-3797767Y2322559D01*
G01X-3771604Y2348722D01*
G01X-3748270Y2325387D01*
G01X-3774433Y2299224D01*
G01X-3757318Y2282110D01*
G01X-3750247Y2282112D01*
G01X-3693679Y2338680D01*
G01X-3693679Y2345749D01*
G01X-3750247Y2402318D01*
G01X-3757318Y2402319D01*
G37*
G36*
G01X-2367082Y1979181D02*
G01X-2310513Y2035749D01*
G01X-2310513Y2042822D01*
G01X-2326633Y2058941D01*
G01X-2352796Y2032778D01*
G01X-2376130Y2056113D01*
G01X-2349967Y2082276D01*
G01X-2367082Y2099390D01*
G01X-2374153Y2099388D01*
G01X-2430721Y2042820D01*
G01X-2430721Y2035751D01*
G01X-2374153Y1979182D01*
G01X-2367082Y1979181D01*
G37*
G36*
G01X-2261718Y2211819D02*
G01X-2318287Y2155251D01*
G01X-2318287Y2148178D01*
G01X-2302167Y2132059D01*
G01X-2276004Y2158222D01*
G01X-2252670Y2134887D01*
G01X-2278833Y2108724D01*
G01X-2261718Y2091610D01*
G01X-2254647Y2091612D01*
G01X-2198079Y2148180D01*
G01X-2198079Y2155249D01*
G01X-2254647Y2211818D01*
G01X-2261718Y2211819D01*
G37*
G36*
G01X-2376782Y2169681D02*
G01X-2320213Y2226249D01*
G01X-2320213Y2233322D01*
G01X-2336333Y2249441D01*
G01X-2362496Y2223278D01*
G01X-2385830Y2246613D01*
G01X-2359667Y2272776D01*
G01X-2376782Y2289890D01*
G01X-2383853Y2289888D01*
G01X-2440421Y2233320D01*
G01X-2440421Y2226251D01*
G01X-2383853Y2169682D01*
G01X-2376782Y2169681D01*
G37*
G36*
G01X-2271418Y2402319D02*
G01X-2327987Y2345751D01*
G01X-2327987Y2338678D01*
G01X-2311867Y2322559D01*
G01X-2285704Y2348722D01*
G01X-2262370Y2325387D01*
G01X-2288533Y2299224D01*
G01X-2271418Y2282110D01*
G01X-2264347Y2282112D01*
G01X-2207779Y2338680D01*
G01X-2207779Y2345749D01*
G01X-2264347Y2402318D01*
G01X-2271418Y2402319D01*
G37*
G36*
G01X-4845599Y3462382D02*
G01X-4845599Y3382382D01*
G01X-4840597Y3377381D01*
G01X-4817801Y3377381D01*
G01X-4817801Y3414381D01*
G01X-4784801Y3414381D01*
G01X-4784801Y3377381D01*
G01X-4760598Y3377381D01*
G01X-4755599Y3382382D01*
G01X-4755599Y3462382D01*
G01X-4760598Y3467381D01*
G01X-4840597Y3467381D01*
G01X-4845599Y3462382D01*
G37*
G36*
G01X-4755601Y3223378D02*
G01X-4755601Y3303378D01*
G01X-4760603Y3308379D01*
G01X-4783399Y3308379D01*
G01X-4783399Y3271379D01*
G01X-4816399Y3271379D01*
G01X-4816399Y3308379D01*
G01X-4840602Y3308379D01*
G01X-4845601Y3303378D01*
G01X-4845601Y3223378D01*
G01X-4840602Y3218379D01*
G01X-4760603Y3218379D01*
G01X-4755601Y3223378D01*
G37*
G36*
G01X-4755601Y3538098D02*
G01X-4755601Y3618098D01*
G01X-4760603Y3623099D01*
G01X-4783399Y3623099D01*
G01X-4783399Y3586099D01*
G01X-4816399Y3586099D01*
G01X-4816399Y3623099D01*
G01X-4840602Y3623099D01*
G01X-4845601Y3618098D01*
G01X-4845601Y3538098D01*
G01X-4840602Y3533099D01*
G01X-4760603Y3533099D01*
G01X-4755601Y3538098D01*
G37*
G36*
G01X-4845599Y3777102D02*
G01X-4845599Y3697102D01*
G01X-4840597Y3692101D01*
G01X-4817801Y3692101D01*
G01X-4817801Y3729101D01*
G01X-4784801Y3729101D01*
G01X-4784801Y3692101D01*
G01X-4760598Y3692101D01*
G01X-4755599Y3697102D01*
G01X-4755599Y3777102D01*
G01X-4760598Y3782101D01*
G01X-4840597Y3782101D01*
G01X-4845599Y3777102D01*
G37*
G36*
G01X-3466600Y2674303D02*
G01X-3594598Y2674303D01*
G01X-3599599Y2679304D01*
G01X-3599599Y2794305D01*
G01X-3594598Y2799304D01*
G01X-3553595Y2799806D01*
G01X-3553595Y2754805D01*
G01X-3508596Y2754805D01*
G01X-3508596Y2798806D01*
G01X-3466600Y2799304D01*
G01X-3461598Y2794305D01*
G01X-3461598Y2679304D01*
G01X-3466600Y2674303D01*
G37*
G36*
G01X-3594600Y3015298D02*
G01X-3466602Y3015298D01*
G01X-3461601Y3010296D01*
G01X-3461601Y2895295D01*
G01X-3466602Y2890296D01*
G01X-3507605Y2889794D01*
G01X-3507605Y2934795D01*
G01X-3552604Y2934795D01*
G01X-3552604Y2890794D01*
G01X-3594600Y2890296D01*
G01X-3599602Y2895295D01*
G01X-3599602Y3010296D01*
G01X-3594600Y3015298D01*
G37*
G36*
G01X-2758122Y3391400D02*
G01X-2758122Y3263402D01*
G01X-2763124Y3258401D01*
G01X-2878125Y3258401D01*
G01X-2883124Y3263402D01*
G01X-2883626Y3304405D01*
G01X-2838625Y3304405D01*
G01X-2838625Y3349404D01*
G01X-2882626Y3349404D01*
G01X-2883124Y3391400D01*
G01X-2878125Y3396402D01*
G01X-2763124Y3396402D01*
G01X-2758122Y3391400D01*
G37*
G36*
G01X-3099117Y3263400D02*
G01X-3099117Y3391398D01*
G01X-3094116Y3396399D01*
G01X-2979115Y3396399D01*
G01X-2974116Y3391398D01*
G01X-2973614Y3350395D01*
G01X-3018615Y3350395D01*
G01X-3018615Y3305396D01*
G01X-2974614Y3305396D01*
G01X-2974116Y3263400D01*
G01X-2979115Y3258398D01*
G01X-3094116Y3258398D01*
G01X-3099117Y3263400D01*
G37*
G36*
G01X-3238000Y2674303D02*
G01X-3365998Y2674303D01*
G01X-3370999Y2679304D01*
G01X-3370999Y2794305D01*
G01X-3365998Y2799304D01*
G01X-3324995Y2799806D01*
G01X-3324995Y2754805D01*
G01X-3279996Y2754805D01*
G01X-3279996Y2798806D01*
G01X-3238000Y2799304D01*
G01X-3232998Y2794305D01*
G01X-3232998Y2679304D01*
G01X-3238000Y2674303D01*
G37*
G36*
G01X-3366000Y3015298D02*
G01X-3238002Y3015298D01*
G01X-3233001Y3010296D01*
G01X-3233001Y2895295D01*
G01X-3238002Y2890296D01*
G01X-3279005Y2889794D01*
G01X-3279005Y2934795D01*
G01X-3324004Y2934795D01*
G01X-3324004Y2890794D01*
G01X-3366000Y2890296D01*
G01X-3371002Y2895295D01*
G01X-3371002Y3010296D01*
G01X-3366000Y3015298D01*
G37*

G04 Pad Start*
G54D10*
G01X-2858618Y3149600D03*
G01X-2998622Y3149600D03*
G01X-2850998Y2956560D03*
G01X-2991002Y2956560D03*
G54D11*
G01X-3263900Y3783010D03*
G01X-3263900Y3455990D03*
G54D12*
G01X-2277938Y845033D03*
G01X-2965947Y841527D03*
G54D13*
G01X-2446949Y1099033D03*
G01X-2496936Y1099033D03*
G01X-2546949Y1099033D03*
G01X-2596936Y1099033D03*
G01X-2646949Y1099033D03*
G01X-2696936Y1099033D03*
G01X-2746949Y1099033D03*
G01X-2796936Y1099033D03*
G54D12*
G01X-3403158Y845033D03*
G01X-4091167Y841527D03*
G54D13*
G01X-3572169Y1099033D03*
G01X-3622156Y1099033D03*
G01X-3672169Y1099033D03*
G01X-3722156Y1099033D03*
G01X-3772169Y1099033D03*
G01X-3822156Y1099033D03*
G01X-3872169Y1099033D03*
G01X-3922156Y1099033D03*
G54D14*
G01X-3946210Y2806700D03*
G01X-4273230Y2806700D03*
G54D15*
G01X-2590800Y3588601D03*
G01X-2590800Y4488599D03*
G01X-1447800Y3588601D03*
G01X-1447800Y4488599D03*
G54D16*
G01X-3414647Y1600985D03*
G01X-3509643Y1827985D03*
G01X-3319651Y1827985D03*
G01X-2914647Y1600985D03*
G01X-3009643Y1827985D03*
G01X-2819651Y1827985D03*
G01X-3914647Y1600985D03*
G01X-4009643Y1827985D03*
G01X-3819651Y1827985D03*
G01X-2414647Y1600985D03*
G01X-2509643Y1827985D03*
G01X-2319651Y1827985D03*
G01X-1914647Y1600985D03*
G01X-2009643Y1827985D03*
G01X-1819651Y1827985D03*
G54D17*
G01X-4114800Y4210050D03*
G54D19*
G01X-3860800Y3130550D03*
G01X-4368800Y3130550D03*
G36*
G01X-7243633Y2538435D02*
G02X-7291202Y2586004I1142J48711D01*
G01X-7291202Y2667979D01*
G02X-7241632Y2711765I47192J-3475D01*
G01X-6986627Y2711765D01*
G02X-6899297Y2624435I0J-87330D01*
G02X-6985296Y2538435I-86000J0D01*
G01X-7243633Y2538435D01*
G37*
G36*
G01X-7243631Y2796434D02*
G02X-7291200Y2844003I1142J48711D01*
G01X-7291200Y2925979D01*
G02X-7241631Y2969764I47192J-3475D01*
G01X-6986625Y2969764D01*
G02X-6899295Y2882434I0J-87330D01*
G02X-6985295Y2796434I-86000J0D01*
G01X-7243631Y2796434D01*
G37*
G36*
G01X-7243631Y3050434D02*
G02X-7291200Y3098003I1142J48711D01*
G01X-7291200Y3179978D01*
G02X-7241631Y3223764I47192J-3475D01*
G01X-6986625Y3223764D01*
G02X-6899295Y3136434I0J-87330D01*
G02X-6985295Y3050434I-86000J0D01*
G01X-7243631Y3050434D01*
G37*
G36*
G01X-7243631Y3304433D02*
G02X-7291200Y3352002I1142J48711D01*
G01X-7291200Y3433978D01*
G02X-7241631Y3477763I47192J-3475D01*
G01X-6986625Y3477763D01*
G02X-6899295Y3390433I0J-87330D01*
G02X-6985295Y3304433I-86000J0D01*
G01X-7243631Y3304433D01*
G37*
G36*
G01X-7243631Y3558433D02*
G02X-7291200Y3606002I1142J48711D01*
G01X-7291200Y3687977D01*
G02X-7241631Y3731763I47192J-3475D01*
G01X-6986625Y3731763D01*
G02X-6899295Y3644433I0J-87330D01*
G02X-6985295Y3558433I-86000J0D01*
G01X-7243631Y3558433D01*
G37*
G36*
G01X-7243631Y3812432D02*
G02X-7291200Y3860001I1142J48711D01*
G01X-7291200Y3941977D01*
G02X-7241631Y3985762I47192J-3475D01*
G01X-6986625Y3985762D01*
G02X-6899295Y3898432I0J-87330D01*
G02X-6985295Y3812432I-86000J0D01*
G01X-7243631Y3812432D01*
G37*
G36*
G01X-7243631Y4066432D02*
G02X-7291200Y4114001I1142J48711D01*
G01X-7291200Y4195976D01*
G02X-7241631Y4239762I47192J-3475D01*
G01X-6986625Y4239762D01*
G02X-6899295Y4152432I0J-87330D01*
G02X-6985295Y4066432I-86000J0D01*
G01X-7243631Y4066432D01*
G37*
G36*
G01X-7243631Y4320431D02*
G02X-7291200Y4368000I1142J48711D01*
G01X-7291200Y4449976D01*
G02X-7241631Y4493761I47192J-3475D01*
G01X-6986625Y4493761D01*
G02X-6899295Y4406431I0J-87330D01*
G02X-6985295Y4320431I-86000J0D01*
G01X-7243631Y4320431D01*
G37*
G36*
G01X-5126169Y2716569D02*
G02X-5078600Y2669000I-1142J-48711D01*
G01X-5078600Y2587025D01*
G02X-5128169Y2543239I-47192J3475D01*
G01X-5383175Y2543239D01*
G02X-5470505Y2630569I0J87330D01*
G02X-5384505Y2716569I86000J0D01*
G01X-5126169Y2716569D01*
G37*
G36*
G01X-5126169Y2970569D02*
G02X-5078600Y2922999I-1142J-48711D01*
G01X-5078600Y2841024D01*
G02X-5128169Y2797239I-47192J3475D01*
G01X-5383175Y2797239D01*
G02X-5470505Y2884569I0J87330D01*
G02X-5384505Y2970569I86000J0D01*
G01X-5126169Y2970569D01*
G37*
G36*
G01X-5126169Y3224568D02*
G02X-5078600Y3176999I-1142J-48711D01*
G01X-5078600Y3095024D01*
G02X-5128169Y3051238I-47192J3475D01*
G01X-5383175Y3051238D01*
G02X-5470505Y3138568I0J87330D01*
G02X-5384505Y3224568I86000J0D01*
G01X-5126169Y3224568D01*
G37*
G36*
G01X-5126169Y3478568D02*
G02X-5078600Y3430998I-1142J-48711D01*
G01X-5078600Y3349023D01*
G02X-5128169Y3305237I-47192J3475D01*
G01X-5383175Y3305237D01*
G02X-5470505Y3392568I0J87330D01*
G02X-5384505Y3478568I86000J0D01*
G01X-5126169Y3478568D01*
G37*
G36*
G01X-5126169Y3732567D02*
G02X-5078600Y3684998I-1142J-48711D01*
G01X-5078600Y3603023D01*
G02X-5128169Y3559237I-47192J3475D01*
G01X-5383175Y3559237D01*
G02X-5470505Y3646567I0J87330D01*
G02X-5384505Y3732567I86000J0D01*
G01X-5126169Y3732567D01*
G37*
G36*
G01X-5126169Y3986567D02*
G02X-5078600Y3938997I-1142J-48711D01*
G01X-5078600Y3857022D01*
G02X-5128169Y3813236I-47192J3475D01*
G01X-5383175Y3813236D01*
G02X-5470505Y3900567I0J87330D01*
G02X-5384505Y3986567I86000J0D01*
G01X-5126169Y3986567D01*
G37*
G36*
G01X-5126169Y4240566D02*
G02X-5078600Y4192997I-1142J-48711D01*
G01X-5078600Y4111022D01*
G02X-5128169Y4067236I-47192J3475D01*
G01X-5383175Y4067236D01*
G02X-5470505Y4154566I0J87330D01*
G02X-5384505Y4240566I86000J0D01*
G01X-5126169Y4240566D01*
G37*
G36*
G01X-5126167Y4498566D02*
G02X-5078598Y4450996I-1142J-48711D01*
G01X-5078598Y4369021D01*
G02X-5128168Y4325235I-47192J3475D01*
G01X-5383173Y4325235D01*
G02X-5470503Y4412566I0J87330D01*
G02X-5384504Y4498566I86000J0D01*
G01X-5126167Y4498566D01*
G37*
G04 Pad End*

M02*

