G04 Layer: BottomLayer*
G04 EasyEDA Pro v2.2.45.4, 2025-12-19 14:04:37*
G04 Gerber Generator version 0.3*
G04 Scale: 100 percent, Rotated: No, Reflected: No*
G04 Dimensions in millimeters*
G04 Leading zeros omitted, absolute positions, 4 integers and 5 decimals*
G04 Generated by one-click*
%FSLAX45Y45*%
%MOMM*%
%AMRoundRect*1,1,$1,$2,$3*1,1,$1,$4,$5*1,1,$1,0-$2,0-$3*1,1,$1,0-$4,0-$5*20,1,$1,$2,$3,$4,$5,0*20,1,$1,$4,$5,0-$2,0-$3,0*20,1,$1,0-$2,0-$3,0-$4,0-$5,0*20,1,$1,0-$4,0-$5,$2,$3,0*4,1,4,$2,$3,$4,$5,0-$2,0-$3,0-$4,0-$5,$2,$3,0*%
%ADD10C,0.2032*%
%ADD11C,1.8*%
%ADD12RoundRect,0.76X-0.57X-0.57X-0.57X0.57*%
%ADD13RoundRect,0.76X-0.57X0.57X0.57X0.57*%
%ADD14RoundRect,0.74X-0.555X-0.555X-0.555X0.555*%
%ADD15RoundRect,1.3626X-1.02X-1.02X-1.02X1.02*%
%ADD16RoundRect,1.36X-1.02X-1.02X-1.02X1.02*%
%ADD17C,1.0*%
%ADD18C,0.7*%
%ADD19C,0.5*%
%ADD20C,0.61*%
%ADD21C,0.19304*%
%ADD22C,0.254*%
%ADD23C,1.5*%
G75*


G04 Copper Start*
G36*
G01X-6411214Y3200400D02*
G01X-6409569Y3183600D01*
G01X-6404697Y3167438D01*
G01X-6396783Y3152529D01*
G01X-6386127Y3139437D01*
G01X-6386598Y3135863D01*
G01X-6435222Y3135863D01*
G01X-6603806Y3304447D01*
G01X-6603806Y3373682D01*
G01X-6605459Y3386238D01*
G01X-6610306Y3397939D01*
G01X-6618015Y3407986D01*
G01X-6645280Y3435251D01*
G01X-6645280Y4231386D01*
G01X-5457800Y4231386D01*
G01X-5430336Y4233186D01*
G01X-5403341Y4238556D01*
G01X-5377278Y4247403D01*
G01X-5352593Y4259576D01*
G01X-5329708Y4274867D01*
G01X-5309015Y4293015D01*
G01X-5290867Y4313708D01*
G01X-5275576Y4336593D01*
G01X-5263403Y4361278D01*
G01X-5254556Y4387341D01*
G01X-5249186Y4414336D01*
G01X-5247386Y4441800D01*
G01X-5247386Y4727600D01*
G01X-5248216Y4746267D01*
G01X-5250698Y4764786D01*
G01X-986400Y4764786D01*
G01X-961373Y4762816D01*
G01X-936961Y4756956D01*
G01X-913768Y4747349D01*
G01X-892362Y4734231D01*
G01X-873273Y4717927D01*
G01X-856968Y4698837D01*
G01X-843851Y4677432D01*
G01X-834244Y4654238D01*
G01X-828384Y4629827D01*
G01X-826414Y4604800D01*
G01X-826414Y2499360D01*
G01X-1289785Y2499360D01*
G01X-1273536Y2517088D01*
G01X-1259818Y2536841D01*
G01X-1248881Y2558258D01*
G01X-1240924Y2580952D01*
G01X-1236091Y2604511D01*
G01X-1234470Y2628505D01*
G01X-1234470Y2832505D01*
G01X-1236286Y2857896D01*
G01X-1241697Y2882770D01*
G01X-1250593Y2906620D01*
G01X-1262792Y2928963D01*
G01X-1278048Y2949341D01*
G01X-1296048Y2967341D01*
G01X-1316426Y2982596D01*
G01X-1338768Y2994796D01*
G01X-1362619Y3003692D01*
G01X-1387493Y3009103D01*
G01X-1412884Y3010919D01*
G01X-1616884Y3010919D01*
G01X-1642275Y3009103D01*
G01X-1667149Y3003692D01*
G01X-1691000Y2994796D01*
G01X-1713342Y2982596D01*
G01X-1733720Y2967341D01*
G01X-1751720Y2949341D01*
G01X-1766975Y2928963D01*
G01X-1779175Y2906620D01*
G01X-1788071Y2882770D01*
G01X-1793482Y2857896D01*
G01X-1795298Y2832505D01*
G01X-1795298Y2628505D01*
G01X-1793677Y2604511D01*
G01X-1788844Y2580952D01*
G01X-1780887Y2558258D01*
G01X-1769950Y2536841D01*
G01X-1756232Y2517088D01*
G01X-1739983Y2499360D01*
G01X-1803400Y2499360D01*
G01X-1820248Y2497701D01*
G01X-1836449Y2492786D01*
G01X-1851379Y2484806D01*
G01X-1864466Y2474066D01*
G01X-1875206Y2460979D01*
G01X-1883186Y2446049D01*
G01X-1888101Y2429848D01*
G01X-1889760Y2413000D01*
G01X-1890946Y2403254D01*
G01X-1894435Y2394076D01*
G01X-1900022Y2386004D01*
G01X-1907383Y2379506D01*
G01X-1918531Y2383840D01*
G01X-1930400Y2385314D01*
G01X-2469105Y2385314D01*
G01X-2607295Y2523505D01*
G01X-2617343Y2531214D01*
G01X-2629044Y2536061D01*
G01X-2641600Y2537714D01*
G01X-3736086Y2537714D01*
G01X-3736086Y2819400D01*
G01X-3737739Y2831956D01*
G01X-3742586Y2843657D01*
G01X-3750295Y2853705D01*
G01X-3902695Y3006105D01*
G01X-3912743Y3013814D01*
G01X-3924444Y3018661D01*
G01X-3937000Y3020314D01*
G01X-4262345Y3020314D01*
G01X-4269486Y3027455D01*
G01X-4269486Y3124200D01*
G01X-2395614Y3124200D01*
G01X-2393723Y3097756D01*
G01X-2388087Y3071850D01*
G01X-2378822Y3047010D01*
G01X-2366117Y3023741D01*
G01X-2350229Y3002518D01*
G01X-2331482Y2983771D01*
G01X-2310259Y2967883D01*
G01X-2286990Y2955178D01*
G01X-2262150Y2945913D01*
G01X-2236244Y2940277D01*
G01X-2209800Y2938386D01*
G01X-2183356Y2940277D01*
G01X-2157450Y2945913D01*
G01X-2132610Y2955178D01*
G01X-2109341Y2967883D01*
G01X-2088118Y2983771D01*
G01X-2069371Y3002518D01*
G01X-2053483Y3023741D01*
G01X-2040778Y3047010D01*
G01X-2031513Y3071850D01*
G01X-2025877Y3097756D01*
G01X-2023986Y3124200D01*
G01X-2025877Y3150644D01*
G01X-2031513Y3176550D01*
G01X-2040778Y3201390D01*
G01X-2053483Y3224659D01*
G01X-2069371Y3245882D01*
G01X-2088118Y3264629D01*
G01X-2109341Y3280517D01*
G01X-2132610Y3293222D01*
G01X-2157450Y3302487D01*
G01X-2183356Y3308123D01*
G01X-2209800Y3310014D01*
G01X-2236244Y3308123D01*
G01X-2262150Y3302487D01*
G01X-2286990Y3293222D01*
G01X-2310259Y3280517D01*
G01X-2331482Y3264629D01*
G01X-2350229Y3245882D01*
G01X-2366117Y3224659D01*
G01X-2378822Y3201390D01*
G01X-2388087Y3176550D01*
G01X-2393723Y3150644D01*
G01X-2395614Y3124200D01*
G01X-2395614Y3124200D01*
G01X-4269486Y3124200D01*
G01X-4269486Y3515585D01*
G01X-4226785Y3558286D01*
G01X-4160010Y3558286D01*
G01X-4147639Y3549188D01*
G01X-4133506Y3543179D01*
G01X-4118371Y3540582D01*
G01X-4103044Y3541536D01*
G01X-4088347Y3545990D01*
G01X-4075069Y3553706D01*
G01X-4063922Y3564268D01*
G01X-4055503Y3577111D01*
G01X-4050264Y3591547D01*
G01X-4048486Y3606800D01*
G01X-4050264Y3622053D01*
G01X-4055503Y3636489D01*
G01X-4063922Y3649332D01*
G01X-4075069Y3659894D01*
G01X-4088347Y3667610D01*
G01X-4103044Y3672064D01*
G01X-4118371Y3673018D01*
G01X-4133506Y3670421D01*
G01X-4147639Y3664412D01*
G01X-4160010Y3655314D01*
G01X-4246880Y3655314D01*
G01X-4259436Y3653661D01*
G01X-4271137Y3648814D01*
G01X-4281185Y3641105D01*
G01X-4320286Y3602003D01*
G01X-4320286Y3657600D01*
G01X-4321939Y3670156D01*
G01X-4326786Y3681857D01*
G01X-4334495Y3691905D01*
G01X-4479456Y3836865D01*
G01X-4489504Y3844575D01*
G01X-4501204Y3849421D01*
G01X-4513761Y3851075D01*
G01X-5839865Y3851075D01*
G01X-5923076Y3934285D01*
G01X-5933123Y3941995D01*
G01X-5944824Y3946841D01*
G01X-5957380Y3948494D01*
G01X-6269700Y3948494D01*
G01X-6281327Y3958443D01*
G01X-6294819Y3965662D01*
G01X-6309547Y3969815D01*
G01X-6324823Y3970706D01*
G01X-6339934Y3968294D01*
G01X-6354175Y3962693D01*
G01X-6366879Y3954163D01*
G01X-6377454Y3943104D01*
G01X-6385407Y3930030D01*
G01X-6390365Y3915554D01*
G01X-6392098Y3900350D01*
G01X-6390524Y3885129D01*
G01X-6385717Y3870601D01*
G01X-6377902Y3857446D01*
G01X-6383591Y3847069D01*
G01X-6385560Y3835400D01*
G01X-6385560Y3508952D01*
G01X-6396578Y3490710D01*
G01X-6404643Y3470983D01*
G01X-6409561Y3450247D01*
G01X-6411214Y3429000D01*
G01X-6411214Y3200400D01*
G37*
G54D10*
G01X-6411214Y3200400D02*
G03X-6386127Y3139437I86614J0D01*
G02X-6386598Y3135863I-90873J10163D01*
G01X-6435222Y3135863D01*
G01X-6603806Y3304447D01*
G01X-6603806Y3373682D01*
G03X-6618015Y3407986I-48514J0D01*
G01X-6645280Y3435251D01*
G01X-6645280Y4231386D01*
G01X-5457800Y4231386D01*
G03X-5247386Y4441800I0J210414D01*
G01X-5247386Y4727600D01*
G03X-5250698Y4764786I-210414J0D01*
G01X-986400Y4764786D01*
G02X-826414Y4604800I0J-159986D01*
G01X-826414Y2499360D01*
G01X-1289785Y2499360D01*
G03X-1234470Y2628505I-123099J129145D01*
G01X-1234470Y2832505D01*
G03X-1412884Y3010919I-178414J0D01*
G01X-1616884Y3010919D01*
G03X-1795298Y2832505I0J-178414D01*
G01X-1795298Y2628505D01*
G03X-1739983Y2499360I178414J0D01*
G01X-1803400Y2499360D01*
G03X-1889760Y2413000I0J-86360D01*
G02X-1907383Y2379506I-40640J0D01*
G03X-1930400Y2385314I-23017J-42706D01*
G01X-2469105Y2385314D01*
G01X-2607295Y2523505D01*
G03X-2641600Y2537714I-34305J-34305D01*
G01X-3736086Y2537714D01*
G01X-3736086Y2819400D01*
G03X-3750295Y2853705I-48514J0D01*
G01X-3902695Y3006105D01*
G03X-3937000Y3020314I-34305J-34305D01*
G01X-4262345Y3020314D01*
G01X-4269486Y3027455D01*
G01X-4269486Y3515585D01*
G01X-4226785Y3558286D01*
G01X-4160010Y3558286D01*
G03X-4048486Y3606800I45210J48514D01*
G03X-4160010Y3655314I-66314J0D01*
G01X-4246880Y3655314D01*
G03X-4281185Y3641105I0J-48514D01*
G01X-4320286Y3602003D01*
G01X-4320286Y3657600D01*
G03X-4334495Y3691905I-48514J0D01*
G01X-4479456Y3836865D01*
G03X-4513761Y3851075I-34305J-34305D01*
G01X-5839865Y3851075D01*
G01X-5923076Y3934285D01*
G03X-5957380Y3948494I-34305J-34305D01*
G01X-6269700Y3948494D01*
G03X-6366879Y3954163I-51585J-48514D01*
G03X-6377902Y3857446I45594J-54183D01*
G03X-6385560Y3835400I27902J-22046D01*
G01X-6385560Y3508952D01*
G03X-6411214Y3429000I111760J-79952D01*
G01X-6411214Y3200400D01*
G01X-2395614Y3124200D02*
G03X-2023986Y3124200I185814J0D01*
G03X-2395614Y3124200I-185814J0D01*
G54D11*
G01X-1514884Y2900251D02*
G01X-1514884Y3000759D01*
G01X-1684630Y2730505D02*
G01X-1785138Y2730505D01*
G01X-1345138Y2730505D02*
G01X-1244630Y2730505D01*
G04 Copper End*

G04 PolygonModel Start*
G36*
G01X-1800860Y889000D02*
G02X-1765300Y853440I0J-35560D01*
G01X-1765300Y716280D01*
G02X-1821180Y660400I-55880J0D01*
G01X-2362200Y660400D01*
G02X-2413000Y711200I0J50800D01*
G01X-2413000Y1041400D01*
G03X-2489200Y1117600I-76200J0D01*
G01X-2895600Y1117600D01*
G02X-2971800Y1193800I0J76200D01*
G01X-2971800Y1568450D01*
G02X-2886710Y1653540I85090J0D01*
G01X-2593340Y1653540D01*
G02X-2514600Y1574800I0J-78740D01*
G01X-2514600Y1397000D01*
G03X-2438400Y1320800I76200J0D01*
G01X-2260600Y1320800D01*
G02X-2159000Y1219200I0J-101600D01*
G01X-2159000Y965200D01*
G03X-2082800Y889000I76200J0D01*
G01X-1800860Y889000D01*
G37*
G36*
G01X-3098800Y1397000D02*
G03X-3048000Y1447800I0J50800D01*
G01X-3048000Y1600200D01*
G02X-2946400Y1701800I101600J0D01*
G01X-2590800Y1701800D01*
G02X-2463800Y1574800I0J-127000D01*
G01X-2463800Y1422400D01*
G03X-2413000Y1371600I50800J0D01*
G01X-2235200Y1371600D01*
G02X-2108200Y1244600I0J-127000D01*
G01X-2108200Y1016000D01*
G03X-2032000Y939800I76200J0D01*
G01X-1778000Y939800D01*
G02X-1701800Y863600I0J-76200D01*
G03X-1600200Y762000I101600J0D01*
G01X-1549400Y762000D01*
G03X-1574800Y736600I0J-25400D01*
G01X-1574800Y726525D01*
G03X-1512037Y789288I0J62763D01*
G01X-1512037Y900398D01*
G03X-1549400Y990600I-127564J0D01*
G01X-1825718Y1266918D01*
G02X-1879600Y1397000I130082J130082D01*
G01X-1879600Y1498600D01*
G03X-1955800Y1574800I-76200J0D01*
G01X-2082800Y1574800D01*
G02X-2184400Y1676400I0J101600D01*
G01X-2184400Y1854200D01*
G03X-2260600Y1930400I-76200J0D01*
G01X-3378200Y1930400D01*
G03X-3464560Y1844040I0J-86360D01*
G01X-3464560Y1436620D01*
G03X-3424940Y1397000I39620J0D01*
G01X-3098800Y1397000D01*
G37*
G36*
G01X-1447800Y787400D02*
G01X-1447800Y918758D01*
G03X-1498600Y1041400I-173442J0D01*
G01X-1774918Y1317718D01*
G02X-1828800Y1447800I130082J130082D01*
G01X-1828800Y1524000D01*
G03X-1930400Y1625600I-101600J0D01*
G01X-2057400Y1625600D01*
G02X-2133600Y1701800I0J76200D01*
G01X-2133600Y1879600D01*
G03X-2235200Y1981200I-101600J0D01*
G01X-3403600Y1981200D01*
G03X-3530600Y1854200I0J-127000D01*
G01X-3530600Y1487800D01*
G02X-3621400Y1397000I-90800J0D01*
G01X-3898361Y1397000D01*
G02X-3938361Y1437000I0J40000D01*
G01X-3938361Y2030639D01*
G02X-3810000Y2159000I128361J0D01*
G01X-1981200Y2159000D01*
G02X-1905000Y2082800I0J-76200D01*
G01X-1905000Y1955800D01*
G03X-1854200Y1905000I50800J0D01*
G01X-1574800Y1905000D01*
G02X-1524000Y1854200I0J-50800D01*
G01X-1524000Y1356721D01*
G03X-1498600Y1295400I86721J0D01*
G01X-1314774Y1111574D01*
G02X-1257300Y972820I-138754J-138754D01*
G01X-1257300Y792661D01*
G02X-1270000Y762000I-43361J0D01*
G01X-1386479Y762000D01*
G02X-1447800Y787400I0J86721D01*
G37*
G36*
G01X-3810000Y1016000D02*
G03X-3784600Y1041400I0J25400D01*
G01X-3784600Y1063249D01*
G02X-3755649Y1092200I28951J0D01*
G01X-3048000Y1092200D01*
G03X-3022600Y1117600I0J25400D01*
G01X-3022600Y1320800D01*
G03X-3048000Y1346200I-25400J0D01*
G01X-4056380Y1346200D01*
G02X-4152900Y1442720I0J96520D01*
G03X-4229100Y1366520I0J-76200D01*
G01X-4229100Y1079500D01*
G03X-4165600Y1016000I63500J0D01*
G01X-3810000Y1016000D01*
G37*
G36*
G01X-4734560Y2890520D02*
G01X-4734560Y2651249D01*
G03X-4699000Y2565400I121409J0D01*
G01X-4615361Y2481761D01*
G03X-4572000Y2463800I43361J43361D01*
G01X-4191000Y2463800D01*
G03X-4165600Y2489200I0J25400D01*
G01X-4165600Y2641600D01*
G03X-4191000Y2667000I-25400J0D01*
G01X-4378960Y2667000D01*
G02X-4584700Y2872740I0J205740D01*
G01X-4716780Y2872740D01*
G02X-4734560Y2890520I0J17780D01*
G37*
G36*
G01X-6375400Y3429000D02*
G02X-6273800Y3530600I101600J0D01*
G01X-6096000Y3530600D01*
G01X-6096000Y3251200D01*
G02X-6197600Y3149600I-101600J0D01*
G01X-6324600Y3149600D01*
G02X-6375400Y3200400I0J50800D01*
G01X-6375400Y3429000D01*
G37*

G04 Rect Start*
G36*
G01X-3939540Y1437000D02*
G01X-3939540Y1613540D01*
G02X-3899540Y1653540I40000J0D01*
G01X-3621400Y1653540D01*
G02X-3581400Y1613540I0J-40000D01*
G01X-3581400Y1437000D01*
G02X-3621400Y1397000I-40000J0D01*
G01X-3899540Y1397000D01*
G02X-3939540Y1437000I0J40000D01*
G37*
G36*
G01X-6903720Y3110700D02*
G01X-6903720Y3163100D01*
G02X-6853720Y3213100I50000J0D01*
G01X-6707340Y3213100D01*
G02X-6657340Y3163100I0J-50000D01*
G01X-6657340Y3110700D01*
G02X-6707340Y3060700I-50000J0D01*
G01X-6853720Y3060700D01*
G02X-6903720Y3110700I0J50000D01*
G37*
G04 Rect End*

G04 Pad Start*
G54D12*
G01X-1861091Y789705D03*
G01X-1353091Y789705D03*
G01X-1607091Y789705D03*
G54D13*
G01X-1095384Y1746004D03*
G01X-1095384Y1414904D03*
G01X-1095384Y791704D03*
G01X-1349384Y1746004D03*
G01X-1349384Y1414904D03*
G54D14*
G01X-4589784Y878782D03*
G01X-4589784Y1132782D03*
G01X-4589784Y1386782D03*
G01X-4589784Y1640782D03*
G01X-4589784Y1894782D03*
G01X-4589784Y2148782D03*
G01X-4843784Y878782D03*
G01X-4843784Y1132782D03*
G01X-4843784Y1386782D03*
G01X-4843784Y1640782D03*
G01X-4843784Y1894782D03*
G01X-4843784Y2148782D03*
G54D16*
G01X-1514884Y2229617D03*
G01X-1514884Y2730505D03*
G04 Pad End*

G04 Via Start*
G54D17*
G01X-2209800Y3695700D03*
G01X-2059800Y3695700D03*
G01X-1909800Y3695700D03*
G01X-1986140Y3571240D03*
G01X-2136140Y3571240D03*
G01X-2258060Y2519540D03*
G01X-2258060Y2669540D03*
G01X-2133600Y2743200D03*
G01X-2133600Y2593200D03*
G01X-2133600Y2443200D03*
G01X-4714240Y4445610D03*
G01X-4876800Y4346950D03*
G01X-4876800Y4546950D03*
G01X-4876800Y3946950D03*
G01X-4876800Y4146950D03*
G01X-4714240Y4245610D03*
G01X-4714240Y4045610D03*
G54D18*
G01X-2693539Y2247413D03*
G54D17*
G01X-3314700Y1485900D03*
G01X-3200400Y1562100D03*
G01X-3700400Y1562100D03*
G01X-3814700Y1485900D03*
G01X-2725800Y1562100D03*
G01X-2840100Y1485900D03*
G54D18*
G01X-3188839Y2247413D03*
G01X-3684139Y2247413D03*
G01X-1828800Y1993900D03*
G54D19*
G01X-2496936Y988923D03*
G01X-2546949Y877883D03*
G01X-2596936Y980203D03*
G01X-2646949Y813283D03*
G01X-2696936Y882583D03*
G01X-3872169Y799483D03*
G01X-3772169Y813283D03*
G01X-3622156Y1006703D03*
G01X-3672169Y903283D03*
G01X-3722156Y972583D03*
G01X-3822156Y882583D03*
G01X-2552700Y774700D03*
G54D18*
G01X-2198239Y2247413D03*
G01X-2138726Y2905457D03*
G01X-2280874Y3342943D03*
G01X-2023726Y3259390D03*
G01X-2023726Y2989010D03*
G01X-2280874Y2905457D03*
G01X-2395874Y2989010D03*
G01X-2439800Y3124200D03*
G01X-2395874Y3259390D03*
G01X-1979800Y3124200D03*
G01X-2138726Y3342943D03*
G01X-3274060Y1272540D03*
G01X-3135993Y1270000D03*
G01X-3200400Y1168400D03*
G01X-3073400Y1168400D03*
G01X-4051300Y1092200D03*
G01X-4178300Y1092200D03*
G01X-4889500Y2730500D03*
G01X-4487573Y2530963D03*
G01X-4253230Y2528570D03*
G01X-4368800Y2606040D03*
G01X-4622800Y2606040D03*
G01X-4888900Y2870200D03*
G01X-6299200Y3225800D03*
G01X-6299200Y3352800D03*
G01X-6223000Y3454400D03*
G01X-5585909Y3168294D03*
G01X-6830060Y3134360D03*
G01X-6718025Y3134360D03*
G01X-6527800Y3403600D03*
G01X-6527800Y3515635D03*
G01X-6094178Y2709880D03*
G01X-5956078Y2711300D03*
G01X-5533498Y2679700D03*
G01X-5679878Y2749700D03*
G01X-5757678Y2845100D03*
G54D20*
G01X-5963000Y3084400D03*
G54D18*
G01X-6321285Y3899980D03*
G01X-6052045Y3817280D03*
G01X-6219685Y3810780D03*
G01X-5765800Y3632200D03*
G01X-5852160Y2786380D03*
G01X-6324600Y2590800D03*
G54D20*
G01X-4114800Y3606800D03*
G54D18*
G01X-6756400Y3302000D03*
G01X-6817360Y3898900D03*
G01X-5588000Y3276600D03*
G01X-6775804Y4407773D03*
G54D17*
G01X-2921000Y2667000D03*
G01X-2590800Y2794000D03*
G01X-1727200Y3327400D03*
G04 Via End*

G04 Track Start*
G54D21*
G01X-3375669Y853431D02*
G01X-3346517Y882583D01*
G01X-2696936Y882583D01*
G01X-3822156Y882583D02*
G01X-3740083Y882583D01*
G01X-3710931Y853431D01*
G01X-3375669Y853431D01*
G01X-3772169Y813283D02*
G01X-2646949Y813283D01*
G01X-3722156Y972583D02*
G01X-3664983Y972583D01*
G01X-3642360Y949960D01*
G01X-3622156Y1006703D02*
G01X-3600159Y1028700D01*
G01X-3642360Y949960D02*
G01X-3469640Y949960D01*
G01X-2654300Y937260D02*
G01X-3395980Y937260D01*
G01X-3429957Y903283D01*
G01X-3672169Y903283D01*
G01X-3469640Y949960D02*
G01X-3439397Y980203D01*
G01X-2596936Y980203D01*
G01X-3600159Y1028700D02*
G01X-2667000Y1028700D01*
G01X-2743200Y762000D02*
G01X-2715260Y734060D01*
G01X-3834686Y762000D02*
G01X-2743200Y762000D01*
G01X-3872169Y799483D02*
G01X-3834686Y762000D01*
G54D22*
G01X-4203083Y799483D02*
G01X-3872169Y799483D01*
G01X-4368800Y1676400D02*
G01X-4368800Y965200D01*
G01X-4203083Y799483D01*
G01X-3822156Y882583D02*
G01X-4209983Y882583D01*
G01X-4318000Y990600D01*
G01X-4318000Y1828800D01*
G54D21*
G01X-2546949Y877883D02*
G01X-2594923Y877883D01*
G01X-2654300Y937260D01*
G01X-2715260Y734060D02*
G01X-2593340Y734060D01*
G01X-2552700Y774700D01*
G01X-2667000Y1028700D02*
G01X-2641600Y1054100D01*
G01X-2562114Y1054100D01*
G01X-2496936Y988923D01*
G54D22*
G01X-2552756Y936023D02*
G01X-2596936Y980203D01*
G01X-2463800Y736600D02*
G01X-2463800Y914400D01*
G01X-2485423Y936023D01*
G01X-2552756Y936023D01*
G01X-2519680Y680720D02*
G01X-2463800Y736600D01*
G01X-4160520Y680720D02*
G01X-2519680Y680720D01*
G01X-4843784Y1132782D02*
G01X-4719382Y1008380D01*
G01X-4488180Y1008380D01*
G01X-4160520Y680720D01*
G01X-4843784Y1132782D02*
G01X-5095182Y1132782D01*
G01X-5029200Y1826198D02*
G01X-4843784Y1640782D01*
G01X-4970780Y1516380D02*
G01X-5080000Y1625600D01*
G01X-4714185Y1516380D02*
G01X-4970780Y1516380D01*
G01X-4589784Y1640782D02*
G01X-4714185Y1516380D01*
G01X-4843784Y1640782D02*
G01X-4716725Y1767840D01*
G01X-4460240Y1767840D01*
G01X-4368800Y1676400D01*
G01X-4511040Y2021840D02*
G01X-4716725Y2021840D01*
G01X-4843784Y1894782D01*
G01X-4318000Y1828800D02*
G01X-4511040Y2021840D01*
G01X-4843784Y1894782D02*
G01X-4978400Y2029398D01*
G54D17*
G01X-4843783Y2148782D02*
G01X-4836164Y2156402D01*
G54D22*
G01X-4589784Y1132782D02*
G01X-4719382Y1262380D01*
G01X-4996180Y1262380D01*
G01X-5130800Y1397000D01*
G54D17*
G01X-4836164Y2156402D02*
G01X-4836164Y2282200D01*
G54D22*
G01X-3822213Y2247413D02*
G01X-3684139Y2247413D01*
G01X-3987800Y2413000D02*
G01X-3822213Y2247413D01*
G01X-3188839Y2247413D02*
G01X-3278227Y2336800D01*
G01X-3835400Y2336800D01*
G01X-3937000Y2438400D01*
G01X-2693539Y2247413D02*
G01X-2833727Y2387600D01*
G01X-3810000Y2387600D01*
G01X-3886200Y2463800D01*
G01X-3784600Y2438400D02*
G01X-3835400Y2489200D01*
G01X-2667000Y2438400D02*
G01X-3784600Y2438400D01*
G01X-2476013Y2247413D02*
G01X-2667000Y2438400D01*
G01X-2198239Y2247413D02*
G01X-2476013Y2247413D01*
G01X-3987800Y2730874D02*
G01X-3987800Y2413000D01*
G01X-4025526Y2768600D02*
G01X-3987800Y2730874D01*
G01X-3937000Y2438400D02*
G01X-3937000Y2751916D01*
G01X-4004484Y2819400D01*
G01X-3886200Y2463800D02*
G01X-3886200Y2772958D01*
G01X-3983442Y2870200D01*
G01X-3835400Y2489200D02*
G01X-3835400Y2794000D01*
G01X-3962400Y2921000D01*
G01X-4368800Y2768600D02*
G01X-4025526Y2768600D01*
G01X-4521200Y2921000D02*
G01X-4368800Y2768600D01*
G01X-4004484Y2819400D02*
G01X-4347758Y2819400D01*
G01X-4470400Y2942042D01*
G01X-3983442Y2870200D02*
G01X-4326716Y2870200D01*
G01X-4419600Y2963084D01*
G01X-3962400Y2921000D02*
G01X-4305674Y2921000D01*
G01X-4368800Y2984126D01*
G01X-4368800Y3657600D01*
G01X-4513761Y3802561D01*
G01X-4419600Y2963084D02*
G01X-4419600Y3636558D01*
G01X-4534802Y3751761D01*
G01X-4470400Y2942042D02*
G01X-4470400Y3615516D01*
G01X-4555845Y3700961D01*
G54D17*
G01X-4178300Y2225040D02*
G01X-4178300Y1361440D01*
G01X-4315460Y2362200D02*
G01X-4178300Y2225040D01*
G01X-4836164Y2282200D02*
G01X-4756164Y2362200D01*
G54D23*
G01X-4659855Y3181575D02*
G01X-4659855Y2873600D01*
G54D17*
G01X-4843784Y2148782D02*
G01X-4843784Y2506984D01*
G01X-4720523Y2383723D01*
G01X-4720523Y2362200D01*
G01X-4756164Y2362200D02*
G01X-4720523Y2362200D01*
G01X-4315460Y2362200D01*
G54D22*
G01X-1828800Y2235200D02*
G01X-1828800Y1993900D01*
G01X-2641600Y2489200D02*
G01X-2489200Y2336800D01*
G01X-3937000Y2971800D02*
G01X-3784600Y2819400D01*
G01X-1930400Y2336800D02*
G01X-1828800Y2235200D01*
G01X-2489200Y2336800D02*
G01X-1930400Y2336800D01*
G01X-4282440Y2971800D02*
G01X-3937000Y2971800D01*
G01X-4318000Y3007360D02*
G01X-4282440Y2971800D01*
G01X-3761740Y2489200D02*
G01X-2641600Y2489200D01*
G01X-3784600Y2512060D02*
G01X-3761740Y2489200D01*
G01X-3784600Y2819400D02*
G01X-3784600Y2512060D01*
G54D23*
G01X-6197600Y3429000D02*
G01X-6169879Y3456721D01*
G01X-4935001Y3456721D01*
G01X-4659855Y3181575D01*
G54D17*
G01X-4843784Y2506984D02*
G01X-5308600Y2971800D01*
G01X-6555465Y2971800D01*
G01X-6718025Y3134360D01*
G54D22*
G01X-4889500Y2730500D02*
G01X-4800600Y2819400D01*
G01X-4800600Y3048000D01*
G01X-5861578Y2616800D02*
G01X-5956078Y2711300D01*
G01X-5994400Y2540000D02*
G01X-6094178Y2639778D01*
G01X-6094178Y2709880D01*
G01X-6324600Y2590800D02*
G01X-6324600Y2743200D01*
G01X-6223000Y2844800D01*
G01X-5910580Y2844800D01*
G01X-5852160Y2786380D01*
G01X-5765800Y3632200D02*
G01X-4586170Y3632200D01*
G01X-4521200Y3567230D01*
G01X-4521200Y2921000D01*
G01X-4513761Y3802561D02*
G01X-5859961Y3802561D01*
G01X-5095182Y1132782D02*
G01X-5181600Y1219200D01*
G01X-4978400Y2029398D02*
G01X-4978400Y2504440D01*
G01X-5319060Y2845100D01*
G01X-5757678Y2845100D01*
G01X-5679878Y2749700D02*
G01X-5292240Y2749700D01*
G01X-5029200Y2486660D01*
G01X-5029200Y1826198D01*
G01X-5080000Y1625600D02*
G01X-5080000Y2463800D01*
G01X-5295900Y2679700D01*
G01X-5533498Y2679700D01*
G01X-5130800Y1397000D02*
G01X-5130800Y2440940D01*
G01X-5306660Y2616800D01*
G01X-5861578Y2616800D01*
G01X-5181600Y1219200D02*
G01X-5181600Y2415540D01*
G01X-5306060Y2540000D01*
G01X-5994400Y2540000D01*
G01X-4114800Y3606800D02*
G01X-4246880Y3606800D01*
G01X-4318000Y3535680D01*
G01X-4318000Y3007360D01*
G01X-6756400Y3302000D02*
G01X-6756400Y3837940D01*
G01X-6817360Y3898900D01*
G01X-5859961Y3802561D02*
G01X-5957380Y3899980D01*
G01X-6321285Y3899980D01*
G01X-4555845Y3700961D02*
G01X-6109866Y3700961D01*
G01X-6219685Y3810780D01*
G01X-4534802Y3751761D02*
G01X-5986525Y3751761D01*
G01X-6052045Y3817280D01*
G01X-5579969Y3279966D02*
G01X-5886241Y3279966D01*
G01X-6078857Y3087349D01*
G01X-6455317Y3087349D01*
G01X-6652320Y3373682D02*
G01X-6693794Y3415156D01*
G01X-6455317Y3087349D02*
G01X-6652320Y3284352D01*
G01X-6652320Y3373682D01*
G01X-6693794Y3415156D02*
G01X-6693794Y4325763D01*
G01X-6775804Y4407773D01*
G01X-4888900Y2870200D02*
G01X-5103100Y3084400D01*
G01X-5963000Y3084400D01*
G01X-4800600Y3048000D02*
G01X-4920894Y3168294D01*
G01X-5585909Y3168294D01*
G04 Track End*

M02*

