G04 Layer: DrillDrawingLayer*
G04 EasyEDA Pro v2.2.45.4, 2025-12-19 14:04:37*
G04 Gerber Generator version 0.3*
G04 Scale: 100 percent, Rotated: No, Reflected: No*
G04 Dimensions in millimeters*
G04 Leading zeros omitted, absolute positions, 4 integers and 5 decimals*
G04 Generated by one-click*
%FSLAX45Y45*%
%MOMM*%
%AMIconRect*4,1,4,0.28,-0.28,-0.28,-0.28,-0.28,0.28,0.28,0.28,0.28,-0.28,0*4,0,4,0.233333,-0.233333,0.233333,0.233333,-0.233333,0.233333,-0.233333,-0.233333,0.233333,-0.233333,0*%
%AMIconTriangle*4,1,3,-0.339593,0.240473,0.339593,0.240473,0,-0.37884,-0.339593,0.240473,0*4,0,3,-0.265673,0.19404,0,-0.27342,0.266233,0.19404,-0.265673,0.19404,0*%
%AMIconStar6*4,1,12,0.12068,0.20888,0.298527,0.172713,0.241313,0,0.298527,-0.17206,0.12068,-0.208227,0,-0.344073,-0.120073,-0.208227,-0.298573,-0.17206,-0.240707,0,-0.298573,0.17206,-0.120073,0.20888,0,0.344073,0.12068,0.20888,0*4,0,12,-0.000467,0.273467,-0.090067,0.171733,-0.237533,0.136733,-0.193667,-0.007467,-0.237533,-0.1372,-0.090067,-0.171733,-0.000467,-0.273933,0.090067,-0.171733,0.237533,-0.1372,0.194133,0.007,0.237533,0.1372,0.090067,0.171267,-0.000467,0.273467,0*%
%AMIconStar4*4,1,8,-0.311733,0.311733,0,0.202533,0.311733,0.311733,0.202533,0,0.311733,-0.311733,0,-0.202533,-0.304407,-0.311733,-0.202533,0,-0.311733,0.311733,0*4,0,8,0.233333,-0.233333,0.1512,0,0.233333,0.233333,0,0.1512,-0.233333,0.233333,-0.1512,0,-0.233333,-0.233333,0,-0.1512,0.233333,-0.233333,0*%
%AMIconPlus*4,1,12,0.1736,-0.28,-0.1736,-0.28,-0.1736,-0.1736,-0.28,-0.1736,-0.28,0.1736,-0.1736,0.1736,-0.1736,0.28,0.1736,0.28,0.1736,0.1736,0.28,0.1736,0.28,-0.1736,0.1736,-0.1736,0.1736,-0.28,0*4,0,12,0.126933,-0.233333,0.126933,-0.126933,0.233333,-0.126933,0.233333,0.126933,0.126933,0.126933,0.126933,0.233333,-0.126933,0.233333,-0.126933,0.126933,-0.233333,0.126933,-0.233333,-0.126933,-0.126933,-0.126933,-0.126933,-0.233333,0.126933,-0.233333,0*%
%AMIconX*4,1,16,0.28,-0.28,0.076347,-0.28,0,-0.203653,-0.076347,-0.28,-0.28,-0.28,-0.28,-0.076347,-0.203653,0,-0.28,0.076347,-0.28,0.28,-0.076347,0.28,0,0.203653,0.076347,0.28,0.28,0.28,0.28,0.076347,0.203653,0,0.28,-0.076347,0.28,-0.28,0*4,0,16,0.23352,-0.23296,0.23352,-0.095853,0.137107,0.000093,0.23352,0.095853,0.23352,0.2331,0.095853,0.2331,0,0.137107,-0.095853,0.2331,-0.23352,0.2331,-0.23352,0.095853,-0.137107,0.000093,-0.23352,-0.095853,-0.23352,-0.23296,-0.095853,-0.23296,0,-0.137107,0.095853,-0.23296,0.23352,-0.23296,0*%
%ADD10IconRect*%
%ADD11C,0.616X0.522667*%
%ADD12IconTriangle*%
%ADD13IconStar6*%
%ADD14IconStar4*%
%ADD15IconPlus*%
%ADD16IconX*%
G75*


G04 Drill Drawing Start*
G54D10*
G01X-2209800Y3124200D03*
G54D11*
G01X-5963000Y3084400D03*
G01X-4114800Y3606800D03*
G54D12*
G01X-1514884Y2229617D03*
G01X-1514884Y2730505D03*
G54D13*
G01X-3872169Y799483D03*
G01X-3822156Y882583D03*
G01X-3772169Y813283D03*
G01X-3722156Y972583D03*
G01X-3672169Y903283D03*
G01X-3622156Y1006703D03*
G01X-2696936Y882583D03*
G01X-2646949Y813283D03*
G01X-2596936Y980203D03*
G01X-2552700Y774700D03*
G01X-2546949Y877883D03*
G01X-2496936Y988923D03*
G54D14*
G01X-4843784Y878782D03*
G01X-4843784Y1132782D03*
G01X-4843784Y1386782D03*
G01X-4843784Y1640782D03*
G01X-4843784Y1894782D03*
G01X-4843784Y2148782D03*
G01X-4589784Y878782D03*
G01X-4589784Y1132782D03*
G01X-4589784Y1386782D03*
G01X-4589784Y1640782D03*
G01X-4589784Y1894782D03*
G01X-4589784Y2148782D03*
G01X-1861091Y789705D03*
G01X-1607091Y789705D03*
G01X-1353091Y789705D03*
G01X-1349384Y1414904D03*
G01X-1349384Y1746004D03*
G01X-1095384Y791704D03*
G01X-1095384Y1414904D03*
G01X-1095384Y1746004D03*
G54D15*
G01X-4876800Y3946950D03*
G01X-4876800Y4146950D03*
G01X-4876800Y4346950D03*
G01X-4876800Y4546950D03*
G01X-4714240Y4045610D03*
G01X-4714240Y4245610D03*
G01X-4714240Y4445610D03*
G01X-3814700Y1485900D03*
G01X-3700400Y1562100D03*
G01X-3314700Y1485900D03*
G01X-3200400Y1562100D03*
G01X-2921000Y2667000D03*
G01X-2840100Y1485900D03*
G01X-2725800Y1562100D03*
G01X-2590800Y2794000D03*
G01X-2258060Y2519540D03*
G01X-2258060Y2669540D03*
G01X-2209800Y3695700D03*
G01X-2136140Y3571240D03*
G01X-2133600Y2443200D03*
G01X-2133600Y2593200D03*
G01X-2133600Y2743200D03*
G01X-2059800Y3695700D03*
G01X-1986140Y3571240D03*
G01X-1909800Y3695700D03*
G01X-1727200Y3327400D03*
G54D16*
G01X-6830060Y3134360D03*
G01X-6817360Y3898900D03*
G01X-6775804Y4407773D03*
G01X-6756400Y3302000D03*
G01X-6718025Y3134360D03*
G01X-6527800Y3403600D03*
G01X-6527800Y3515635D03*
G01X-6324600Y2590800D03*
G01X-6321285Y3899980D03*
G01X-6299200Y3225800D03*
G01X-6299200Y3352800D03*
G01X-6223000Y3454400D03*
G01X-6219685Y3810780D03*
G01X-6094178Y2709880D03*
G01X-6052045Y3817280D03*
G01X-5956078Y2711300D03*
G01X-5852160Y2786380D03*
G01X-5765800Y3632200D03*
G01X-5757678Y2845100D03*
G01X-5679878Y2749700D03*
G01X-5588000Y3276600D03*
G01X-5585909Y3168294D03*
G01X-5533498Y2679700D03*
G01X-4889500Y2730500D03*
G01X-4888900Y2870200D03*
G01X-4622800Y2606040D03*
G01X-4487573Y2530963D03*
G01X-4368800Y2606040D03*
G01X-4253230Y2528570D03*
G01X-4178300Y1092200D03*
G01X-4051300Y1092200D03*
G01X-3684139Y2247413D03*
G01X-3274060Y1272540D03*
G01X-3200400Y1168400D03*
G01X-3188839Y2247413D03*
G01X-3135993Y1270000D03*
G01X-3073400Y1168400D03*
G01X-2693539Y2247413D03*
G01X-2439800Y3124200D03*
G01X-2395874Y2989010D03*
G01X-2395874Y3259390D03*
G01X-2280874Y2905457D03*
G01X-2280874Y3342943D03*
G01X-2198239Y2247413D03*
G01X-2138726Y2905457D03*
G01X-2138726Y3342943D03*
G01X-2023726Y2989010D03*
G01X-2023726Y3259390D03*
G01X-1979800Y3124200D03*
G01X-1828800Y1993900D03*
G04 Drill Drawing End*

M02*

